<?xml version="1.0" encoding="UTF-8" standalone="no"?>
<!DOCTYPE svg PUBLIC "-//W3C//DTD SVG 1.1//EN" "http://www.w3.org/Graphics/SVG/1.1/DTD/svg11.dtd">
<svg xmlns="http://www.w3.org/2000/svg" version="1.1" viewBox="0.00 0.00 1024.00 443.00">
<g stroke-width="2.00" fill="none" stroke-linecap="butt">
<path stroke="#f7bc9c" vector-effect="non-scaling-stroke" d="
  M 212.56 160.90
  Q 212.42 160.96 212.40 161.01
  C 208.71 168.02 208.52 176.19 211.68 183.43
  C 214.85 190.67 220.98 196.08 228.63 198.14
  Q 228.68 198.15 228.82 198.09
  Q 228.96 198.03 228.98 197.98
  C 232.67 190.97 232.86 182.80 229.70 175.56
  C 226.53 168.32 220.40 162.91 212.75 160.85
  Q 212.70 160.84 212.56 160.90"
/>
<path stroke="#f7bc9c" vector-effect="non-scaling-stroke" d="
  M 243.48 175.73
  C 240.30 183.03 240.46 190.95 243.80 198.25
  Q 243.86 198.37 243.94 198.43
  Q 244.01 198.49 244.13 198.54
  Q 244.16 198.55 244.25 198.57
  Q 244.35 198.58 244.47 198.55
  C 252.10 196.02 258.00 190.75 261.19 183.45
  C 264.37 176.15 264.21 168.23 260.87 160.93
  Q 260.81 160.81 260.73 160.75
  Q 260.66 160.69 260.54 160.64
  Q 260.51 160.63 260.42 160.61
  Q 260.32 160.60 260.20 160.64
  C 252.57 163.16 246.66 168.43 243.48 175.73"
/>
<path stroke="#858787" vector-effect="non-scaling-stroke" d="
  M 540.55 201.25
  L 540.55 182.27
  A 0.53 0.53 0.0 0 0 540.02 181.74
  L 529.58 181.74
  Q 528.94 181.74 528.94 182.39
  L 528.94 240.02
  Q 528.94 240.61 529.52 240.61
  L 540.14 240.61
  A 0.42 0.41 -0.7 0 0 540.56 240.19
  Q 540.47 223.69 540.65 215.71
  C 540.92 204.14 556.98 203.64 557.08 214.53
  Q 557.22 228.77 557.09 239.96
  Q 557.09 240.60 557.73 240.60
  L 568.43 240.60
  Q 568.96 240.60 568.96 240.07
  Q 568.98 230.43 568.91 215.00
  C 568.87 208.28 566.78 201.09 559.83 198.54
  Q 549.51 194.75 540.85 201.40
  A 0.19 0.19 0.0 0 1 540.55 201.25"
/>
<path stroke="#f7bc9c" vector-effect="non-scaling-stroke" d="
  M 179.06 193.63
  Q 179.00 193.78 179.01 193.83
  C 181.24 201.71 186.90 207.97 194.43 211.15
  C 201.95 214.32 210.38 214.02 217.58 210.12
  Q 217.63 210.09 217.69 209.95
  Q 217.75 209.81 217.73 209.75
  C 215.51 201.87 209.85 195.61 202.32 192.44
  C 194.80 189.26 186.37 189.56 179.17 193.47
  Q 179.12 193.50 179.06 193.63"
/>
<path stroke="#f7bc9c" vector-effect="non-scaling-stroke" d="
  M 293.96 193.59
  Q 293.90 193.45 293.85 193.42
  C 286.68 189.54 278.27 189.26 270.78 192.43
  C 263.28 195.61 257.65 201.85 255.44 209.71
  Q 255.43 209.76 255.49 209.90
  Q 255.55 210.05 255.60 210.07
  C 262.78 213.95 271.18 214.24 278.67 211.07
  C 286.17 207.89 291.81 201.65 294.01 193.79
  Q 294.02 193.73 293.96 193.59"
/>
<path stroke="#858787" vector-effect="non-scaling-stroke" d="
  M 341.86 201.45
  L 341.86 198.49
  Q 341.86 197.86 341.22 197.86
  L 330.65 197.86
  A 0.35 0.35 0.0 0 0 330.30 198.21
  L 330.30 254.01
  Q 330.30 254.47 330.76 254.47
  L 341.32 254.47
  Q 341.85 254.47 341.85 253.93
  L 341.85 237.02
  Q 341.85 236.06 342.44 236.82
  C 346.12 241.58 354.28 242.25 359.73 241.16
  C 382.88 236.54 381.87 199.39 357.22 197.09
  Q 347.93 196.22 342.43 201.69
  Q 341.86 202.26 341.86 201.45"
/>
<path stroke="#858787" vector-effect="non-scaling-stroke" d="
  M 705.56 219.31
  C 705.58 232.72 714.35 241.70 727.79 241.58
  Q 734.62 241.52 739.57 236.99
  Q 740.11 236.49 740.11 237.23
  L 740.11 239.64
  A 1.01 1.01 0.0 0 0 741.12 240.65
  L 751.11 240.65
  A 0.54 0.54 0.0 0 0 751.65 240.11
  Q 751.65 238.84 751.63 219.26
  Q 751.61 199.68 751.60 198.41
  A 0.54 0.54 0.0 0 0 751.07 197.87
  L 741.08 197.89
  A 1.01 1.01 0.0 0 0 740.07 198.90
  L 740.07 201.31
  Q 740.07 202.05 739.53 201.56
  Q 734.57 197.04 727.75 196.99
  C 714.30 196.89 705.55 205.90 705.56 219.31"
/>
<path stroke="#858787" vector-effect="non-scaling-stroke" d="
  M 396.33 211.35
  A 2.11 2.10 60.2 0 1 397.09 208.52
  Q 402.82 205.08 413.64 211.02
  Q 413.88 211.15 414.05 210.93
  L 419.77 203.37
  Q 419.90 203.20 419.72 203.07
  Q 406.36 193.68 391.73 199.25
  C 387.31 200.93 385.00 203.71 384.49 208.33
  C 383.04 221.68 395.76 223.57 406.02 224.88
  Q 407.74 225.10 409.30 226.56
  Q 409.66 226.90 409.60 227.39
  C 408.64 235.61 393.66 229.62 390.13 227.31
  A 0.71 0.71 0.0 0 0 389.17 227.47
  L 384.01 234.28
  A 0.95 0.95 0.0 0 0 384.24 235.64
  Q 395.20 243.04 407.99 241.34
  Q 420.81 239.64 421.21 227.99
  C 421.63 215.74 409.29 215.19 399.55 213.30
  Q 397.16 212.83 396.33 211.35"
/>
<path stroke="#858787" vector-effect="non-scaling-stroke" d="
  M 476.17 219.56
  Q 476.19 225.99 479.54 230.91
  Q 488.05 243.43 503.31 241.41
  Q 514.61 239.92 520.09 229.75
  Q 520.35 229.26 519.83 229.05
  L 510.79 225.38
  A 0.77 0.76 26.8 0 0 509.86 225.68
  C 503.30 235.93 487.84 232.15 487.80 219.52
  C 487.76 206.90 503.20 203.02 509.83 213.23
  A 0.77 0.76 -27.2 0 0 510.75 213.52
  L 519.77 209.80
  Q 520.29 209.59 520.03 209.10
  Q 514.49 198.96 503.18 197.54
  Q 487.91 195.61 479.47 208.18
  Q 476.16 213.12 476.17 219.56"
/>
<path stroke="#858787" vector-effect="non-scaling-stroke" d="
  M 590.03 224.45
  A 0.48 0.48 0.0 0 1 590.49 223.83
  L 623.24 223.83
  A 0.59 0.58 1.0 0 0 623.83 223.27
  Q 623.96 220.26 623.80 216.50
  C 623.55 210.49 619.75 204.33 615.08 201.37
  Q 601.36 192.68 587.17 201.74
  Q 580.87 205.76 579.05 213.30
  C 572.59 239.99 606.49 251.56 621.46 232.18
  A 0.37 0.36 33.9 0 0 621.35 231.65
  L 613.07 226.87
  Q 612.59 226.59 612.21 226.99
  Q 607.16 232.28 600.49 231.55
  C 595.75 231.03 591.50 229.28 590.03 224.45"
/>
<path stroke="#858787" vector-effect="non-scaling-stroke" d="
  M 654.88 219.52
  Q 654.89 225.96 658.23 230.88
  Q 666.73 243.40 681.98 241.39
  Q 693.28 239.91 698.76 229.75
  Q 699.02 229.26 698.50 229.05
  L 689.47 225.37
  A 0.77 0.76 26.9 0 0 688.55 225.67
  C 681.98 235.91 666.52 232.12 666.49 219.50
  C 666.47 206.88 681.91 203.02 688.52 213.23
  A 0.77 0.76 -27.1 0 0 689.45 213.52
  L 698.46 209.81
  Q 698.98 209.59 698.72 209.11
  Q 693.19 198.97 681.89 197.54
  Q 666.62 195.60 658.18 208.16
  Q 654.86 213.09 654.88 219.52"
/>
<path stroke="#858787" vector-effect="non-scaling-stroke" d="
  M 774.58 202.81
  L 774.58 198.45
  A 0.57 0.57 0.0 0 0 774.01 197.88
  L 763.59 197.88
  Q 763.05 197.88 763.05 198.42
  L 763.05 240.14
  A 0.46 0.46 0.0 0 0 763.51 240.60
  L 774.22 240.60
  A 0.43 0.43 0.0 0 0 774.65 240.16
  Q 774.47 230.24 774.74 220.29
  C 774.95 212.51 781.62 208.02 788.86 208.42
  A 0.44 0.44 0.0 0 0 789.33 207.98
  L 789.33 197.97
  Q 789.33 197.37 788.74 197.36
  Q 780.24 197.16 775.07 203.00
  Q 774.58 203.55 774.58 202.81"
/>
<path stroke="#858787" vector-effect="non-scaling-stroke" d="
  M 804.67 224.45
  A 0.48 0.48 0.0 0 1 805.13 223.83
  L 837.87 223.83
  A 0.59 0.58 1.0 0 0 838.46 223.27
  Q 838.59 220.26 838.43 216.50
  C 838.18 210.49 834.38 204.33 829.71 201.38
  Q 816.00 192.69 801.81 201.75
  Q 795.51 205.76 793.69 213.30
  C 787.24 239.98 821.12 251.54 836.09 232.17
  A 0.37 0.36 33.9 0 0 835.98 231.64
  L 827.70 226.87
  Q 827.22 226.59 826.84 226.98
  Q 821.79 232.27 815.13 231.54
  C 810.39 231.02 806.14 229.27 804.67 224.45"
/>
<path stroke="#858787" vector-effect="non-scaling-stroke" d="
  M 459.15 198.02
  A 0.36 0.36 0.0 0 0 458.81 198.26
  L 449.28 224.39
  A 0.36 0.36 0.0 0 1 448.61 224.40
  L 438.14 198.24
  A 0.36 0.36 0.0 0 0 437.81 198.01
  L 425.16 198.01
  A 0.36 0.36 0.0 0 0 424.83 198.52
  L 442.84 238.77
  A 0.36 0.36 0.0 0 1 442.84 239.05
  L 435.86 256.28
  A 0.36 0.36 0.0 0 0 436.19 256.78
  L 448.28 256.78
  A 0.36 0.36 0.0 0 0 448.61 256.56
  L 472.14 198.52
  A 0.36 0.36 0.0 0 0 471.81 198.02
  L 459.15 198.02"
/>
<path stroke="#f7bc9c" vector-effect="non-scaling-stroke" d="
  M 194.90 224.52
  C 187.62 227.44 182.26 233.09 179.55 240.51
  Q 179.51 240.64 179.52 240.73
  Q 179.54 240.82 179.55 240.85
  Q 179.60 240.97 179.65 241.04
  Q 179.71 241.12 179.82 241.18
  C 186.90 244.69 194.68 245.08 201.96 242.16
  C 209.23 239.25 214.60 233.60 217.30 226.17
  Q 217.34 226.05 217.33 225.95
  Q 217.32 225.86 217.31 225.83
  Q 217.26 225.72 217.21 225.64
  Q 217.15 225.57 217.04 225.51
  C 209.95 222.00 202.17 221.61 194.90 224.52"
/>
<path stroke="#f7bc9c" vector-effect="non-scaling-stroke" d="
  M 271.09 242.19
  C 278.38 245.10 286.18 244.70 293.27 241.18
  Q 293.39 241.12 293.44 241.04
  Q 293.50 240.97 293.51 240.93
  Q 293.56 240.82 293.57 240.73
  Q 293.58 240.63 293.54 240.51
  C 290.82 233.07 285.44 227.42 278.14 224.51
  C 270.85 221.60 263.05 222.00 255.96 225.52
  Q 255.85 225.58 255.79 225.66
  Q 255.74 225.74 255.72 225.77
  Q 255.68 225.88 255.66 225.97
  Q 255.65 226.07 255.69 226.19
  C 258.42 233.63 263.80 239.29 271.09 242.19"
/>
<path stroke="#f7bc9c" vector-effect="non-scaling-stroke" d="
  M 259.70 274.80
  Q 259.84 274.75 259.87 274.70
  C 263.94 267.76 264.51 259.49 261.64 252.00
  C 258.76 244.51 252.80 238.74 245.14 236.31
  Q 245.09 236.29 244.95 236.34
  Q 244.81 236.40 244.78 236.45
  C 240.71 243.38 240.14 251.66 243.01 259.14
  C 245.89 266.63 251.84 272.40 259.51 274.84
  Q 259.56 274.86 259.70 274.80"
/>
<path stroke="#f7bc9c" vector-effect="non-scaling-stroke" d="
  M 213.09 274.86
  Q 213.23 274.92 213.28 274.90
  C 220.97 272.56 226.99 266.87 229.95 259.42
  C 232.91 251.98 232.43 243.71 228.45 236.73
  Q 228.43 236.68 228.28 236.63
  Q 228.15 236.57 228.09 236.59
  C 220.41 238.93 214.39 244.62 211.43 252.07
  C 208.47 259.51 208.94 267.78 212.92 274.76
  Q 212.95 274.81 213.09 274.86"
/>
<path stroke="#858787" vector-effect="non-scaling-stroke" d="
  M 364.5201 216.7739
  A 10.57 10.57 0.0 0 0 352.9360 207.3261
  L 350.8667 207.5363
  A 10.57 10.57 0.0 0 0 341.4190 219.1204
  L 341.6999 221.8861
  A 10.57 10.57 0.0 0 0 353.2840 231.3339
  L 355.3533 231.1237
  A 10.57 10.57 0.0 0 0 364.8010 219.5396
  L 364.5201 216.7739"
/>
<path stroke="#858787" vector-effect="non-scaling-stroke" d="
  M 730.7880 231.3691
  A 12.24 11.91 80.7 0 0 740.5635 217.3653
  A 12.24 11.91 80.7 0 0 726.8320 207.2109
  A 12.24 11.91 80.7 0 0 717.0565 221.2147
  A 12.24 11.91 80.7 0 0 730.7880 231.3691"
/>
<path stroke="#858787" vector-effect="non-scaling-stroke" d="
  M 590.67 215.57
  L 611.31 215.49
  A 0.12 0.12 0.0 0 0 611.43 215.37
  L 611.43 215.33
  A 10.33 7.92 -0.2 0 0 601.08 207.45
  L 600.86 207.45
  A 10.33 7.92 -0.2 0 0 590.55 215.41
  L 590.55 215.45
  A 0.12 0.12 0.0 0 0 590.67 215.57"
/>
<path stroke="#858787" vector-effect="non-scaling-stroke" d="
  M 805.15 215.57
  L 826.11 215.49
  A 0.01 0.01 0.0 0 0 826.12 215.48
  L 826.12 215.40
  A 10.38 8.01 -0.2 0 0 815.72 207.43
  L 815.50 207.43
  A 10.38 8.01 -0.2 0 0 805.14 215.48
  L 805.14 215.56
  A 0.01 0.01 0.0 0 0 805.15 215.57"
/>
</g>
<path fill="#f8fcfc" d="
  M 1024.00 0.00
  L 1024.00 443.00
  L 0.00 443.00
  L 0.00 0.00
  L 1024.00 0.00
  Z
  M 212.56 160.90
  Q 212.42 160.96 212.40 161.01
  C 208.71 168.02 208.52 176.19 211.68 183.43
  C 214.85 190.67 220.98 196.08 228.63 198.14
  Q 228.68 198.15 228.82 198.09
  Q 228.96 198.03 228.98 197.98
  C 232.67 190.97 232.86 182.80 229.70 175.56
  C 226.53 168.32 220.40 162.91 212.75 160.85
  Q 212.70 160.84 212.56 160.90
  Z
  M 243.48 175.73
  C 240.30 183.03 240.46 190.95 243.80 198.25
  Q 243.86 198.37 243.94 198.43
  Q 244.01 198.49 244.13 198.54
  Q 244.16 198.55 244.25 198.57
  Q 244.35 198.58 244.47 198.55
  C 252.10 196.02 258.00 190.75 261.19 183.45
  C 264.37 176.15 264.21 168.23 260.87 160.93
  Q 260.81 160.81 260.73 160.75
  Q 260.66 160.69 260.54 160.64
  Q 260.51 160.63 260.42 160.61
  Q 260.32 160.60 260.20 160.64
  C 252.57 163.16 246.66 168.43 243.48 175.73
  Z
  M 540.55 201.25
  L 540.55 182.27
  A 0.53 0.53 0.0 0 0 540.02 181.74
  L 529.58 181.74
  Q 528.94 181.74 528.94 182.39
  L 528.94 240.02
  Q 528.94 240.61 529.52 240.61
  L 540.14 240.61
  A 0.42 0.41 -0.7 0 0 540.56 240.19
  Q 540.47 223.69 540.65 215.71
  C 540.92 204.14 556.98 203.64 557.08 214.53
  Q 557.22 228.77 557.09 239.96
  Q 557.09 240.60 557.73 240.60
  L 568.43 240.60
  Q 568.96 240.60 568.96 240.07
  Q 568.98 230.43 568.91 215.00
  C 568.87 208.28 566.78 201.09 559.83 198.54
  Q 549.51 194.75 540.85 201.40
  A 0.19 0.19 0.0 0 1 540.55 201.25
  Z
  M 179.06 193.63
  Q 179.00 193.78 179.01 193.83
  C 181.24 201.71 186.90 207.97 194.43 211.15
  C 201.95 214.32 210.38 214.02 217.58 210.12
  Q 217.63 210.09 217.69 209.95
  Q 217.75 209.81 217.73 209.75
  C 215.51 201.87 209.85 195.61 202.32 192.44
  C 194.80 189.26 186.37 189.56 179.17 193.47
  Q 179.12 193.50 179.06 193.63
  Z
  M 293.96 193.59
  Q 293.90 193.45 293.85 193.42
  C 286.68 189.54 278.27 189.26 270.78 192.43
  C 263.28 195.61 257.65 201.85 255.44 209.71
  Q 255.43 209.76 255.49 209.90
  Q 255.55 210.05 255.60 210.07
  C 262.78 213.95 271.18 214.24 278.67 211.07
  C 286.17 207.89 291.81 201.65 294.01 193.79
  Q 294.02 193.73 293.96 193.59
  Z
  M 341.86 201.45
  L 341.86 198.49
  Q 341.86 197.86 341.22 197.86
  L 330.65 197.86
  A 0.35 0.35 0.0 0 0 330.30 198.21
  L 330.30 254.01
  Q 330.30 254.47 330.76 254.47
  L 341.32 254.47
  Q 341.85 254.47 341.85 253.93
  L 341.85 237.02
  Q 341.85 236.06 342.44 236.82
  C 346.12 241.58 354.28 242.25 359.73 241.16
  C 382.88 236.54 381.87 199.39 357.22 197.09
  Q 347.93 196.22 342.43 201.69
  Q 341.86 202.26 341.86 201.45
  Z
  M 705.56 219.31
  C 705.58 232.72 714.35 241.70 727.79 241.58
  Q 734.62 241.52 739.57 236.99
  Q 740.11 236.49 740.11 237.23
  L 740.11 239.64
  A 1.01 1.01 0.0 0 0 741.12 240.65
  L 751.11 240.65
  A 0.54 0.54 0.0 0 0 751.65 240.11
  Q 751.65 238.84 751.63 219.26
  Q 751.61 199.68 751.60 198.41
  A 0.54 0.54 0.0 0 0 751.07 197.87
  L 741.08 197.89
  A 1.01 1.01 0.0 0 0 740.07 198.90
  L 740.07 201.31
  Q 740.07 202.05 739.53 201.56
  Q 734.57 197.04 727.75 196.99
  C 714.30 196.89 705.55 205.90 705.56 219.31
  Z
  M 396.33 211.35
  A 2.11 2.10 60.2 0 1 397.09 208.52
  Q 402.82 205.08 413.64 211.02
  Q 413.88 211.15 414.05 210.93
  L 419.77 203.37
  Q 419.90 203.20 419.72 203.07
  Q 406.36 193.68 391.73 199.25
  C 387.31 200.93 385.00 203.71 384.49 208.33
  C 383.04 221.68 395.76 223.57 406.02 224.88
  Q 407.74 225.10 409.30 226.56
  Q 409.66 226.90 409.60 227.39
  C 408.64 235.61 393.66 229.62 390.13 227.31
  A 0.71 0.71 0.0 0 0 389.17 227.47
  L 384.01 234.28
  A 0.95 0.95 0.0 0 0 384.24 235.64
  Q 395.20 243.04 407.99 241.34
  Q 420.81 239.64 421.21 227.99
  C 421.63 215.74 409.29 215.19 399.55 213.30
  Q 397.16 212.83 396.33 211.35
  Z
  M 476.17 219.56
  Q 476.19 225.99 479.54 230.91
  Q 488.05 243.43 503.31 241.41
  Q 514.61 239.92 520.09 229.75
  Q 520.35 229.26 519.83 229.05
  L 510.79 225.38
  A 0.77 0.76 26.8 0 0 509.86 225.68
  C 503.30 235.93 487.84 232.15 487.80 219.52
  C 487.76 206.90 503.20 203.02 509.83 213.23
  A 0.77 0.76 -27.2 0 0 510.75 213.52
  L 519.77 209.80
  Q 520.29 209.59 520.03 209.10
  Q 514.49 198.96 503.18 197.54
  Q 487.91 195.61 479.47 208.18
  Q 476.16 213.12 476.17 219.56
  Z
  M 590.03 224.45
  A 0.48 0.48 0.0 0 1 590.49 223.83
  L 623.24 223.83
  A 0.59 0.58 1.0 0 0 623.83 223.27
  Q 623.96 220.26 623.80 216.50
  C 623.55 210.49 619.75 204.33 615.08 201.37
  Q 601.36 192.68 587.17 201.74
  Q 580.87 205.76 579.05 213.30
  C 572.59 239.99 606.49 251.56 621.46 232.18
  A 0.37 0.36 33.9 0 0 621.35 231.65
  L 613.07 226.87
  Q 612.59 226.59 612.21 226.99
  Q 607.16 232.28 600.49 231.55
  C 595.75 231.03 591.50 229.28 590.03 224.45
  Z
  M 654.88 219.52
  Q 654.89 225.96 658.23 230.88
  Q 666.73 243.40 681.98 241.39
  Q 693.28 239.91 698.76 229.75
  Q 699.02 229.26 698.50 229.05
  L 689.47 225.37
  A 0.77 0.76 26.9 0 0 688.55 225.67
  C 681.98 235.91 666.52 232.12 666.49 219.50
  C 666.47 206.88 681.91 203.02 688.52 213.23
  A 0.77 0.76 -27.1 0 0 689.45 213.52
  L 698.46 209.81
  Q 698.98 209.59 698.72 209.11
  Q 693.19 198.97 681.89 197.54
  Q 666.62 195.60 658.18 208.16
  Q 654.86 213.09 654.88 219.52
  Z
  M 774.58 202.81
  L 774.58 198.45
  A 0.57 0.57 0.0 0 0 774.01 197.88
  L 763.59 197.88
  Q 763.05 197.88 763.05 198.42
  L 763.05 240.14
  A 0.46 0.46 0.0 0 0 763.51 240.60
  L 774.22 240.60
  A 0.43 0.43 0.0 0 0 774.65 240.16
  Q 774.47 230.24 774.74 220.29
  C 774.95 212.51 781.62 208.02 788.86 208.42
  A 0.44 0.44 0.0 0 0 789.33 207.98
  L 789.33 197.97
  Q 789.33 197.37 788.74 197.36
  Q 780.24 197.16 775.07 203.00
  Q 774.58 203.55 774.58 202.81
  Z
  M 804.67 224.45
  A 0.48 0.48 0.0 0 1 805.13 223.83
  L 837.87 223.83
  A 0.59 0.58 1.0 0 0 838.46 223.27
  Q 838.59 220.26 838.43 216.50
  C 838.18 210.49 834.38 204.33 829.71 201.38
  Q 816.00 192.69 801.81 201.75
  Q 795.51 205.76 793.69 213.30
  C 787.24 239.98 821.12 251.54 836.09 232.17
  A 0.37 0.36 33.9 0 0 835.98 231.64
  L 827.70 226.87
  Q 827.22 226.59 826.84 226.98
  Q 821.79 232.27 815.13 231.54
  C 810.39 231.02 806.14 229.27 804.67 224.45
  Z
  M 459.15 198.02
  A 0.36 0.36 0.0 0 0 458.81 198.26
  L 449.28 224.39
  A 0.36 0.36 0.0 0 1 448.61 224.40
  L 438.14 198.24
  A 0.36 0.36 0.0 0 0 437.81 198.01
  L 425.16 198.01
  A 0.36 0.36 0.0 0 0 424.83 198.52
  L 442.84 238.77
  A 0.36 0.36 0.0 0 1 442.84 239.05
  L 435.86 256.28
  A 0.36 0.36 0.0 0 0 436.19 256.78
  L 448.28 256.78
  A 0.36 0.36 0.0 0 0 448.61 256.56
  L 472.14 198.52
  A 0.36 0.36 0.0 0 0 471.81 198.02
  L 459.15 198.02
  Z
  M 194.90 224.52
  C 187.62 227.44 182.26 233.09 179.55 240.51
  Q 179.51 240.64 179.52 240.73
  Q 179.54 240.82 179.55 240.85
  Q 179.60 240.97 179.65 241.04
  Q 179.71 241.12 179.82 241.18
  C 186.90 244.69 194.68 245.08 201.96 242.16
  C 209.23 239.25 214.60 233.60 217.30 226.17
  Q 217.34 226.05 217.33 225.95
  Q 217.32 225.86 217.31 225.83
  Q 217.26 225.72 217.21 225.64
  Q 217.15 225.57 217.04 225.51
  C 209.95 222.00 202.17 221.61 194.90 224.52
  Z
  M 271.09 242.19
  C 278.38 245.10 286.18 244.70 293.27 241.18
  Q 293.39 241.12 293.44 241.04
  Q 293.50 240.97 293.51 240.93
  Q 293.56 240.82 293.57 240.73
  Q 293.58 240.63 293.54 240.51
  C 290.82 233.07 285.44 227.42 278.14 224.51
  C 270.85 221.60 263.05 222.00 255.96 225.52
  Q 255.85 225.58 255.79 225.66
  Q 255.74 225.74 255.72 225.77
  Q 255.68 225.88 255.66 225.97
  Q 255.65 226.07 255.69 226.19
  C 258.42 233.63 263.80 239.29 271.09 242.19
  Z
  M 259.70 274.80
  Q 259.84 274.75 259.87 274.70
  C 263.94 267.76 264.51 259.49 261.64 252.00
  C 258.76 244.51 252.80 238.74 245.14 236.31
  Q 245.09 236.29 244.95 236.34
  Q 244.81 236.40 244.78 236.45
  C 240.71 243.38 240.14 251.66 243.01 259.14
  C 245.89 266.63 251.84 272.40 259.51 274.84
  Q 259.56 274.86 259.70 274.80
  Z
  M 213.09 274.86
  Q 213.23 274.92 213.28 274.90
  C 220.97 272.56 226.99 266.87 229.95 259.42
  C 232.91 251.98 232.43 243.71 228.45 236.73
  Q 228.43 236.68 228.28 236.63
  Q 228.15 236.57 228.09 236.59
  C 220.41 238.93 214.39 244.62 211.43 252.07
  C 208.47 259.51 208.94 267.78 212.92 274.76
  Q 212.95 274.81 213.09 274.86
  Z"
/>
<path fill="#f67b3c" d="
  M 212.56 160.90
  Q 212.70 160.84 212.75 160.85
  C 220.40 162.91 226.53 168.32 229.70 175.56
  C 232.86 182.80 232.67 190.97 228.98 197.98
  Q 228.96 198.03 228.82 198.09
  Q 228.68 198.15 228.63 198.14
  C 220.98 196.08 214.85 190.67 211.68 183.43
  C 208.52 176.19 208.71 168.02 212.40 161.01
  Q 212.42 160.96 212.56 160.90
  Z"
/>
<path fill="#f67b3c" d="
  M 260.54 160.64
  Q 260.66 160.69 260.73 160.75
  Q 260.81 160.81 260.87 160.93
  C 264.21 168.23 264.37 176.15 261.19 183.45
  C 258.00 190.75 252.10 196.02 244.47 198.55
  Q 244.35 198.58 244.25 198.57
  Q 244.16 198.55 244.13 198.54
  Q 244.01 198.49 243.94 198.43
  Q 243.86 198.37 243.80 198.25
  C 240.46 190.95 240.30 183.03 243.48 175.73
  C 246.66 168.43 252.57 163.16 260.20 160.64
  Q 260.32 160.60 260.42 160.61
  Q 260.51 160.63 260.54 160.64
  Z"
/>
<path fill="#111111" d="
  M 540.55 201.25
  A 0.19 0.19 0.0 0 0 540.85 201.40
  Q 549.51 194.75 559.83 198.54
  C 566.78 201.09 568.87 208.28 568.91 215.00
  Q 568.98 230.43 568.96 240.07
  Q 568.96 240.60 568.43 240.60
  L 557.73 240.60
  Q 557.09 240.60 557.09 239.96
  Q 557.22 228.77 557.08 214.53
  C 556.98 203.64 540.92 204.14 540.65 215.71
  Q 540.47 223.69 540.56 240.19
  A 0.42 0.41 -0.7 0 1 540.14 240.61
  L 529.52 240.61
  Q 528.94 240.61 528.94 240.02
  L 528.94 182.39
  Q 528.94 181.74 529.58 181.74
  L 540.02 181.74
  A 0.53 0.53 0.0 0 1 540.55 182.27
  L 540.55 201.25
  Z"
/>
<path fill="#f67b3c" d="
  M 202.32 192.44
  C 209.85 195.61 215.51 201.87 217.73 209.75
  Q 217.75 209.81 217.69 209.95
  Q 217.63 210.09 217.58 210.12
  C 210.38 214.02 201.95 214.32 194.43 211.15
  C 186.90 207.97 181.24 201.71 179.01 193.83
  Q 179.00 193.78 179.06 193.63
  Q 179.12 193.50 179.17 193.47
  C 186.37 189.56 194.80 189.26 202.32 192.44
  Z"
/>
<path fill="#f67b3c" d="
  M 293.96 193.59
  Q 294.02 193.73 294.01 193.79
  C 291.81 201.65 286.17 207.89 278.67 211.07
  C 271.18 214.24 262.78 213.95 255.60 210.07
  Q 255.55 210.05 255.49 209.90
  Q 255.43 209.76 255.44 209.71
  C 257.65 201.85 263.28 195.61 270.78 192.43
  C 278.27 189.26 286.68 189.54 293.85 193.42
  Q 293.90 193.45 293.96 193.59
  Z"
/>
<path fill="#111111" d="
  M 342.43 201.69
  Q 347.93 196.22 357.22 197.09
  C 381.87 199.39 382.88 236.54 359.73 241.16
  C 354.28 242.25 346.12 241.58 342.44 236.82
  Q 341.85 236.06 341.85 237.02
  L 341.85 253.93
  Q 341.85 254.47 341.32 254.47
  L 330.76 254.47
  Q 330.30 254.47 330.30 254.01
  L 330.30 198.21
  A 0.35 0.35 0.0 0 1 330.65 197.86
  L 341.22 197.86
  Q 341.86 197.86 341.86 198.49
  L 341.86 201.45
  Q 341.86 202.26 342.43 201.69
  Z
  M 364.5201 216.7739
  A 10.57 10.57 0.0 0 0 352.9360 207.3261
  L 350.8667 207.5363
  A 10.57 10.57 0.0 0 0 341.4190 219.1204
  L 341.6999 221.8861
  A 10.57 10.57 0.0 0 0 353.2840 231.3339
  L 355.3533 231.1237
  A 10.57 10.57 0.0 0 0 364.8010 219.5396
  L 364.5201 216.7739
  Z"
/>
<path fill="#111111" d="
  M 751.63 219.26
  Q 751.65 238.84 751.65 240.11
  A 0.54 0.54 0.0 0 1 751.11 240.65
  L 741.12 240.65
  A 1.01 1.01 0.0 0 1 740.11 239.64
  L 740.11 237.23
  Q 740.11 236.49 739.57 236.99
  Q 734.62 241.52 727.79 241.58
  C 714.35 241.70 705.58 232.72 705.56 219.31
  C 705.55 205.90 714.30 196.89 727.75 196.99
  Q 734.57 197.04 739.53 201.56
  Q 740.07 202.05 740.07 201.31
  L 740.07 198.90
  A 1.01 1.01 0.0 0 1 741.08 197.89
  L 751.07 197.87
  A 0.54 0.54 0.0 0 1 751.60 198.41
  Q 751.61 199.68 751.63 219.26
  Z
  M 730.7880 231.3691
  A 12.24 11.91 80.7 0 0 740.5635 217.3653
  A 12.24 11.91 80.7 0 0 726.8320 207.2109
  A 12.24 11.91 80.7 0 0 717.0565 221.2147
  A 12.24 11.91 80.7 0 0 730.7880 231.3691
  Z"
/>
<path fill="#111111" d="
  M 396.33 211.35
  Q 397.16 212.83 399.55 213.30
  C 409.29 215.19 421.63 215.74 421.21 227.99
  Q 420.81 239.64 407.99 241.34
  Q 395.20 243.04 384.24 235.64
  A 0.95 0.95 0.0 0 1 384.01 234.28
  L 389.17 227.47
  A 0.71 0.71 0.0 0 1 390.13 227.31
  C 393.66 229.62 408.64 235.61 409.60 227.39
  Q 409.66 226.90 409.30 226.56
  Q 407.74 225.10 406.02 224.88
  C 395.76 223.57 383.04 221.68 384.49 208.33
  C 385.00 203.71 387.31 200.93 391.73 199.25
  Q 406.36 193.68 419.72 203.07
  Q 419.90 203.20 419.77 203.37
  L 414.05 210.93
  Q 413.88 211.15 413.64 211.02
  Q 402.82 205.08 397.09 208.52
  A 2.11 2.10 60.2 0 0 396.33 211.35
  Z"
/>
<path fill="#111111" d="
  M 487.80 219.52
  C 487.84 232.15 503.30 235.93 509.86 225.68
  A 0.77 0.76 26.8 0 1 510.79 225.38
  L 519.83 229.05
  Q 520.35 229.26 520.09 229.75
  Q 514.61 239.92 503.31 241.41
  Q 488.05 243.43 479.54 230.91
  Q 476.19 225.99 476.17 219.56
  Q 476.16 213.12 479.47 208.18
  Q 487.91 195.61 503.18 197.54
  Q 514.49 198.96 520.03 209.10
  Q 520.29 209.59 519.77 209.80
  L 510.75 213.52
  A 0.77 0.76 -27.2 0 1 509.83 213.23
  C 503.20 203.02 487.76 206.90 487.80 219.52
  Z"
/>
<path fill="#111111" d="
  M 590.03 224.45
  C 591.50 229.28 595.75 231.03 600.49 231.55
  Q 607.16 232.28 612.21 226.99
  Q 612.59 226.59 613.07 226.87
  L 621.35 231.65
  A 0.37 0.36 33.9 0 1 621.46 232.18
  C 606.49 251.56 572.59 239.99 579.05 213.30
  Q 580.87 205.76 587.17 201.74
  Q 601.36 192.68 615.08 201.37
  C 619.75 204.33 623.55 210.49 623.80 216.50
  Q 623.96 220.26 623.83 223.27
  A 0.59 0.58 1.0 0 1 623.24 223.83
  L 590.49 223.83
  A 0.48 0.48 0.0 0 0 590.03 224.45
  Z
  M 590.67 215.57
  L 611.31 215.49
  A 0.12 0.12 0.0 0 0 611.43 215.37
  L 611.43 215.33
  A 10.33 7.92 -0.2 0 0 601.08 207.45
  L 600.86 207.45
  A 10.33 7.92 -0.2 0 0 590.55 215.41
  L 590.55 215.45
  A 0.12 0.12 0.0 0 0 590.67 215.57
  Z"
/>
<path fill="#111111" d="
  M 654.88 219.52
  Q 654.86 213.09 658.18 208.16
  Q 666.62 195.60 681.89 197.54
  Q 693.19 198.97 698.72 209.11
  Q 698.98 209.59 698.46 209.81
  L 689.45 213.52
  A 0.77 0.76 -27.1 0 1 688.52 213.23
  C 681.91 203.02 666.47 206.88 666.49 219.50
  C 666.52 232.12 681.98 235.91 688.55 225.67
  A 0.77 0.76 26.9 0 1 689.47 225.37
  L 698.50 229.05
  Q 699.02 229.26 698.76 229.75
  Q 693.28 239.91 681.98 241.39
  Q 666.73 243.40 658.23 230.88
  Q 654.89 225.96 654.88 219.52
  Z"
/>
<path fill="#111111" d="
  M 775.07 203.00
  Q 780.24 197.16 788.74 197.36
  Q 789.33 197.37 789.33 197.97
  L 789.33 207.98
  A 0.44 0.44 0.0 0 1 788.86 208.42
  C 781.62 208.02 774.95 212.51 774.74 220.29
  Q 774.47 230.24 774.65 240.16
  A 0.43 0.43 0.0 0 1 774.22 240.60
  L 763.51 240.60
  A 0.46 0.46 0.0 0 1 763.05 240.14
  L 763.05 198.42
  Q 763.05 197.88 763.59 197.88
  L 774.01 197.88
  A 0.57 0.57 0.0 0 1 774.58 198.45
  L 774.58 202.81
  Q 774.58 203.55 775.07 203.00
  Z"
/>
<path fill="#111111" d="
  M 804.67 224.45
  C 806.14 229.27 810.39 231.02 815.13 231.54
  Q 821.79 232.27 826.84 226.98
  Q 827.22 226.59 827.70 226.87
  L 835.98 231.64
  A 0.37 0.36 33.9 0 1 836.09 232.17
  C 821.12 251.54 787.24 239.98 793.69 213.30
  Q 795.51 205.76 801.81 201.75
  Q 816.00 192.69 829.71 201.38
  C 834.38 204.33 838.18 210.49 838.43 216.50
  Q 838.59 220.26 838.46 223.27
  A 0.59 0.58 1.0 0 1 837.87 223.83
  L 805.13 223.83
  A 0.48 0.48 0.0 0 0 804.67 224.45
  Z
  M 805.15 215.57
  L 826.11 215.49
  A 0.01 0.01 0.0 0 0 826.12 215.48
  L 826.12 215.40
  A 10.38 8.01 -0.2 0 0 815.72 207.43
  L 815.50 207.43
  A 10.38 8.01 -0.2 0 0 805.14 215.48
  L 805.14 215.56
  A 0.01 0.01 0.0 0 0 805.15 215.57
  Z"
/>
<path fill="#111111" d="
  M 459.15 198.02
  L 471.81 198.02
  A 0.36 0.36 0.0 0 1 472.14 198.52
  L 448.61 256.56
  A 0.36 0.36 0.0 0 1 448.28 256.78
  L 436.19 256.78
  A 0.36 0.36 0.0 0 1 435.86 256.28
  L 442.84 239.05
  A 0.36 0.36 0.0 0 0 442.84 238.77
  L 424.83 198.52
  A 0.36 0.36 0.0 0 1 425.16 198.01
  L 437.81 198.01
  A 0.36 0.36 0.0 0 1 438.14 198.24
  L 448.61 224.40
  A 0.36 0.36 0.0 0 0 449.28 224.39
  L 458.81 198.26
  A 0.36 0.36 0.0 0 1 459.15 198.02
  Z"
/>
<rect fill="#f8fcfc" x="-11.61" y="-11.96" transform="translate(353.11,219.33) rotate(-5.8)" width="23.22" height="23.92" rx="10.57"/>
<ellipse fill="#f8fcfc" cx="0.00" cy="0.00" transform="translate(728.81,219.29) rotate(80.7)" rx="12.24" ry="11.91"/>
<path fill="#f8fcfc" d="
  M 805.15 215.57
  A 0.01 0.01 0.0 0 1 805.14 215.56
  L 805.14 215.48
  A 10.38 8.01 -0.2 0 1 815.50 207.43
  L 815.72 207.43
  A 10.38 8.01 -0.2 0 1 826.12 215.40
  L 826.12 215.48
  A 0.01 0.01 0.0 0 1 826.11 215.49
  L 805.15 215.57
  Z"
/>
<path fill="#f8fcfc" d="
  M 590.67 215.57
  A 0.12 0.12 0.0 0 1 590.55 215.45
  L 590.55 215.41
  A 10.33 7.92 -0.2 0 1 600.86 207.45
  L 601.08 207.45
  A 10.33 7.92 -0.2 0 1 611.43 215.33
  L 611.43 215.37
  A 0.12 0.12 0.0 0 1 611.31 215.49
  L 590.67 215.57
  Z"
/>
<path fill="#f67b3c" d="
  M 194.90 224.52
  C 202.17 221.61 209.95 222.00 217.04 225.51
  Q 217.15 225.57 217.21 225.64
  Q 217.26 225.72 217.31 225.83
  Q 217.32 225.86 217.33 225.95
  Q 217.34 226.05 217.30 226.17
  C 214.60 233.60 209.23 239.25 201.96 242.16
  C 194.68 245.08 186.90 244.69 179.82 241.18
  Q 179.71 241.12 179.65 241.04
  Q 179.60 240.97 179.55 240.85
  Q 179.54 240.82 179.52 240.73
  Q 179.51 240.64 179.55 240.51
  C 182.26 233.09 187.62 227.44 194.90 224.52
  Z"
/>
<path fill="#f67b3c" d="
  M 271.09 242.19
  C 263.80 239.29 258.42 233.63 255.69 226.19
  Q 255.65 226.07 255.66 225.97
  Q 255.68 225.88 255.72 225.77
  Q 255.74 225.74 255.79 225.66
  Q 255.85 225.58 255.96 225.52
  C 263.05 222.00 270.85 221.60 278.14 224.51
  C 285.44 227.42 290.82 233.07 293.54 240.51
  Q 293.58 240.63 293.57 240.73
  Q 293.56 240.82 293.51 240.93
  Q 293.50 240.97 293.44 241.04
  Q 293.39 241.12 293.27 241.18
  C 286.18 244.70 278.38 245.10 271.09 242.19
  Z"
/>
<path fill="#f67b3c" d="
  M 259.70 274.80
  Q 259.56 274.86 259.51 274.84
  C 251.84 272.40 245.89 266.63 243.01 259.14
  C 240.14 251.66 240.71 243.38 244.78 236.45
  Q 244.81 236.40 244.95 236.34
  Q 245.09 236.29 245.14 236.31
  C 252.80 238.74 258.76 244.51 261.64 252.00
  C 264.51 259.49 263.94 267.76 259.87 274.70
  Q 259.84 274.75 259.70 274.80
  Z"
/>
<path fill="#f67b3c" d="
  M 213.09 274.86
  Q 212.95 274.81 212.92 274.76
  C 208.94 267.78 208.47 259.51 211.43 252.07
  C 214.39 244.62 220.41 238.93 228.09 236.59
  Q 228.15 236.57 228.28 236.63
  Q 228.43 236.68 228.45 236.73
  C 232.43 243.71 232.91 251.98 229.95 259.42
  C 226.99 266.87 220.97 272.56 213.28 274.90
  Q 213.23 274.92 213.09 274.86
  Z"
/>
</svg>
