<?xml version="1.0" encoding="UTF-8"?>
<svg id="Layer_1" xmlns="http://www.w3.org/2000/svg" version="1.1" viewBox="0 0 1024 368">
  <!-- Generator: Adobe Illustrator 29.0.1, SVG Export Plug-In . SVG Version: 2.1.0 Build 192)  -->
  <defs>
    <style>
      .st0 {
        stroke: #7cc99a;
      }

      .st0, .st1, .st2, .st3, .st4 {
        fill: none;
        stroke-width: 2px;
      }

      .st1 {
        stroke: #3fa2ec;
      }

      .st2 {
        stroke: #97cef5;
      }

      .st3 {
        stroke: #a7d4f6;
      }

      .st5 {
        fill: #2f9cea;
      }

      .st6 {
        fill: #fff;
      }

      .st7 {
        fill: #c8f64a;
      }

      .st4 {
        stroke: #8bcf9c;
      }
    </style>
  </defs>
  <g>
    <path class="st1" d="M435.4,0c4.9,5,8.5,9,8.9,16.3,1.1,22.9,4,46.1,8.1,68.9,1,5.5,1.5,11.2,2,16.8" vector-effect="non-scaling-stroke"/>
    <path class="st0" d="M454.3,102l-10.2,10.5c-.2.2-.5.3-.7.2-14.3-2.6-18.9,16.8-4.8,20.6,2.3.6,4.4.4,6.4-.8.5-.3,1.1-.3,1.6,0l19.7,11.9" vector-effect="non-scaling-stroke"/>
    <path class="st1" d="M466.3,144.5c.7,10.9,2.7,20,6.8,30.8,4.2,11.3,5.5,18.8,12.7,24.9,1.4,1.2,4.6,3.7,9.5,7.4,3.7,2.8,7.3,7.1,10.6,12.8,3,5,6.5,12.5,10.7,22.4" vector-effect="non-scaling-stroke"/>
    <path class="st2" d="M516.5,242.9c-3,.9-5.2,2-6.8,3.2-7.6,5.8-9.9,15.2-5.7,23.7,2.8,5.7,7.9,9.1,15.1,10.2" vector-effect="non-scaling-stroke"/>
    <path class="st1" d="M519.2,280c4.9,8.2,8.1,14,9.6,17.4,7,16.2,15.7,32.3,28.5,44.6,4.2,4,10.5,8.1,15.1,12,5,4.1,5,8.3,3.6,14" vector-effect="non-scaling-stroke"/>
    <path class="st2" d="M3.6,368c-1.7-.2-2.9-1-3.6-2.2" vector-effect="non-scaling-stroke"/>
    <path class="st2" d="M470,249.2v-19.2c0-.1,0-.2-.2-.2h-7c-.2,0-.2,0-.2.2v49.1c0,.1,0,.2.2.2h7c.2,0,.2,0,.2-.2,0-7.5,0-13.1,0-16.8,0-3.2.4-5.6,1.2-7.1,2.4-4,6.8-7.2,11.6-6.2,5.3,1.2,6,5.7,6.1,10.9,0,5.4,0,11.8,0,19.1,0,.2,0,.3.3.3h7c.3,0,.5-.2.5-.5,0-8.5.5-16.7-.5-24.5-1.7-13.6-18.9-16.4-25.4-5-.4.8-.7.7-.7-.2" vector-effect="non-scaling-stroke"/>
    <path class="st2" d="M361,256.1c-3-1.9-2.7-6,.4-7.1,3.5-1.2,6.3-.2,8.3,3.2.2.4.6.6,1.1.4l4.9-1.7c.3-.1.4-.4.3-.7-2.9-5.8-7.7-8.4-14.3-7.7-11.3,1.1-13.8,14.3-3.4,19.2,2,.9,4.5,1.9,7.7,2.9,1.9.6,4.2,2.2,4.2,4.6,0,2.7-2,4.4-4.6,4.7-4.4.6-7.4-1.1-9.1-5.2-.1-.3-.4-.4-.7-.3l-5,1.8c-.3,0-.4.3-.3.6,1.4,4.4,4.4,7.3,8.9,8.6,5.8,1.7,13.1.6,16.6-4.5,3.5-5,1.5-11.7-3.9-14.2-2.2-1.1-5.3-2.3-9.2-3.7-.9-.3-1.5-.6-1.8-.8" vector-effect="non-scaling-stroke"/>
    <path class="st2" d="M317,246.9c-.7.9-1,.8-1-.3v-2.9c0-.5-.3-.8-.8-.8h-6.5c-.5,0-.7.2-.7.7v48.4c0,.4.2.6.6.6h6.7c.4,0,.7-.2.7-.7v-16.4c0-1,.3-1.1.9-.3,2.3,3.2,5.8,4.6,9.7,4.8,14.6.6,23.3-13.7,17.7-26.7-3.6-8.3-13.2-12.8-21.7-10-2.4.8-4.2,2-5.4,3.6" vector-effect="non-scaling-stroke"/>
    <path class="st2" d="M422,261.2c0,1.9,0,3.1.2,3.6,2.3,9.5,8.5,14.5,18.6,15.2,6.3.4,11.5-2.4,15.6-8.4.1-.2,0-.3-.1-.4l-5.5-2.4c-.1,0-.2,0-.3,0-7.2,9-21.2,3.9-21.2-7.6,0-11.6,14-16.6,21.2-7.6,0,.1.2.1.3,0l5.5-2.4c.2,0,.2-.2.1-.4-4.1-6-9.3-8.8-15.6-8.4-10.1.7-16.4,5.7-18.6,15.1-.1.5-.2,1.7-.2,3.6" vector-effect="non-scaling-stroke"/>
    <path class="st2" d="M398.1,269.2c-.2,0-.4-.2-.5-.4-4-9.1-7.8-17.7-11.4-25.7,0-.1-.2-.2-.3-.2h-7c-.1,0-.2,0-.2.2,0,0,0,0,0,0l15.4,34.4c.2.4.2.9,0,1.3l-6.1,13.6c0,0,0,.2,0,.2,0,0,0,0,0,0h7.1c.2,0,.3,0,.4-.2l21.7-48.7c.3-.6,0-.9-.6-.9h-5.7c-.6,0-1,.3-1.3.8l-11.3,25.3c0,.1-.2.2-.4.2" vector-effect="non-scaling-stroke"/>
    <path class="st3" d="M1022.4,0c.9.1,1.4.7,1.6,1.6" vector-effect="non-scaling-stroke"/>
    <path class="st3" d="M1024,363.9c-.5,2.1-2,3.4-4.4,4.1" vector-effect="non-scaling-stroke"/>
    <path class="st3" d="M519.2,280c6.9.2,12.3-.5,17.1-5.4,0,0,0-.1,0-.2l-3.8-3.8c-.2-.2-.5-.2-.7,0-3.5,2.6-7.6,3.6-12.5,2.8-3-.5-5.4-1.9-7.3-4.3l-1.1-1.5c-1.8-2.4-1.2-3.5,1.8-3.5h25.6c.3,0,.6-.2.6-.5,1.2-13.6-8.2-23-22.3-20.6" vector-effect="non-scaling-stroke"/>
    <path class="st4" d="M466.3,144.5c2.1,1.2,4.1,2.6,6.3,3.6.6.3,1,.8,1,1.4.1,6.4,4.5,11.6,11,11.3,2.6-.1,4.9-1.1,6.7-2.8.4-.4,1-.4,1.4,0l39.6,33.6c.4.3.5.8.4,1.3-2.4,8.9,7,16.5,15.3,11.9,3.9-2.2,5.7-5.7,5.5-10.4,0-.4,0-.9.3-1.2l26.2-40.6c.3-.5.8-.8,1.4-.8,4.1-.3,7.2-2.1,9.3-5.2,2.4-3.8,2-8.5-.8-11.9-2.7-3.3-6.2-4.6-10.3-3.8-.6.1-1.1-.1-1.4-.6l-14.6-25.3c-.3-.5-.3-1,0-1.5,1.7-4.1,1.3-7.8-1.2-10.9-4.1-5.3-11.2-5.5-16-.8-.3.2-.6.3-.9.2l-23.3-9.3c-.3-.1-.5-.4-.6-.8-.1-1.2,0-3-.4-3.8-1.5-4.5-4.3-7-8.4-7.6-4.4-.6-7.9.8-10.5,4.3-1.3,1.8-1.9,3.8-1.8,6,0,.7-.5,1.2-1.1,1.3l-18.4,2.9c-.6,0-1.2-.2-1.5-.6-8.3-11.5-23.9-2.1-18.6,10.3.2.5,0,1-.3,1.4l-5.9,6.1" vector-effect="non-scaling-stroke"/>
    <path class="st3" d="M657.1,251.4v-8.3c0-.1-.1-.3-.3-.3h-7c-.2,0-.2,0-.2.2v35.9c0,.2.2.4.4.4h6.8c.2,0,.4-.2.4-.4h0c0-5.3,0-8.9,0-10.6-.1-4.9.3-8.3,1.1-10.4,2.3-5.9,7-8.7,14.1-8.5.1,0,.2,0,.2-.2v-6.6c0-.2-.1-.3-.3-.3-7.3-.3-12.2,2.7-14.7,9.1,0,0-.1.1-.2,0,0,0-.1,0-.1-.2" vector-effect="non-scaling-stroke"/>
    <path class="st3" d="M565.1,261.2c0,1.9,0,3.1.2,3.6,2.3,9.5,8.5,14.5,18.6,15.2,6.3.4,11.5-2.4,15.6-8.4.1-.2,0-.3-.1-.4l-5.5-2.4c-.1,0-.2,0-.3,0-7.2,9-21.2,4-21.2-7.6,0-11.6,14-16.6,21.2-7.6,0,.1.2.1.3,0l5.5-2.4c.2,0,.2-.2.1-.4-4.1-6-9.3-8.8-15.6-8.4-10.1.7-16.4,5.7-18.6,15.2-.1.5-.2,1.7-.2,3.6" vector-effect="non-scaling-stroke"/>
    <path class="st3" d="M604.2,261.3c0,3.3.6,6.1,1.8,8.5,3.7,7.4,10,10.7,18.8,10.2,3.2-.2,6.1-1.9,8.9-5,.3-.3.4-.3.4.2v3.5c0,.7.3,1,1,1h5.7c.8,0,1.2-.4,1.2-1.2,0-9.8,0-15.5-.1-17.1,0-1.6,0-7.3,0-17.1,0-.8-.4-1.2-1.3-1.2h-5.7c-.7,0-1,.4-1,1v3.5c0,.4-.1.5-.4.2-2.8-3.1-5.8-4.8-8.9-5-8.8-.5-15.1,2.9-18.8,10.2-1.2,2.4-1.8,5.2-1.8,8.5" vector-effect="non-scaling-stroke"/>
    <path class="st3" d="M686,264h27.4c.2,0,.3-.1.3-.3.8-9-2.8-17.1-11.6-20.3-13.8-5-27.8,7.4-24.8,21.5,1,4.7,3.3,8.4,7,11.1,7.5,5.6,20.2,5.5,26.8-1.5,0,0,0-.2,0-.3l-3.6-3.6c-.2-.2-.5-.3-.8,0-7.1,5.2-18.3,4.3-21.7-5.1-.4-1,0-1.5,1-1.5" vector-effect="non-scaling-stroke"/>
    <path class="st4" d="M485.5,106.8c2.5-.7,4.9-.7,7.2-.2.5.1,1,0,1.3-.5l10.3-15.9c.2-.4.2-.7,0-1l-3.3-3.8c-.2-.3-.5-.4-.9-.3l-18.3,2.9c-.6,0-1,.6-1,1.2,0,2.6-.7,5.1-2.4,7.4-.4.5-.4,1.2,0,1.7l6.2,8.2c.2.3.6.4,1,.3" vector-effect="non-scaling-stroke"/>
    <path class="st4" d="M543.4,101c-.3-1.9-.2-3.8.2-5.6,0-.4-.1-.8-.5-1l-21.4-8.6c-.6-.2-1.2-.1-1.7.3l-3.4,3.4c-.2.2-.2.4-.1.7l7.5,21.5c.1.4.5.7,1,.6,2.8-.2,5.5.5,8,2.1.4.3,1,.2,1.4-.1,1.7-1.6,4.7-4.1,8.8-7.6,1.2-1,1.6-2.1,1.1-3.3-.6-1.5-.9-2.3-.9-2.3" vector-effect="non-scaling-stroke"/>
    <path class="st4" d="M516.7,118.6c.3,0,.6,0,.7-.3.8-1.4,1.8-2.6,3-3.6.5-.4.8-1.2.5-1.8l-7.4-21.3c-.1-.4-.5-.6-.9-.5-1.2.3-2.6.3-4.2,0-.4,0-.7.1-.9.4l-10.8,16.7c-.2.3-.2.7,0,1,1.4,1.8,2.3,3.6,2.8,5.5.1.5.5.8,1,.9l16.1,3" vector-effect="non-scaling-stroke"/>
    <path class="st4" d="M472.1,100.3c-3.1.4-5.8-.2-8.1-2-.4-.3-1.1-.3-1.5.1l-15.4,15.3c-.2.2-.2.5,0,.7,1.7,1.8,3,3.8,3.7,6,.1.4.5.6,1,.6l25.7-4.1c.4,0,.6-.3.7-.6,1-2.6,1-4.5,3.1-6.9.4-.4.4-1.1,0-1.5l-6.3-8.3c-.2-.3-.5-.3-.9-.2-.8.4-1.1.7-2.2.8" vector-effect="non-scaling-stroke"/>
    <path class="st4" d="M570.9,141.9c-.3-4,1.4-6.2,3.9-9,.4-.4.4-1,.2-1.4l-13.8-23.8c-.3-.5-.9-.7-1.4-.4,0,0,0,0,0,0-4,2.7-7.9,2.8-11.7.3-.3-.2-.6-.1-.9,0l-10.6,9.2c-.3.2-.3.6-.2.9,2,4.6,1.6,8.6-1.4,12.1-.4.5-.5,1.2-.2,1.8l8.4,14.6c.3.5.9.7,1.4.6,4.6-1.2,8.3.1,11.2,3.8.3.4.8.5,1.3.2l13.1-7.6c.5-.3.8-.8.8-1.4" vector-effect="non-scaling-stroke"/>
    <path class="st4" d="M500.5,118.9c-.4,0-.8.2-.9.5-1.4,4.3-4.4,6.4-8.5,7.8-.4.2-.7.5-.8,1l-2.1,11.3c0,.4.1.8.5,1,2.6,1.4,4.5,3.3,5.6,5.7.2.4.6.6,1,.4,0,0,0,0,.1,0l22.3-16.9c.3-.3.5-.7.2-1.1-1-1.9-1.6-3.9-1.7-6.2,0-.4-.2-.6-.6-.6l-15.2-2.8" vector-effect="non-scaling-stroke"/>
    <path class="st4" d="M482.2,139.7c1.2-.2,1.9-.4,2.2-.5.4,0,.6-.3.7-.7l1.9-10.4c.1-.6-.2-1.1-.8-1.3-3.2-1.1-5.4-3-6.6-5.8-.3-.7-.8-1-1.6-.9l-26.1,4.2c-.3,0-.5.2-.6.4l-2,4.6c-.2.5,0,1.1.4,1.4l24.1,14.6c.4.3,1,.1,1.3-.3,0,0,0,0,0,0,1.7-2.8,4-4.6,7.1-5.2" vector-effect="non-scaling-stroke"/>
    <path class="st4" d="M538.5,151.5c.5-.8,1-1.5,1.6-2.1.4-.5.5-1.2.2-1.8l-8.3-14.3c-.3-.5-.9-.7-1.5-.5-2.9,1.2-5.8.9-8.9-.8-.6-.4-1.4-.3-2,.1l-23.5,17.9c-1,.7-.9,1.2.4,1.3,13.2,1.5,26,2.7,38.3,3.8,1.5.1,2.5-.3,2.9-1.4.5-1.5.8-2.2.8-2.3" vector-effect="non-scaling-stroke"/>
    <path class="st4" d="M555.2,164.4c-2.3,2.4-4.1,2.1-6.1,3.6-.2.2-.4.4-.4.7l-3.5,15.4c-.1.6.2,1.1.7,1.3,2.3.8,4.2,2.1,5.6,3.9.2.2.6.3.8,0,0,0,0,0,.1-.1l24.3-37.6c.3-.4.1-.9-.3-1.2,0,0,0,0,0,0-1.4-.9-2.7-2.1-3.8-3.7-.3-.4-.8-.5-1.2-.3l-12.7,7.3c-.5.3-.8.9-.7,1.5.6,3.6-.4,6.6-2.8,9.2" vector-effect="non-scaling-stroke"/>
    <path class="st4" d="M538,162c-.5-.9-.5-1.9-1-2.8-.2-.3-.4-.5-.8-.5-26.5-2.7-39.7-4.1-39.7-4.1-.7,0-1.2,0-1.6.3-.2.2-.3.5-.2.7,0,0,0,0,0,.1l38.8,32.9c.3.3.8.2,1.1,0,1.5-1.8,3.4-2.8,5.5-3.2.7-.1,1.3-.7,1.4-1.4l3.5-15.2c.1-.6-.2-1.2-.8-1.4-2.7-.8-4.9-2.6-6.4-5.4" vector-effect="non-scaling-stroke"/>
    <path class="st2" d="M326.9,273.5c6.4,0,11.6-5.6,11.6-12.4,0-6.8-5.3-12.3-11.7-12.3-6.4,0-11.6,5.6-11.6,12.4,0,6.8,5.3,12.3,11.7,12.3" vector-effect="non-scaling-stroke"/>
    <path class="st3" d="M521,258.2c6.3,0,9.7,0,10.1,0,.8,0,1.1-.4.8-1.1-1.7-4.8-5.7-8.2-10.9-8.2-5.2,0-9.2,3.4-10.9,8.2-.3.8,0,1.1.8,1.1.4,0,3.8,0,10.1,0" vector-effect="non-scaling-stroke"/>
    <path class="st3" d="M623.1,273.5c6.4,0,11.6-5.5,11.6-12.3s-5.2-12.3-11.6-12.3h0c-6.4,0-11.6,5.5-11.6,12.3h0c0,6.8,5.2,12.3,11.6,12.3" vector-effect="non-scaling-stroke"/>
    <path class="st3" d="M696,258.2c6.3,0,9.7,0,10.1,0,.8,0,1.1-.4.8-1.1-1.7-4.8-5.7-8.2-10.9-8.2-5.2,0-9.2,3.4-10.9,8.3-.3.8,0,1.1.8,1.1s3.8,0,10.1,0" vector-effect="non-scaling-stroke"/>
  </g>
  <path class="st5" d="M435.4,0c4.9,5,8.5,9,8.9,16.3,1.1,22.9,4,46.1,8.1,68.9,1,5.5,1.5,11.2,2,16.8l-10.2,10.5c-.2.2-.5.3-.7.2-14.3-2.6-18.9,16.8-4.8,20.6,2.3.6,4.4.4,6.4-.8.5-.3,1.1-.3,1.6,0l19.7,11.9c.7,10.9,2.7,20,6.8,30.8,4.2,11.3,5.5,18.8,12.7,24.9,1.4,1.2,4.6,3.7,9.5,7.4,3.7,2.8,7.3,7.1,10.6,12.8,3,5,6.5,12.5,10.7,22.4-3,.9-5.2,2-6.8,3.2-7.6,5.8-9.9,15.2-5.7,23.7,2.8,5.7,7.9,9.1,15.1,10.2,4.9,8.2,8.1,14,9.6,17.4,7,16.2,15.7,32.3,28.5,44.6,4.2,4,10.5,8.1,15.1,12,5,4.1,5,8.3,3.6,14H3.6c-1.7-.2-2.9-1-3.6-2.2V0h435.4ZM470,249.2v-19.2c0-.1,0-.2-.2-.2h-7c-.2,0-.2,0-.2.2v49.1c0,.1,0,.2.2.2h7c.2,0,.2,0,.2-.2,0-7.5,0-13.1,0-16.8,0-3.2.4-5.6,1.2-7.1,2.4-4,6.8-7.2,11.6-6.2,5.3,1.2,6,5.7,6.1,10.9,0,5.4,0,11.8,0,19.1,0,.2,0,.3.3.3h7c.3,0,.5-.2.5-.5,0-8.5.5-16.7-.5-24.5-1.7-13.6-18.9-16.4-25.4-5-.4.8-.7.7-.7-.2ZM361,256.1c-3-1.9-2.7-6,.4-7.1,3.5-1.2,6.3-.2,8.3,3.2.2.4.6.6,1.1.4l4.9-1.7c.3-.1.4-.4.3-.7-2.9-5.8-7.7-8.4-14.3-7.7-11.3,1.1-13.8,14.3-3.4,19.2,2,.9,4.5,1.9,7.7,2.9,1.9.6,4.2,2.2,4.2,4.6,0,2.7-2,4.4-4.6,4.7-4.4.6-7.4-1.1-9.1-5.2-.1-.3-.4-.4-.7-.3l-5,1.8c-.3,0-.4.3-.3.6,1.4,4.4,4.4,7.3,8.9,8.6,5.8,1.7,13.1.6,16.6-4.5,3.5-5,1.5-11.7-3.9-14.2-2.2-1.1-5.3-2.3-9.2-3.7-.9-.3-1.5-.6-1.8-.8ZM317,246.9c-.7.9-1,.8-1-.3v-2.9c0-.5-.3-.8-.8-.8h-6.5c-.5,0-.7.2-.7.7v48.4c0,.4.2.6.6.6h6.7c.4,0,.7-.2.7-.7v-16.4c0-1,.3-1.1.9-.3,2.3,3.2,5.8,4.6,9.7,4.8,14.6.6,23.3-13.7,17.7-26.7-3.6-8.3-13.2-12.8-21.7-10-2.4.8-4.2,2-5.4,3.6ZM422,261.2c0,1.9,0,3.1.2,3.6,2.3,9.5,8.5,14.5,18.6,15.2,6.3.4,11.5-2.4,15.6-8.4.1-.2,0-.3-.1-.4l-5.5-2.4c-.1,0-.2,0-.3,0-7.2,9-21.2,3.9-21.2-7.6,0-11.6,14-16.6,21.2-7.6,0,.1.2.1.3,0l5.5-2.4c.2,0,.2-.2.1-.4-4.1-6-9.3-8.8-15.6-8.4-10.1.7-16.4,5.7-18.6,15.1-.1.5-.2,1.7-.2,3.6ZM398.1,269.2c-.2,0-.4-.2-.5-.4-4-9.1-7.8-17.7-11.4-25.7,0-.1-.2-.2-.3-.2h-7c-.1,0-.2,0-.2.2,0,0,0,0,0,0l15.4,34.4c.2.4.2.9,0,1.3l-6.1,13.6c0,0,0,.2,0,.2,0,0,0,0,0,0h7.1c.2,0,.3,0,.4-.2l21.7-48.7c.3-.6,0-.9-.6-.9h-5.7c-.6,0-1,.3-1.3.8l-11.3,25.3c0,.1-.2.2-.4.2Z"/>
  <path class="st5" d="M1022.4,0c.9.1,1.4.7,1.6,1.6v362.3c-.5,2.1-2,3.4-4.4,4.1h-443.6c1.3-5.7,1.3-9.9-3.6-14-4.7-3.9-11-8-15.1-12-12.8-12.3-21.5-28.4-28.5-44.6-1.5-3.4-4.7-9.2-9.6-17.4,6.9.2,12.3-.5,17.1-5.4,0,0,0-.1,0-.2l-3.8-3.8c-.2-.2-.5-.2-.7,0-3.5,2.6-7.6,3.6-12.5,2.8-3-.5-5.4-1.9-7.3-4.3l-1.1-1.5c-1.8-2.4-1.2-3.5,1.8-3.5h25.6c.3,0,.6-.2.6-.5,1.2-13.6-8.2-23-22.3-20.6-4.1-9.9-7.7-17.4-10.7-22.4-3.3-5.7-6.8-9.9-10.6-12.8-4.9-3.7-8.1-6.2-9.5-7.4-7.2-6.1-8.4-13.6-12.7-24.9-4.1-10.9-6.1-20-6.8-30.8,2.1,1.2,4.1,2.6,6.3,3.6.6.3,1,.8,1,1.4.1,6.4,4.5,11.6,11,11.3,2.6-.1,4.9-1.1,6.7-2.8.4-.4,1-.4,1.4,0l39.6,33.6c.4.3.5.8.4,1.3-2.4,8.9,7,16.5,15.3,11.9,3.9-2.2,5.7-5.7,5.5-10.4,0-.4,0-.9.3-1.2l26.2-40.6c.3-.5.8-.8,1.4-.8,4.1-.3,7.2-2.1,9.3-5.2,2.4-3.8,2-8.5-.8-11.9-2.7-3.3-6.2-4.6-10.3-3.8-.6.1-1.1-.1-1.4-.6l-14.6-25.3c-.3-.5-.3-1,0-1.5,1.7-4.1,1.3-7.8-1.2-10.9-4.1-5.3-11.2-5.5-16-.8-.3.2-.6.3-.9.2l-23.3-9.3c-.3-.1-.5-.4-.6-.8-.1-1.2,0-3-.4-3.8-1.5-4.5-4.3-7-8.4-7.6-4.4-.6-7.9.8-10.5,4.3-1.3,1.8-1.9,3.8-1.8,6,0,.7-.5,1.2-1.1,1.3l-18.4,2.9c-.6,0-1.2-.2-1.5-.6-8.3-11.5-23.9-2.1-18.6,10.3.2.5,0,1-.3,1.4l-5.9,6.1c-.5-5.6-1-11.3-2-16.8-4-22.8-7-46-8.1-68.9-.4-7.3-4-11.3-8.9-16.3h587ZM657.1,251.4v-8.3c0-.1-.1-.3-.3-.3h-7c-.2,0-.2,0-.2.2v35.9c0,.2.2.4.4.4h6.8c.2,0,.4-.2.4-.4h0c0-5.3,0-8.9,0-10.6-.1-4.9.3-8.3,1.1-10.4,2.3-5.9,7-8.7,14.1-8.5.1,0,.2,0,.2-.2v-6.6c0-.2-.1-.3-.3-.3-7.3-.3-12.2,2.7-14.7,9.1,0,0-.1.1-.2,0,0,0-.1,0-.1-.2ZM565.1,261.2c0,1.9,0,3.1.2,3.6,2.3,9.5,8.5,14.5,18.6,15.2,6.3.4,11.5-2.4,15.6-8.4.1-.2,0-.3-.1-.4l-5.5-2.4c-.1,0-.2,0-.3,0-7.2,9-21.2,4-21.2-7.6,0-11.6,14-16.6,21.2-7.6,0,.1.2.1.3,0l5.5-2.4c.2,0,.2-.2.1-.4-4.1-6-9.3-8.8-15.6-8.4-10.1.7-16.4,5.7-18.6,15.2-.1.5-.2,1.7-.2,3.6ZM604.2,261.3c0,3.3.6,6.1,1.8,8.5,3.7,7.4,10,10.7,18.8,10.2,3.2-.2,6.1-1.9,8.9-5,.3-.3.4-.3.4.2v3.5c0,.7.3,1,1,1h5.7c.8,0,1.2-.4,1.2-1.2,0-9.8,0-15.5-.1-17.1,0-1.6,0-7.3,0-17.1,0-.8-.4-1.2-1.3-1.2h-5.7c-.7,0-1,.4-1,1v3.5c0,.4-.1.5-.4.2-2.8-3.1-5.8-4.8-8.9-5-8.8-.5-15.1,2.9-18.8,10.2-1.2,2.4-1.8,5.2-1.8,8.5ZM686,264h27.4c.2,0,.3-.1.3-.3.8-9-2.8-17.1-11.6-20.3-13.8-5-27.8,7.4-24.8,21.5,1,4.7,3.3,8.4,7,11.1,7.5,5.6,20.2,5.5,26.8-1.5,0,0,0-.2,0-.3l-3.6-3.6c-.2-.2-.5-.3-.8,0-7.1,5.2-18.3,4.3-21.7-5.1-.4-1,0-1.5,1-1.5Z"/>
  <path class="st6" d="M1024,0v1.6c-.2-1-.7-1.5-1.6-1.6h1.6Z"/>
  <path class="st7" d="M466.3,144.5l-19.7-11.9c-.5-.3-1.1-.3-1.6,0-2,1.1-4.1,1.4-6.4.8-14.1-3.8-9.5-23.2,4.8-20.6.3,0,.5,0,.7-.2l10.2-10.5,5.9-6.1c.4-.4.5-.9.3-1.4-5.2-12.4,10.3-21.8,18.6-10.3.3.5.9.7,1.5.6l18.4-2.9c.7-.1,1.1-.7,1.1-1.3,0-2.2.5-4.2,1.8-6,2.6-3.5,6.1-4.9,10.5-4.3,4.1.6,6.9,3.1,8.4,7.6.3.9.3,2.6.4,3.8,0,.4.2.6.6.8l23.3,9.3c.3.1.6,0,.9-.2,4.8-4.7,11.9-4.5,16,.8,2.5,3.2,2.9,6.8,1.2,10.9-.2.5-.2,1,0,1.5l14.6,25.3c.3.5.8.7,1.4.6,4.1-.8,7.6.4,10.3,3.8,2.8,3.4,3.3,8.1.8,11.9-2,3.2-5.1,4.9-9.3,5.2-.6,0-1.1.3-1.4.8l-26.2,40.6c-.2.4-.4.8-.3,1.2.2,4.8-1.6,8.2-5.5,10.4-8.3,4.7-17.7-3-15.3-11.9.1-.5,0-1-.4-1.3l-39.6-33.6c-.4-.3-1-.3-1.4,0-1.8,1.7-4.1,2.6-6.7,2.8-6.5.3-10.9-4.9-11-11.3,0-.6-.3-1-1-1.4-2.2-1.1-4.2-2.5-6.3-3.6ZM485.5,106.8c2.5-.7,4.9-.7,7.2-.2.5.1,1,0,1.3-.5l10.3-15.9c.2-.4.2-.7,0-1l-3.3-3.8c-.2-.3-.5-.4-.9-.3l-18.3,2.9c-.6,0-1,.6-1,1.2,0,2.6-.7,5.1-2.4,7.4-.4.5-.4,1.2,0,1.7l6.2,8.2c.2.3.6.4,1,.3ZM543.4,101c-.3-1.9-.2-3.8.2-5.6,0-.4-.1-.8-.5-1l-21.4-8.6c-.6-.2-1.2-.1-1.7.3l-3.4,3.4c-.2.2-.2.4-.1.7l7.5,21.5c.1.4.5.7,1,.6,2.8-.2,5.5.5,8,2.1.4.3,1,.2,1.4-.1,1.7-1.6,4.7-4.1,8.8-7.6,1.2-1,1.6-2.1,1.1-3.3-.6-1.5-.9-2.3-.9-2.3ZM516.7,118.6c.3,0,.6,0,.7-.3.8-1.4,1.8-2.6,3-3.6.5-.4.8-1.2.5-1.8l-7.4-21.3c-.1-.4-.5-.6-.9-.5-1.2.3-2.6.3-4.2,0-.4,0-.7.1-.9.4l-10.8,16.7c-.2.3-.2.7,0,1,1.4,1.8,2.3,3.6,2.8,5.5.1.5.5.8,1,.9l16.1,3ZM472.1,100.3c-3.1.4-5.8-.2-8.1-2-.4-.3-1.1-.3-1.5.1l-15.4,15.3c-.2.2-.2.5,0,.7,1.7,1.8,3,3.8,3.7,6,.1.4.5.6,1,.6l25.7-4.1c.4,0,.6-.3.7-.6,1-2.6,1-4.5,3.1-6.9.4-.4.4-1.1,0-1.5l-6.3-8.3c-.2-.3-.5-.3-.9-.2-.8.4-1.1.7-2.2.8ZM570.9,141.9c-.3-4,1.4-6.2,3.9-9,.4-.4.4-1,.2-1.4l-13.8-23.8c-.3-.5-.9-.7-1.4-.4,0,0,0,0,0,0-4,2.7-7.9,2.8-11.7.3-.3-.2-.6-.1-.9,0l-10.6,9.2c-.3.2-.3.6-.2.9,2,4.6,1.6,8.6-1.4,12.1-.4.5-.5,1.2-.2,1.8l8.4,14.6c.3.5.9.7,1.4.6,4.6-1.2,8.3.1,11.2,3.8.3.4.8.5,1.3.2l13.1-7.6c.5-.3.8-.8.8-1.4ZM500.5,118.9c-.4,0-.8.2-.9.5-1.4,4.3-4.4,6.4-8.5,7.8-.4.2-.7.5-.8,1l-2.1,11.3c0,.4.1.8.5,1,2.6,1.4,4.5,3.3,5.6,5.7.2.4.6.6,1,.4,0,0,0,0,.1,0l22.3-16.9c.3-.3.5-.7.2-1.1-1-1.9-1.6-3.9-1.7-6.2,0-.4-.2-.6-.6-.6l-15.2-2.8ZM482.2,139.7c1.2-.2,1.9-.4,2.2-.5.4,0,.6-.3.7-.7l1.9-10.4c.1-.6-.2-1.1-.8-1.3-3.2-1.1-5.4-3-6.6-5.8-.3-.7-.8-1-1.6-.9l-26.1,4.2c-.3,0-.5.2-.6.4l-2,4.6c-.2.5,0,1.1.4,1.4l24.1,14.6c.4.3,1,.1,1.3-.3,0,0,0,0,0,0,1.7-2.8,4-4.6,7.1-5.2ZM538.5,151.5c.5-.8,1-1.5,1.6-2.1.4-.5.5-1.2.2-1.8l-8.3-14.3c-.3-.5-.9-.7-1.5-.5-2.9,1.2-5.8.9-8.9-.8-.6-.4-1.4-.3-2,.1l-23.5,17.9c-1,.7-.9,1.2.4,1.3,13.2,1.5,26,2.7,38.3,3.8,1.5.1,2.5-.3,2.9-1.4.5-1.5.8-2.2.8-2.3ZM555.2,164.4c-2.3,2.4-4.1,2.1-6.1,3.6-.2.2-.4.4-.4.7l-3.5,15.4c-.1.6.2,1.1.7,1.3,2.3.8,4.2,2.1,5.6,3.9.2.2.6.3.8,0,0,0,0,0,.1-.1l24.3-37.6c.3-.4.1-.9-.3-1.2,0,0,0,0,0,0-1.4-.9-2.7-2.1-3.8-3.7-.3-.4-.8-.5-1.2-.3l-12.7,7.3c-.5.3-.8.9-.7,1.5.6,3.6-.4,6.6-2.8,9.2ZM538,162c-.5-.9-.5-1.9-1-2.8-.2-.3-.4-.5-.8-.5-26.5-2.7-39.7-4.1-39.7-4.1-.7,0-1.2,0-1.6.3-.2.2-.3.5-.2.7,0,0,0,0,0,.1l38.8,32.9c.3.3.8.2,1.1,0,1.5-1.8,3.4-2.8,5.5-3.2.7-.1,1.3-.7,1.4-1.4l3.5-15.2c.1-.6-.2-1.2-.8-1.4-2.7-.8-4.9-2.6-6.4-5.4Z"/>
  <path class="st5" d="M485.5,106.8c-.4.1-.8,0-1-.3l-6.2-8.2c-.4-.5-.4-1.2,0-1.7,1.7-2.3,2.5-4.8,2.4-7.4,0-.6.4-1.1,1-1.2l18.3-2.9c.4,0,.7,0,.9.3l3.3,3.8c.3.3.3.7,0,1l-10.3,15.9c-.3.4-.8.6-1.3.5-2.3-.6-4.7-.5-7.2.2Z"/>
  <path class="st5" d="M544.4,103.4c.5,1.2.1,2.3-1.1,3.3-4.1,3.5-7,6.1-8.8,7.6-.4.3-.9.4-1.4.1-2.5-1.6-5.2-2.3-8-2.1-.4,0-.8-.2-1-.6l-7.5-21.5c0-.2,0-.5.1-.7l3.4-3.4c.5-.5,1-.6,1.7-.3l21.4,8.6c.4.2.6.6.5,1-.4,1.9-.5,3.7-.2,5.6,0,0,.3.8.9,2.3Z"/>
  <path class="st5" d="M516.7,118.6l-16.1-3c-.5,0-.9-.4-1-.9-.5-1.9-1.5-3.7-2.8-5.5-.2-.3-.2-.7,0-1l10.8-16.7c.2-.3.6-.5.9-.4,1.6.3,3.1.3,4.2,0,.4,0,.8.1.9.5l7.4,21.3c.2.7,0,1.4-.5,1.8-1.2,1-2.2,2.2-3,3.6-.2.2-.4.4-.7.3Z"/>
  <path class="st5" d="M472.1,100.3c1.1-.1,1.4-.5,2.2-.8.3-.1.7,0,.9.2l6.3,8.3c.3.5.3,1.1,0,1.5-2,2.3-2.1,4.3-3.1,6.9-.1.3-.4.5-.7.6l-25.7,4.1c-.4,0-.8-.2-1-.6-.8-2.2-2-4.2-3.7-6-.2-.2-.2-.5,0-.7l15.4-15.3c.4-.4,1-.4,1.5-.1,2.3,1.7,5,2.4,8.1,2Z"/>
  <path class="st5" d="M574.8,133c-2.5,2.7-4.2,5-3.9,9,0,.6-.2,1.1-.8,1.4l-13.1,7.6c-.4.2-1,.1-1.3-.2-2.9-3.7-6.6-4.9-11.2-3.8-.5.1-1.1-.1-1.4-.6l-8.4-14.6c-.3-.6-.3-1.3.2-1.8,3-3.5,3.4-7.5,1.4-12.1-.1-.3,0-.7.2-.9l10.6-9.2c.2-.2.6-.2.9,0,3.8,2.5,7.7,2.4,11.7-.3.5-.3,1.1-.2,1.4.3,0,0,0,0,0,0l13.8,23.8c.3.5.2,1-.2,1.4Z"/>
  <path class="st5" d="M500.5,118.9l15.2,2.8c.4,0,.5.3.6.6.1,2.2.7,4.3,1.7,6.2.2.4.1.9-.2,1.1l-22.3,16.9c-.3.3-.8.2-1.1-.2,0,0,0,0,0-.1-1.1-2.4-3-4.3-5.6-5.7-.4-.2-.5-.6-.5-1l2.1-11.3c0-.4.4-.8.8-1,4.1-1.5,7.1-3.5,8.5-7.8.1-.4.5-.6.9-.5Z"/>
  <path class="st5" d="M482.2,139.7c-3.1.7-5.5,2.4-7.1,5.2-.3.4-.8.6-1.3.3,0,0,0,0,0,0l-24.1-14.6c-.5-.3-.6-.9-.4-1.4l2-4.6c.1-.2.3-.4.6-.4l26.1-4.2c.8-.1,1.3.2,1.6.9,1.2,2.8,3.4,4.7,6.6,5.8.5.2.9.7.8,1.3l-1.9,10.4c0,.4-.3.6-.7.7-.3,0-1,.2-2.2.5Z"/>
  <path class="st5" d="M537.6,153.8c-.4,1.1-1.3,1.5-2.9,1.4-12.3-1.1-25.1-2.4-38.3-3.8-1.2-.1-1.3-.6-.4-1.3l23.5-17.9c.6-.4,1.3-.5,2-.1,3,1.7,6,2,8.9.8.5-.2,1.2,0,1.5.5l8.3,14.3c.3.6.3,1.3-.2,1.8-.5.6-1.1,1.3-1.6,2.1,0,0-.3.8-.8,2.3Z"/>
  <path class="st5" d="M555.2,164.4c2.5-2.5,3.4-5.6,2.8-9.2-.1-.6.2-1.2.7-1.5l12.7-7.3c.4-.2.9-.1,1.2.3,1.1,1.6,2.3,2.8,3.8,3.7.4.2.5.8.3,1.2,0,0,0,0,0,0l-24.3,37.6c-.2.3-.5.3-.8.2,0,0,0,0-.1-.1-1.5-1.8-3.3-3.1-5.6-3.9-.5-.2-.8-.7-.7-1.3l3.5-15.4c0-.3.2-.5.4-.7,2-1.5,3.8-1.2,6.1-3.6Z"/>
  <path class="st5" d="M538,162c1.5,2.8,3.7,4.6,6.4,5.4.6.2.9.8.8,1.4l-3.5,15.2c-.2.7-.7,1.2-1.4,1.4-2.2.4-4,1.5-5.5,3.2-.3.3-.8.4-1.1,0l-38.8-32.9c-.2-.2-.2-.5,0-.8,0,0,0,0,.1,0,.4-.3.9-.3,1.6-.3,0,0,13.2,1.4,39.7,4.1.3,0,.6.2.8.5.5.9.5,1.9,1,2.8Z"/>
  <path class="st6" d="M470,249.2c0,.9.2.9.7.2,6.5-11.4,23.7-8.6,25.4,5,1,7.9.5,16.1.5,24.5,0,.3-.2.5-.5.5h-7c-.2,0-.3,0-.3-.3,0-7.3,0-13.6,0-19.1,0-5.2-.8-9.7-6.1-10.9-4.8-1.1-9.3,2.1-11.6,6.2-.9,1.5-1.3,3.8-1.2,7.1,0,3.7,0,9.3,0,16.8,0,.2,0,.2-.2.2h-7c-.1,0-.2,0-.2-.2v-49.1c0-.2,0-.2.2-.2h7c.2,0,.2,0,.2.2v19.2Z"/>
  <path class="st6" d="M361.3,249c-3,1.1-3.4,5.2-.4,7.1.3.2.9.5,1.8.8,3.9,1.4,7,2.6,9.2,3.7,5.4,2.6,7.4,9.3,3.9,14.2-3.6,5.1-10.9,6.3-16.6,4.5-4.5-1.3-7.5-4.2-8.9-8.6,0-.3,0-.5.3-.6l5-1.8c.3,0,.6,0,.7.3,1.7,4,4.7,5.7,9.1,5.2,2.6-.3,4.6-2.1,4.6-4.7,0-2.3-2.3-3.9-4.2-4.6-3.2-1-5.7-2-7.7-2.9-10.4-5-7.9-18.1,3.4-19.2,6.7-.7,11.4,1.9,14.3,7.7.2.3,0,.6-.3.7l-4.9,1.7c-.5.2-.8,0-1.1-.4-2-3.4-4.7-4.4-8.3-3.2Z"/>
  <path class="st6" d="M657.1,251.4c0,0,0,.2.2.2,0,0,.1,0,.2-.1,2.5-6.4,7.4-9.4,14.7-9.1.2,0,.3.1.3.3v6.6c0,.1,0,.2-.2.2-7.1-.2-11.8,2.6-14.1,8.5-.8,2.1-1.2,5.6-1.1,10.4,0,1.7,0,5.2,0,10.6,0,.2-.2.4-.4.4h-6.8c-.2,0-.4-.2-.4-.4v-35.9c0-.2,0-.2.2-.2h7c.1,0,.3.1.3.3h0v8.3Z"/>
  <path class="st6" d="M317,246.9c1.2-1.6,3-2.8,5.4-3.6,8.5-2.8,18.1,1.7,21.7,10,5.6,13.1-3,27.3-17.7,26.7-3.9-.1-7.4-1.6-9.7-4.8-.6-.8-.9-.7-.9.3v16.4c0,.4-.2.7-.7.7h-6.7c-.4,0-.6-.2-.6-.6v-48.4c0-.5.2-.7.7-.7h6.5c.5,0,.8.3.8.8v2.9c0,1.1.3,1.2,1,.3ZM326.9,273.5c6.4,0,11.6-5.6,11.6-12.4,0-6.8-5.3-12.3-11.7-12.3-6.4,0-11.6,5.6-11.6,12.4,0,6.8,5.3,12.3,11.7,12.3Z"/>
  <path class="st6" d="M429.2,261.2c0,11.6,14,16.6,21.2,7.6,0-.1.2-.1.3,0l5.5,2.4c.2,0,.2.2.1.4-4.1,6-9.3,8.8-15.6,8.4-10.1-.7-16.4-5.7-18.6-15.2-.1-.5-.2-1.7-.2-3.6,0-1.9,0-3.1.2-3.6,2.3-9.4,8.5-14.5,18.6-15.1,6.3-.4,11.5,2.4,15.6,8.4.1.2,0,.3-.1.4l-5.5,2.4c-.1,0-.2,0-.3,0-7.2-9-21.2-4-21.2,7.6Z"/>
  <path class="st6" d="M519.2,280c-7.2-1.1-12.3-4.6-15.1-10.2-4.2-8.5-1.9-17.9,5.7-23.7,1.5-1.2,3.8-2.2,6.8-3.2,14.1-2.4,23.5,7,22.3,20.6,0,.3-.3.5-.6.5h-25.6c-3,0-3.6,1.2-1.8,3.5l1.1,1.5c1.8,2.4,4.3,3.9,7.3,4.3,4.9.7,9-.2,12.5-2.8.2-.2.5-.2.7,0l3.8,3.8c0,0,0,.1,0,.2-4.8,4.9-10.2,5.6-17.1,5.4ZM521,258.2c6.3,0,9.7,0,10.1,0,.8,0,1.1-.4.8-1.1-1.7-4.8-5.7-8.2-10.9-8.2-5.2,0-9.2,3.4-10.9,8.2-.3.8,0,1.1.8,1.1.4,0,3.8,0,10.1,0Z"/>
  <path class="st6" d="M565.1,261.2c0-1.9,0-3.1.2-3.6,2.3-9.4,8.5-14.5,18.6-15.2,6.3-.4,11.5,2.4,15.6,8.4.1.2,0,.3-.1.4l-5.5,2.4c-.1,0-.2,0-.3,0-7.2-9-21.2-4-21.2,7.6,0,11.6,14,16.6,21.2,7.6,0-.1.2-.1.3,0l5.5,2.4c.2,0,.2.2.1.4-4.1,6-9.3,8.8-15.6,8.4-10.1-.7-16.3-5.7-18.6-15.2-.1-.5-.2-1.7-.2-3.6Z"/>
  <path class="st6" d="M642,261.2c0,1.6,0,7.3.1,17.1,0,.8-.4,1.2-1.2,1.2h-5.7c-.7,0-1-.3-1-1v-3.5c0-.4-.1-.5-.4-.2-2.8,3.2-5.8,4.8-8.9,5-8.8.6-15.1-2.8-18.8-10.2-1.2-2.3-1.8-5.2-1.8-8.5,0-3.3.6-6.1,1.8-8.5,3.7-7.4,9.9-10.8,18.8-10.2,3.2.2,6.1,1.9,8.9,5,.3.3.4.3.4-.2v-3.5c0-.7.3-1,1-1h5.7c.8,0,1.3.4,1.3,1.2,0,9.8,0,15.5,0,17.1ZM623.1,273.5c6.4,0,11.6-5.5,11.6-12.3s-5.2-12.3-11.6-12.3h0c-6.4,0-11.6,5.5-11.6,12.3h0c0,6.8,5.2,12.3,11.6,12.3Z"/>
  <path class="st6" d="M686,264c-1,0-1.4.5-1,1.5,3.4,9.3,14.6,10.3,21.7,5.1.3-.2.6-.2.8,0l3.6,3.6c0,0,0,.2,0,.3-6.6,7-19.3,7.1-26.8,1.5-3.7-2.8-6-6.5-7-11.1-2.9-14.1,11-26.5,24.8-21.5,8.8,3.1,12.4,11.2,11.6,20.3,0,.2-.2.3-.3.3h-27.4ZM696,258.2c6.3,0,9.7,0,10.1,0,.8,0,1.1-.4.8-1.1-1.7-4.8-5.7-8.2-10.9-8.2-5.2,0-9.2,3.4-10.9,8.3-.3.8,0,1.1.8,1.1s3.8,0,10.1,0Z"/>
  <path class="st6" d="M398.1,269.2c.1,0,.3,0,.4-.2l11.3-25.3c.2-.6.7-.8,1.3-.8h5.7c.6,0,.8.3.6.9l-21.7,48.7c0,.2-.2.2-.4.2h-7.1c0,0-.2,0-.2-.1,0,0,0,0,0,0l6.1-13.6c.2-.4.2-.9,0-1.3l-15.4-34.4c0,0,0-.2.1-.3,0,0,0,0,0,0h7c.2,0,.3,0,.3.2,3.6,8.1,7.4,16.7,11.4,25.7.1.2.3.4.5.4Z"/>
  <path class="st5" d="M521,248.9c5.2,0,9.2,3.4,10.9,8.2.3.8,0,1.1-.8,1.1-.4,0-3.8,0-10.1,0-6.3,0-9.7,0-10.1,0-.8,0-1.1-.4-.8-1.1,1.7-4.8,5.7-8.2,10.9-8.2Z"/>
  <path class="st5" d="M696,258.2c-6.3,0-9.7,0-10.1,0-.8,0-1.1-.4-.8-1.1,1.7-4.8,5.7-8.2,10.9-8.3,5.2,0,9.2,3.4,10.9,8.2.3.7,0,1.1-.8,1.1-.4,0-3.8,0-10.1,0Z"/>
  <ellipse class="st5" cx="326.9" cy="261.2" rx="11.6" ry="12.3" transform="translate(-1.4 1.7) rotate(-.3)"/>
  <ellipse class="st5" cx="623.1" cy="261.2" rx="11.6" ry="12.3"/>
  <path class="st6" d="M1024,363.9v4.1h-4.4c2.4-.7,3.9-2,4.4-4.1Z"/>
  <path class="st6" d="M3.6,368H0v-2.2c.7,1.3,1.9,2,3.6,2.2Z"/>
</svg>