<?xml version="1.0" encoding="UTF-8"?>
<svg id="Layer_1" xmlns="http://www.w3.org/2000/svg" version="1.1" viewBox="0 0 1024 339">
  <!-- Generator: Adobe Illustrator 29.0.1, SVG Export Plug-In . SVG Version: 2.1.0 Build 192)  -->
  <defs>
    <style>
      .st0 {
        stroke: #ffb2b2;
      }

      .st0, .st1, .st2, .st3, .st4 {
        fill: none;
        stroke-width: 2px;
      }

      .st5 {
        fill: #fe5756;
      }

      .st1 {
        stroke: #ff6e6d;
      }

      .st6 {
        fill: #2f9cea;
      }

      .st7 {
        fill: #fff;
      }

      .st2 {
        stroke: #ffbbba;
      }

      .st8 {
        fill: #ffde5a;
      }

      .st3 {
        stroke: #ffa260;
      }

      .st4 {
        stroke: #ffaa68;
      }
    </style>
  </defs>
  <g>
    <path class="st0" d="M2.1,0C1,.1.3.8,0,1.9" vector-effect="non-scaling-stroke"/>
    <path class="st1" d="M462.4,0c2.3.4,4.5.8,6.8,1.3,10.6,2,12.6,11.4,13.1,20.5.8,16.3,1.3,32.4,7.7,47.3" vector-effect="non-scaling-stroke"/>
    <path class="st3" d="M489.9,69c-24.6,8.9-42.6,32.6-42.5,59.2,0,6.1.6,11.4,1.7,15.9,7.8,31.3,35.6,51.2,67.8,49" vector-effect="non-scaling-stroke"/>
    <path class="st1" d="M516.9,193.2c5.1,10.8,9.1,21.9,11.9,33.4" vector-effect="non-scaling-stroke"/>
    <path class="st0" d="M528.8,226.6c-20.7-3.6-24.6,30.5,0,29.5" vector-effect="non-scaling-stroke"/>
    <path class="st1" d="M528.8,256c4.2,13.4,10.2,26.1,17.8,38.2,4.7,7.4,9.4,14.8,14,22.2,4.3,6.9,8.9,15,3.6,22.6" vector-effect="non-scaling-stroke"/>
    <path class="st0" d="M3.5,339c-1.7-.5-2.9-1.4-3.5-2.9" vector-effect="non-scaling-stroke"/>
    <path class="st0" d="M483.8,231v-18.5c0-.7-.4-1.1-1.1-1.1h-2c-.8,0-1.2.4-1.2,1.2v42.2c0,.6.3.9.9.9h2.5c.5,0,.9-.4.9-.9,0-9.7,0-14.7,0-14.7-.2-3.7,1.1-6.5,4-8.5,2.8-2,8-1.8,10.5,1.1,1.3,1.5,1.9,3.2,2,5.1.1,3.7.1,9.4,0,17,0,.6.3.9.9.9h2.5c.6,0,.9-.3.9-.9,0-9.7,0-15.1,0-16.1,0-5.6-2.1-11-8.2-12.1-5.4-1-8.8.6-12.1,4.6-.4.4-.6.4-.6-.2" vector-effect="non-scaling-stroke"/>
    <path class="st0" d="M356,232.1c-.1.1-.3.1-.4,0,0,0-.1-.1-.1-.2v-4.1c0-.6-.5-1.2-1.2-1.2h-1.8c-.8,0-1.2.4-1.2,1.2v40.6c0,.8.4,1.2,1.3,1.2h1.7c.7,0,1.3-.6,1.3-1.2v-17.1c0-1.1.3-1.2,1-.3,4.1,5.2,11.3,6.5,16.9,3.1,6.4-4,8.3-12.4,5.6-19.1-3.6-9-14-11.8-21.1-5-.3.3-1,1-1.9,2" vector-effect="non-scaling-stroke"/>
    <path class="st0" d="M393.6,238.1c-4.1-1.2-4.2-5.9-.6-7.3,4.4-1.7,7.5-.4,9.4,3.9.2.4.6.6,1,.4,0,0,0,0,0,0l2.4-1.1c.3-.1.4-.4.3-.7-2-6.7-9.4-8.5-15.2-5.8-4.6,2.1-6.5,7.8-3.3,11.9,3.6,4.7,14.6,2.2,14.8,8.2,0,3.6-3.9,5-7,4.6-2.8-.4-4.6-1.9-5.7-4.5-.4-1-1-1.3-2-1l-.9.3c-1,.3-1.4.9-1,2,1.6,5,5.4,7.4,11.5,7.1,5.2-.2,9.7-3.6,9.4-9.1-.4-6.9-7.8-7.4-13.1-8.9" vector-effect="non-scaling-stroke"/>
    <path class="st0" d="M444.3,241.4c0,7,4.3,12.8,11.3,14.4,7,1.5,12.4-.8,16.3-7,.7-1.1.5-2-.8-2.6l-.4-.2c-1.2-.6-2.1-.3-2.7,1-2.4,5-8.5,6.7-13.4,4.4-3.9-1.8-6-5.9-6-10.1,0-4.2,2-8.4,5.9-10.2,4.8-2.3,10.9-.7,13.4,4.3.6,1.2,1.5,1.5,2.7.9l.4-.2c1.2-.6,1.5-1.4.7-2.6-4-6.1-9.4-8.4-16.4-6.8-7,1.6-11.1,7.5-11.1,14.5" vector-effect="non-scaling-stroke"/>
    <path class="st0" d="M436.5,226.7c-.2,0-.3,0-.4.2l-9.7,21.2c0,.2-.3.3-.5.2,0,0-.1-.1-.2-.2l-10.3-21.2c0-.1-.2-.2-.4-.2h-3.8c-.2,0-.4.2-.4.4,0,0,0,.1,0,.2l12.8,26.3c0,.1,0,.2,0,.3l-7,15.3c0,.2,0,.4.2.5,0,0,.1,0,.2,0h3.7c.2,0,.3,0,.4-.2l19.4-42.2c0-.2,0-.4-.2-.5,0,0-.1,0-.2,0h-3.6" vector-effect="non-scaling-stroke"/>
    <path class="st2" d="M1020.5,0c2.2.8,3.4,3,3.5,6.7" vector-effect="non-scaling-stroke"/>
    <path class="st2" d="M1024,331.2c0,4-1.7,6.6-4.9,7.8" vector-effect="non-scaling-stroke"/>
    <path class="st2" d="M528.8,256c4.4-.8,7.7-3.4,9.9-7.7.2-.4,0-.9-.4-1.1,0,0,0,0,0,0l-1.9-.9c-.6-.3-1.1-.1-1.3.5-1.9,4.1-5.2,5.9-10.1,5.4-2.9-.3-5.6-1.9-7.1-4.4l-1-1.7c-1.6-2.7-.9-4,2.3-3.8,4.2.3,10.6.3,19.4.1.5,0,.8-.3.8-.8,0-8.3-3.5-13.3-10.5-15.1" vector-effect="non-scaling-stroke"/>
    <path class="st4" d="M516.9,193.2c21.5-2.4,37.7-12.3,48.8-29.5,8.5-13.2,11.5-27.9,9.1-44.1-3-19.4-15.1-36.9-32.1-46.3-16.6-9.1-34.1-10.5-52.8-4.3" vector-effect="non-scaling-stroke"/>
    <path class="st2" d="M559.7,241.4c0,7,4.4,12.8,11.3,14.3,7,1.5,12.4-.8,16.3-7,.7-1.1.5-2-.8-2.6l-.4-.2c-1.2-.6-2.1-.2-2.7,1-2.4,5-8.4,6.7-13.3,4.5-3.9-1.8-6-5.9-6-10.1,0-4.2,2-8.4,5.8-10.2,4.8-2.3,10.9-.7,13.4,4.2.6,1.2,1.5,1.5,2.8.9l.4-.2c1.2-.6,1.5-1.4.7-2.6-4-6.1-9.5-8.3-16.4-6.7-6.9,1.6-11.1,7.6-11,14.6" vector-effect="non-scaling-stroke"/>
    <path class="st2" d="M612.6,252v2.7c0,.6.3,1,1,1h2.5c.6,0,.9-.3.8-.9-.3-4.1-.4-9.2-.3-15.3,0-5.5-.8-9.9-5.6-12-6.7-3-14.7-.6-17.5,6.8-.1.3,0,.5.2.6l2.2,1c.6.3,1.3,0,1.6-.6,0,0,0,0,0,0,1.6-4.1,4.7-5.7,9.3-5,4.4.7,5.8,4,5.5,8,0,.6-.4.9-1,.9-3.9-.4-7.5-.3-10.8.3-6.1,1-9.4,6.2-6.6,12,3.4,6.9,13.7,5.6,17.8.3.6-.7.8-.6.8.3" vector-effect="non-scaling-stroke"/>
    <path class="st2" d="M630.8,231c-.6,1-1,.9-1-.3v-3.1c0-.6-.3-.9-.9-.9h-2.2c-.6,0-1,.5-1,1.1v27.2c0,.4.3.7.7.7h2.6c.7,0,1.1-.4,1-1.1-.1-8.4,0-13.4,0-14.8.5-6,3.7-9,9.5-8.9.7,0,1-.3,1-1v-2.6c0-.7-.3-1-1-1-4,.2-6.9,1.8-8.8,4.8" vector-effect="non-scaling-stroke"/>
    <path class="st2" d="M651.1,242.5h20c.3,0,.6-.3.6-.6.4-7.5-2.4-12.4-8.4-14.7-4.8-1.9-10.8-.8-14.4,2.8-8.4,8.5-5.4,24.1,7.5,25.9,6.7.9,11.5-1.5,14.6-7.4.3-.5,0-1.2-.5-1.4,0,0,0,0,0,0l-1.3-.6c-.7-.3-1.3-.2-1.8.5-.7.9-1.3,2.4-2.3,3.2-2.5,2-5.5,2.6-9,1.9-2.6-.5-4.6-2-6-4.4l-1.1-1.9c-1.3-2.2-.6-3.3,1.9-3.3" vector-effect="non-scaling-stroke"/>
    <path class="st4" d="M510.2,108.3c-10-22.7-43.9-11.7-38,12.4.7,2.8,3.3,7.2,7.8,13.2,6.3,8.4,12.5,16.8,18.7,25.4,1.3,1.9,3.3,4.9,5.4,6.2,4.6,2.9,8.6,2.3,12.3-2,2-2.4,10.9-13.3,26.6-32.8,3-3.7,4.8-6.6,5.5-8.5,2.7-7.7.2-17.1-6.2-22-6.6-5.1-13.7-5.9-21.2-2.6-4.8,2.2-8.2,5.7-10,10.5,0,.2-.3.3-.6.2-.1,0-.2-.1-.2-.2" vector-effect="non-scaling-stroke"/>
    <path class="st0" d="M366.3,252.4c5.6-.3,10-5.5,9.7-11.7-.3-6.2-5.1-11-10.8-10.7h0c-5.6.3-10,5.5-9.7,11.7.3,6.2,5.1,11,10.8,10.7h0" vector-effect="non-scaling-stroke"/>
    <path class="st0" d="M516.6,238.9h18.2c0-.1.1-.1.1-.2h0c0-4.8-4.1-8.6-9.2-8.6h-.2c-5,0-9.1,3.9-9.1,8.6h0c0,.1,0,.2.1.2" vector-effect="non-scaling-stroke"/>
    <path class="st2" d="M611.9,242.6c-3-.3-6.5,0-9,.1-9.4.8-6.2,11.4,2.4,9.4,4.6-1,7-4,7.2-8.9,0-.4-.2-.6-.6-.7" vector-effect="non-scaling-stroke"/>
    <path class="st2" d="M649.1,238.9h18.2c0,0,.1-.1,0-.2h0c0-4.8-4.1-8.6-9.1-8.6h-.2c-5,0-9.1,3.9-9.1,8.6h0c0,.1,0,.2.1.2,0,0,0,0,0,0" vector-effect="non-scaling-stroke"/>
  </g>
  <path class="st5" d="M2.1,0C1,.1.3.8,0,1.9V0h2.1Z"/>
  <path class="st5" d="M462.4,0c2.3.4,4.5.8,6.8,1.3,10.6,2,12.6,11.4,13.1,20.5.8,16.3,1.3,32.4,7.7,47.3-24.6,8.9-42.6,32.6-42.5,59.2,0,6.1.6,11.4,1.7,15.9,7.8,31.3,35.6,51.2,67.8,49,5.1,10.8,9.1,21.9,11.9,33.4-20.7-3.6-24.6,30.5,0,29.5,4.2,13.4,10.2,26.1,17.8,38.2,4.7,7.4,9.4,14.8,14,22.2,4.3,6.9,8.9,15,3.6,22.6H3.5c-1.7-.5-2.9-1.4-3.5-2.9V1.9C.3.8,1,.1,2.1,0h460.2ZM483.8,231v-18.5c0-.7-.4-1.1-1.1-1.1h-2c-.8,0-1.2.4-1.2,1.2v42.2c0,.6.3.9.9.9h2.5c.5,0,.9-.4.9-.9,0-9.7,0-14.7,0-14.7-.2-3.7,1.1-6.5,4-8.5,2.8-2,8-1.8,10.5,1.1,1.3,1.5,1.9,3.2,2,5.1.1,3.7.1,9.4,0,17,0,.6.3.9.9.9h2.5c.6,0,.9-.3.9-.9,0-9.7,0-15.1,0-16.1,0-5.6-2.1-11-8.2-12.1-5.4-1-8.8.6-12.1,4.6-.4.4-.6.4-.6-.2ZM356,232.1c-.1.1-.3.1-.4,0,0,0-.1-.1-.1-.2v-4.1c0-.6-.5-1.2-1.2-1.2h-1.8c-.8,0-1.2.4-1.2,1.2v40.6c0,.8.4,1.2,1.3,1.2h1.7c.7,0,1.3-.6,1.3-1.2v-17.1c0-1.1.3-1.2,1-.3,4.1,5.2,11.3,6.5,16.9,3.1,6.4-4,8.3-12.4,5.6-19.1-3.6-9-14-11.8-21.1-5-.3.3-1,1-1.9,2ZM393.6,238.1c-4.1-1.2-4.2-5.9-.6-7.3,4.4-1.7,7.5-.4,9.4,3.9.2.4.6.6,1,.4,0,0,0,0,0,0l2.4-1.1c.3-.1.4-.4.3-.7-2-6.7-9.4-8.5-15.2-5.8-4.6,2.1-6.5,7.8-3.3,11.9,3.6,4.7,14.6,2.2,14.8,8.2,0,3.6-3.9,5-7,4.6-2.8-.4-4.6-1.9-5.7-4.5-.4-1-1-1.3-2-1l-.9.3c-1,.3-1.4.9-1,2,1.6,5,5.4,7.4,11.5,7.1,5.2-.2,9.7-3.6,9.4-9.1-.4-6.9-7.8-7.4-13.1-8.9ZM444.3,241.4c0,7,4.3,12.8,11.3,14.4,7,1.5,12.4-.8,16.3-7,.7-1.1.5-2-.8-2.6l-.4-.2c-1.2-.6-2.1-.3-2.7,1-2.4,5-8.5,6.7-13.4,4.4-3.9-1.8-6-5.9-6-10.1,0-4.2,2-8.4,5.9-10.2,4.8-2.3,10.9-.7,13.4,4.3.6,1.2,1.5,1.5,2.7.9l.4-.2c1.2-.6,1.5-1.4.7-2.6-4-6.1-9.4-8.4-16.4-6.8-7,1.6-11.1,7.5-11.1,14.5ZM436.5,226.7c-.2,0-.3,0-.4.2l-9.7,21.2c0,.2-.3.3-.5.2,0,0-.1-.1-.2-.2l-10.3-21.2c0-.1-.2-.2-.4-.2h-3.8c-.2,0-.4.2-.4.4,0,0,0,.1,0,.2l12.8,26.3c0,.1,0,.2,0,.3l-7,15.3c0,.2,0,.4.2.5,0,0,.1,0,.2,0h3.7c.2,0,.3,0,.4-.2l19.4-42.2c0-.2,0-.4-.2-.5,0,0-.1,0-.2,0h-3.6Z"/>
  <path class="st5" d="M1020.5,0c2.2.8,3.4,3,3.5,6.7v324.6c0,4-1.7,6.6-4.9,7.8h-454.9c5.3-7.5.7-15.7-3.6-22.6-4.7-7.4-9.3-14.8-14-22.2-7.6-12-13.6-24.7-17.8-38.2,4.4-.8,7.7-3.4,9.9-7.7.2-.4,0-.9-.4-1.1,0,0,0,0,0,0l-1.9-.9c-.6-.3-1.1-.1-1.3.5-1.9,4.1-5.2,5.9-10.1,5.4-2.9-.3-5.6-1.9-7.1-4.4l-1-1.7c-1.6-2.7-.9-4,2.3-3.8,4.2.3,10.6.3,19.4.1.5,0,.8-.3.8-.8,0-8.3-3.5-13.3-10.5-15.1-2.8-11.4-6.8-22.5-11.9-33.4,21.5-2.4,37.7-12.3,48.8-29.5,8.5-13.2,11.5-27.9,9.1-44.1-3-19.4-15.1-36.9-32.1-46.3-16.6-9.1-34.1-10.5-52.8-4.3-6.4-14.9-6.8-31-7.7-47.3-.5-9.1-2.5-18.5-13.1-20.5-2.2-.4-4.5-.8-6.8-1.3h558.1ZM559.7,241.4c0,7,4.4,12.8,11.3,14.3,7,1.5,12.4-.8,16.3-7,.7-1.1.5-2-.8-2.6l-.4-.2c-1.2-.6-2.1-.2-2.7,1-2.4,5-8.4,6.7-13.3,4.5-3.9-1.8-6-5.9-6-10.1,0-4.2,2-8.4,5.8-10.2,4.8-2.3,10.9-.7,13.4,4.2.6,1.2,1.5,1.5,2.8.9l.4-.2c1.2-.6,1.5-1.4.7-2.6-4-6.1-9.5-8.3-16.4-6.7-6.9,1.6-11.1,7.6-11,14.6ZM612.6,252v2.7c0,.6.3,1,1,1h2.5c.6,0,.9-.3.8-.9-.3-4.1-.4-9.2-.3-15.3,0-5.5-.8-9.9-5.6-12-6.7-3-14.7-.6-17.5,6.8-.1.3,0,.5.2.6l2.2,1c.6.3,1.3,0,1.6-.6,0,0,0,0,0,0,1.6-4.1,4.7-5.7,9.3-5,4.4.7,5.8,4,5.5,8,0,.6-.4.9-1,.9-3.9-.4-7.5-.3-10.8.3-6.1,1-9.4,6.2-6.6,12,3.4,6.9,13.7,5.6,17.8.3.6-.7.8-.6.8.3ZM630.8,231c-.6,1-1,.9-1-.3v-3.1c0-.6-.3-.9-.9-.9h-2.2c-.6,0-1,.5-1,1.1v27.2c0,.4.3.7.7.7h2.6c.7,0,1.1-.4,1-1.1-.1-8.4,0-13.4,0-14.8.5-6,3.7-9,9.5-8.9.7,0,1-.3,1-1v-2.6c0-.7-.3-1-1-1-4,.2-6.9,1.8-8.8,4.8ZM651.1,242.5h20c.3,0,.6-.3.6-.6.4-7.5-2.4-12.4-8.4-14.7-4.8-1.9-10.8-.8-14.4,2.8-8.4,8.5-5.4,24.1,7.5,25.9,6.7.9,11.5-1.5,14.6-7.4.3-.5,0-1.2-.5-1.4,0,0,0,0,0,0l-1.3-.6c-.7-.3-1.3-.2-1.8.5-.7.9-1.3,2.4-2.3,3.2-2.5,2-5.5,2.6-9,1.9-2.6-.5-4.6-2-6-4.4l-1.1-1.9c-1.3-2.2-.6-3.3,1.9-3.3Z"/>
  <path class="st6" d="M1024,0v6.7c-.1-3.6-1.3-5.8-3.5-6.7h3.5Z"/>
  <path class="st8" d="M516.9,193.2c-32.2,2.2-60-17.7-67.8-49-1.1-4.5-1.7-9.8-1.7-15.9-.1-26.6,17.9-50.3,42.5-59.2,18.6-6.3,36.2-4.8,52.8,4.3,17,9.4,29.1,26.8,32.1,46.3,2.5,16.2-.6,30.9-9.1,44.1-11.1,17.2-27.3,27.1-48.8,29.5ZM510.2,108.3c-10-22.7-43.9-11.7-38,12.4.7,2.8,3.3,7.2,7.8,13.2,6.3,8.4,12.5,16.8,18.7,25.4,1.3,1.9,3.3,4.9,5.4,6.2,4.6,2.9,8.6,2.3,12.3-2,2-2.4,10.9-13.3,26.6-32.8,3-3.7,4.8-6.6,5.5-8.5,2.7-7.7.2-17.1-6.2-22-6.6-5.1-13.7-5.9-21.2-2.6-4.8,2.2-8.2,5.7-10,10.5,0,.2-.3.3-.6.2-.1,0-.2-.1-.2-.2Z"/>
  <path class="st5" d="M510.2,108.3c.1.2.4.3.6.2.1,0,.2-.1.2-.2,1.9-4.8,5.2-8.3,10-10.5,7.5-3.4,14.6-2.5,21.2,2.6,6.4,4.9,8.9,14.3,6.2,22-.7,1.9-2.5,4.7-5.5,8.5-15.7,19.5-24.6,30.4-26.6,32.8-3.6,4.3-7.7,4.9-12.3,2-2.1-1.4-4.1-4.4-5.4-6.2-6.2-8.6-12.4-17.1-18.7-25.4-4.5-6.1-7.1-10.5-7.8-13.2-5.9-24.1,28-35.1,38-12.4Z"/>
  <path class="st7" d="M484.4,231.2c3.3-4,6.7-5.6,12.1-4.6,6.1,1.2,8.2,6.5,8.2,12.1,0,1,0,6.3,0,16.1,0,.6-.3.9-.9.9h-2.5c-.6,0-.9-.3-.9-.9,0-7.6,0-13.3,0-17,0-2-.7-3.7-2-5.1-2.5-2.9-7.7-3.1-10.5-1.1-2.8,2-4.2,4.9-4,8.5,0,0,0,5,0,14.7,0,.5-.4.9-.9.9h-2.5c-.6,0-.9-.3-.9-.9v-42.2c0-.8.4-1.2,1.2-1.2h2c.7,0,1.1.4,1.1,1.1v18.5c0,.6.2.6.6.2Z"/>
  <path class="st7" d="M356,232.1c.9-1,1.5-1.7,1.9-2,7.1-6.8,17.5-4,21.1,5,2.7,6.8.9,15.2-5.6,19.1-5.6,3.4-12.8,2.1-16.9-3.1-.7-.9-1-.7-1,.3v17.1c0,.7-.6,1.2-1.3,1.2h-1.7c-.8,0-1.3-.4-1.3-1.2v-40.6c0-.8.4-1.2,1.2-1.2h1.8c.6,0,1.2.5,1.2,1.2h0v4.1c0,.2.1.3.3.3,0,0,.2,0,.2-.1ZM366.3,252.4c5.6-.3,10-5.5,9.7-11.7-.3-6.2-5.1-11-10.8-10.7h0c-5.6.3-10,5.5-9.7,11.7.3,6.2,5.1,11,10.8,10.7h0Z"/>
  <path class="st7" d="M393,230.8c-3.6,1.4-3.5,6.1.6,7.3,5.3,1.5,12.7,2,13.1,8.9.3,5.5-4.1,8.8-9.4,9.1-6.1.3-9.9-2.1-11.5-7.1-.3-1,0-1.7,1-2l.9-.3c1-.3,1.6,0,2,1,1,2.7,2.9,4.2,5.7,4.5,3.1.4,7.1-1,7-4.6-.2-6-11.1-3.5-14.8-8.2-3.2-4.1-1.3-9.8,3.3-11.9,5.9-2.7,13.2-.9,15.2,5.8,0,.3,0,.5-.3.7l-2.4,1.1c-.4.2-.9,0-1.1-.4,0,0,0,0,0,0-1.9-4.4-5.1-5.7-9.4-3.9Z"/>
  <path class="st7" d="M444.3,241.4c0-7,4.1-12.9,11.1-14.5,6.9-1.6,12.4.6,16.4,6.8.7,1.1.5,2-.7,2.6l-.4.2c-1.2.6-2.1.3-2.7-.9-2.5-5-8.6-6.6-13.4-4.3-3.9,1.8-5.9,6-5.9,10.2,0,4.2,2.1,8.3,6,10.1,4.9,2.2,10.9.6,13.4-4.4.6-1.2,1.5-1.5,2.7-1l.4.2c1.2.6,1.5,1.4.8,2.6-3.9,6.2-9.3,8.5-16.3,7-7-1.5-11.2-7.4-11.3-14.4Z"/>
  <path class="st7" d="M528.8,226.6c7,1.8,10.5,6.8,10.5,15.1,0,.5-.3.8-.8.8-8.8.2-15.2.2-19.4-.1-3.2-.2-3.9,1.1-2.3,3.8l1,1.7c1.5,2.5,4.2,4.2,7.1,4.4,4.9.5,8.2-1.3,10.1-5.4.3-.6.7-.8,1.3-.5l1.9.9c.4.2.6.7.4,1.1,0,0,0,0,0,0-2.2,4.3-5.5,6.9-9.9,7.7-24.6,1-20.7-33.1,0-29.5ZM516.6,238.9h18.2c0-.1.1-.1.1-.2h0c0-4.8-4.1-8.6-9.2-8.6h-.2c-5,0-9.1,3.9-9.1,8.6h0c0,.1,0,.2.1.2Z"/>
  <path class="st7" d="M564,241.4c0,4.2,2.2,8.3,6,10.1,4.9,2.2,10.9.5,13.3-4.5.6-1.2,1.5-1.5,2.7-1l.4.2c1.2.6,1.5,1.4.8,2.6-3.9,6.2-9.3,8.5-16.3,7-7-1.5-11.3-7.4-11.3-14.3s4.1-12.9,11-14.6c6.9-1.6,12.4.6,16.4,6.7.7,1.1.5,2-.7,2.6l-.4.2c-1.2.6-2.1.3-2.8-.9-2.5-4.9-8.6-6.5-13.4-4.2-3.8,1.8-5.9,6-5.8,10.2Z"/>
  <path class="st7" d="M612.6,252c0-.9-.3-1-.8-.3-4.1,5.3-14.5,6.6-17.8-.3-2.8-5.8.5-11,6.6-12,3.4-.6,7-.7,10.8-.3.6,0,1-.2,1-.9.3-4.1-1.1-7.3-5.5-8-4.6-.7-7.7.9-9.3,5-.3.6-.9.9-1.5.6,0,0,0,0,0,0l-2.2-1c-.3-.1-.4-.3-.2-.6,2.7-7.4,10.8-9.8,17.5-6.8,4.8,2.1,5.6,6.5,5.6,12,0,6.1,0,11.2.3,15.3,0,.6-.2.9-.8.9h-2.5c-.6,0-1-.3-1-1v-2.7ZM611.9,242.6c-3-.3-6.5,0-9,.1-9.4.8-6.2,11.4,2.4,9.4,4.6-1,7-4,7.2-8.9,0-.4-.2-.6-.6-.7Z"/>
  <path class="st7" d="M630.8,231c1.9-3,4.8-4.6,8.8-4.8.7,0,1,.3,1,1v2.6c0,.7-.3,1-1,1-5.8,0-9,2.9-9.5,8.9-.1,1.5-.1,6.4,0,14.8,0,.7-.3,1.1-1,1.1h-2.6c-.4,0-.7-.3-.7-.7v-27.2c0-.6.5-1,1-1.1h2.2c.6,0,.9.3.9.9v3.1c0,1.2.3,1.3,1,.3Z"/>
  <path class="st7" d="M651.1,242.5c-2.5,0-3.2,1.1-1.9,3.3l1.1,1.9c1.4,2.4,3.4,3.8,6,4.4,3.5.7,6.5,0,9-1.9,1-.8,1.7-2.3,2.3-3.2.5-.6,1-.8,1.8-.5l1.3.6c.5.2.8.9.5,1.4,0,0,0,0,0,0-3,5.8-7.9,8.3-14.6,7.4-12.9-1.8-15.9-17.4-7.5-25.9,3.5-3.6,9.6-4.7,14.4-2.8,5.9,2.3,8.7,7.2,8.4,14.7,0,.3-.3.6-.6.6h-20ZM649.1,238.9h18.2c0,0,.1-.1,0-.2h0c0-4.8-4.1-8.6-9.1-8.6h-.2c-5,0-9.1,3.9-9.1,8.6h0c0,.1,0,.2.1.2,0,0,0,0,0,0Z"/>
  <path class="st7" d="M436.5,226.7h3.6c.2,0,.4.2.4.4,0,0,0,.1,0,.2l-19.4,42.2c0,.1-.2.2-.4.2h-3.7c-.2,0-.4-.2-.4-.4,0,0,0-.1,0-.2l7-15.3c0-.1,0-.2,0-.3l-12.8-26.3c0-.2,0-.4.2-.5,0,0,.1,0,.2,0h3.8c.2,0,.3,0,.4.2l10.3,21.2c0,.2.3.3.5.2,0,0,.1-.1.2-.2l9.7-21.2c0-.1.2-.2.4-.2Z"/>
  <ellipse class="st5" cx="365.8" cy="241.2" rx="10.2" ry="11.2" transform="translate(-11.7 18.8) rotate(-2.9)"/>
  <path class="st5" d="M649.1,238.9c0,0-.1,0-.1,0,0,0,0,0,0,0h0c0-4.8,4-8.6,9.1-8.7h.2c5,0,9.1,3.8,9.1,8.5h0c0,.1,0,.2,0,.2h-18.2Z"/>
  <path class="st5" d="M516.6,238.9c0,0-.1,0-.1-.1h0c0-4.8,4-8.7,9.1-8.7,0,0,0,0,0,0h.2c5,0,9.1,3.8,9.2,8.5h0c0,.1,0,.2-.1.2h-18.2Z"/>
  <path class="st5" d="M602.9,242.7c2.5-.2,5.9-.4,9-.1.4,0,.6.3.6.7-.2,4.9-2.6,7.9-7.2,8.9-8.6,1.9-11.8-8.7-2.4-9.4Z"/>
  <path class="st5" d="M1024,331.2v7.8h-4.9c3.2-1.1,4.8-3.7,4.9-7.8Z"/>
  <path class="st5" d="M3.5,339H0v-2.9c.7,1.5,1.8,2.4,3.5,2.9Z"/>
</svg>