<?xml version="1.0" encoding="UTF-8"?>
<svg id="Layer_1" xmlns="http://www.w3.org/2000/svg" version="1.1" viewBox="0 0 1024 367">
  <!-- Generator: Adobe Illustrator 29.0.1, SVG Export Plug-In . SVG Version: 2.1.0 Build 192)  -->
  <defs>
    <style>
      .st0 {
        stroke: #ff7271;
      }

      .st0, .st1, .st2, .st3, .st4, .st5, .st6 {
        fill: none;
        stroke-width: 2px;
      }

      .st7 {
        fill: #fe5e5d;
      }

      .st8 {
        fill: #ff6d6c;
      }

      .st1 {
        stroke: #ffa663;
      }

      .st9 {
        fill: #fff;
      }

      .st2 {
        stroke: #ffbbba;
      }

      .st10 {
        fill: #ffde5a;
      }

      .st3 {
        stroke: #ff6665;
      }

      .st4 {
        stroke: #ffafae;
      }

      .st5 {
        stroke: #ffb6b6;
      }

      .st6 {
        stroke: #ffaa68;
      }
    </style>
  </defs>
  <g>
    <path class="st3" d="M351.3-16.4c.9.8,1.7,1.5,2.6,2.3,3.9,3.4,5.8,8,6,13.4.4,10.4.4,19.9,2.3,29.5,3.2,16.4,5.1,26.7,5.6,30.9,2.7,23,4.6,38,5.8,44.8,3.8,22,8.5,43.9,14,65.7,3.9,15.3,8.9,31,14.7,42.5,5.6,11.2,11.3,22.6,17,34.2,1.1,2.3,3,4.6,5.8,7.1" vector-effect="non-scaling-stroke"/>
    <path class="st4" d="M425.1,254l-8.8,20.8c0,0-.1.1-.2.1,0,0,0,0,0,0l-12.1-26.4c0-.1-.1-.2-.3-.2h-5c0,0-.1,0-.1.1,0,0,0,0,0,0l14.7,32.1c.1.3.2.7,0,1l-8,18.6c-.1.3,0,.6.2.7,0,0,.1,0,.2,0h3.8c.5,0,.9-.3,1.1-.8l3-7.1" vector-effect="non-scaling-stroke"/>
    <path class="st3" d="M413.6,293c10.2,17.7,19.8,35.5,28.9,53.5,4.2,8.4,7.7,14.6,10.3,18.6,6.2,9.2,13.9,14.1,23.9,18" vector-effect="non-scaling-stroke"/>
    <path class="st4" d="M476.7,383.1c0,0-.1,0-.2.1,0,0-.1,0-.2,0-159,0-318,0-477,0-3.5,0-6-1.5-7.7-4.4" vector-effect="non-scaling-stroke"/>
    <path class="st4" d="M335.1,254.8v-5.9c0-.3-.2-.6-.5-.6h-3.9c-.2,0-.4.2-.4.5h0v51.7c0,.2.2.4.4.4h4.1c.2,0,.3-.1.3-.3v-22.9c0-1.1.3-1.1.8-.3,5,8,15.7,9,22.1,2.4,3.2-3.3,5-7.3,5.4-11.9.8-10.2-6-21.1-16.3-20-5,.5-8.7,2.9-11.3,7.2-.5.9-.8.8-.8-.2" vector-effect="non-scaling-stroke"/>
    <path class="st4" d="M378.8,262.3c-2.9-1.1-5.2-4.2-2.8-7.2,4-5,10.9-3.4,12.8,2.9,0,.3.4.5.7.4l3.5-1.1c.3-.1.5-.4.4-.8-1.2-4.1-3.6-6.8-7.4-8-5.8-1.8-14.7.4-15.5,8-.5,4.4.8,7.5,4,9.4,2.9,1.7,7.3,2.1,10.2,3,5.2,1.6,6.4,8,.7,10-3.1,1.1-5.9.7-8.5-1.3-1.4-1-1.9-2.7-2.6-4.2-.4-.8-1-1-1.8-.8l-1.7.5c-.9.3-1.3,1-.9,1.9,1.9,5.5,5.4,8.4,10.6,8.9,4.3.4,7.9-.8,10.8-3.6,3.4-3.3,3.7-9.6.2-13.2-3.6-3.7-9.5-3.8-12.5-5" vector-effect="non-scaling-stroke"/>
    <path class="st0" d="M566.9-16.4c3.6,12.6,3.7,21.4,4.1,36.3.4,15.7,4.4,28.2,9.4,49.7,2.5,10.9,1.5,21.2-3,31" vector-effect="non-scaling-stroke"/>
    <path class="st1" d="M577.5,100.7c-1.9-2.1-4.4-3.6-7.3-4.7-.7-.2-1.5.2-1.7.9-2.2,6.7-6.7,11.4-13.7,14-1.4.5-2.5.1-3.5-1.2h0c-.9-1.4-.7-2.4.7-3.1.6-.3,1.7-.9,3.4-1.7,5.7-2.8,9-8.2,9.2-14.9.2-9.1-4.1-15.1-12.7-18-1.6-.5-6-.3-8,.7-1.3.6-2.3,1.1-3.1,1.4-1.1.5-1.8,0-2.2-1.1l-.3-1.2c-.3-1,.3-2.1,1.2-2.4l7.3-2.3c.2,0,.3-.3.3-.6,0,0,0,0,0-.1-1.4-2.3-3.2-4.2-5.4-5.6-2.1-1.4-4.5-2-7.1-1.9-8.7.4-14.2,8.5-14.3,17.6,0,38.3,0,74.1,0,107.3,0,4.2.3,7.3,1,9.4,2.5,7.7,8.6,13.5,16.4,14,6.2.4,11.4-2.6,15.7-9.2.3-.5.2-1.1-.2-1.5-.2-.2-.4-.5-.6-1.1-.1-.4-.1-.7,0-1.1.8-2.4,2.6-2.1,4.3-.9,8,5.4,17.7,2.3,22.4-6.1,3-5.4,3.6-11.3,1.8-17.7,0-.3-.3-.4-.6-.3-7.7,3.8-14.9,2.7-21.8-3.3-1.4-1.3-1.6-2.5-.6-3.6l.2-.3c1-1.2,2.1-1.2,3.2-.2,6.1,5.5,13.8,6.2,19.9.7,8.5-7.6,7.9-20.8,1-29.4-.2-.3-.5-.3-.8,0l-4.5,3.9c-1.2,1-2.2.9-3.1-.4,0-.1-.1-.2-.2-.3-.8-1.4-.5-2.6.7-3.5,5.7-4.3,8.6-10.5,8.7-18.6" vector-effect="non-scaling-stroke"/>
    <path class="st0" d="M583.2,114.3c2.5,7.4,4.9,14.7,7.2,22.1,2.3,7.6,7.5,14.4,11.7,21,2.5,3.9,4.6,9.2,6.4,16.2.7,2.8,2,8,3.8,15.8,2.5,11,6.7,21.6,12.4,31.7,6.7,11.8,13.4,23.6,20.2,35.4" vector-effect="non-scaling-stroke"/>
    <path class="st5" d="M645,256.4v26.4c0,.4.2.6.5.7,1.4.3,2.9.3,4.5,0" vector-effect="non-scaling-stroke"/>
    <path class="st0" d="M650,283.5l.2-8.2c0-.4.2-.6.5-.8,5-2.5,10.4-3.8,16-3.8" vector-effect="non-scaling-stroke"/>
    <path class="st5" d="M666.7,270.7c1.7,6.6,5.7,10.9,11.9,13" vector-effect="non-scaling-stroke"/>
    <path class="st0" d="M678.6,283.6c-.7,9.2,1.1,17.3,5.3,24.3,5.6,9.3,13.2,16.9,22.4,25.7,13,12.3,25.4,24.9,37.3,37.8,3.9,4.2,7.7,7.9,11.7,11.7" vector-effect="non-scaling-stroke"/>
    <path class="st5" d="M755.4,383.1h-278.7" vector-effect="non-scaling-stroke"/>
    <path class="st5" d="M413.6,293l19.1-44.5c0-.2,0-.2-.1-.2h-4.7c-.2,0-.3,0-.4.3l-2.3,5.4" vector-effect="non-scaling-stroke"/>
    <path class="st1" d="M489.4,73.5c-.8.9-1.8,1-2.8.4-2.9-1.7-5.7-2.3-8.3-1.9-5.9.8-10.2,4-12.8,9.5-3.8,8.1-1.5,16.9,5.1,22.3,1.4,1.1,3.5,1.9,5.5,2.8,1.3.6,1.6,1.6,1.1,2.9v.4c-.7,1.3-1.6,1.8-2.8,1.4-7.1-2.3-12-7.3-14.6-14.9-.1-.3-.5-.5-.8-.4-7.1,2.3-11.7,8-13.2,15.8-1.2,6.2.3,12.1,4.4,17.5.5.7,1.9,2.1,4.1,4.1.8.7.8,2.1.2,3.4l-.4.3c-1.2.9-2.4.8-3.5-.2l-4-3.6c-.3-.2-.5-.2-.8,0-4.2,4.9-6.3,12.6-4.4,19.3,1.9,6.6,5.6,11.6,12,13.2,4.9,1.2,9.9-.4,13.5-4.2.8-.9,2.1-1,3-.3.4.3.7.6.8.8.6,1.1.5,2.1-.5,3.1-6.4,6.1-13.5,7.5-21.4,4.1-1-.4-1.6,0-1.8,1-1.7,9.1.4,16.3,6.3,21.6,3.6,3.2,7.2,3.8,12.1,3.4,2.4-.2,4.9-2.1,7.3-3.2,1.1-.5,2.4,0,2.9,1.3,0,.2.1.5.2.7,0,.7-.2,1.4-.9,2.3-.2.3-.2.6,0,.9,5.1,9.1,16.3,12.8,24.7,6,5.5-4.4,8.4-10.5,8.5-18.2,0-.9,0-36.3,0-106.2,0-4.3-.4-7.5-1.1-9.5-2.5-7-9.1-11.9-16.3-10.4-3.7.8-6.9,3.3-9.5,7.4-.2.3-.1.7.2.8,0,0,.2.1.3.1,3,0,5.5,1,7.7,2.7,1.1.9,1.1,1.8.2,2.8l-.4.4" vector-effect="non-scaling-stroke"/>
    <path class="st5" d="M482.3,253.8v-23.6c0-.2-.2-.4-.4-.4h-4.1c-.3,0-.4.1-.4.4v52.9c0,.3.2.5.5.5h3.8c.4,0,.6-.2.6-.6,0-6.8,0-12.7,0-17.7,0-3.1.3-5.4.9-6.7,4.5-10.1,17.9-7.7,18,4.1,0,6.3,0,13.2,0,20.6,0,.3.1.4.4.4h4.1c.2,0,.3-.2.3-.4h0c0-7.1,0-14.3,0-21.5,0-3.3-.5-5.8-1.5-7.7-4.4-8.4-16.9-8.5-21.7,0,0,.1-.2.2-.4,0,0,0-.1-.1-.1-.2" vector-effect="non-scaling-stroke"/>
    <path class="st5" d="M436.9,266.1c.2,20,25,24.9,32.4,7.2.2-.6,0-.9-.5-1l-3.4-.8c-.4,0-.6,0-.8.4-5.4,13.2-22.7,8.4-22.8-5.8-.1-14.2,17.1-19.3,22.7-6.2.1.4.4.5.8.4l3.4-.9c.6-.1.7-.5.5-1-7.7-17.6-32.4-12.2-32.3,7.7" vector-effect="non-scaling-stroke"/>
    <path class="st5" d="M519.8,267.5h25.5c.3,0,.5-.2.5-.5,1-11.4-6.2-20.6-17.3-19.1-16.7,2.3-19.3,27.7-4.2,34.7,8,3.7,17.3.8,20.9-8,.3-.8.1-1.4-.7-1.6l-2.7-.7c-.4-.1-.7,0-.9.5-1.2,3.8-4.5,6.3-8.4,6.5-7.2.5-11.7-3.2-13.5-11,0-.4.1-.8.5-.9,0,0,.1,0,.2,0" vector-effect="non-scaling-stroke"/>
    <path class="st5" d="M569.2,266c0,20,24.8,25.1,32.3,7.4.2-.6,0-.9-.5-1l-3.4-.9c-.4,0-.6,0-.8.4-5.5,13.2-22.7,8.3-22.8-5.9,0-14.2,17.2-19.2,22.7-6,.1.4.4.5.8.4l3.4-.9c.6-.1.7-.5.5-1-7.6-17.6-32.4-12.4-32.3,7.5" vector-effect="non-scaling-stroke"/>
    <path class="st5" d="M629.6,278.5l.5,4.8c0,.2.1.3.3.3h4.1c.2,0,.3-.1.3-.3-.4-7-.5-13.7-.4-20.3,0-3.3-.1-5.5-.5-6.7-2.3-6.7-7.3-9.1-13.9-8.5-6.1.6-10.2,3.9-12.2,10.1,0,.2,0,.3.2.3l4.3,1c.1,0,.2,0,.3-.2,2.3-6.3,6.5-8.3,12.8-6,4.4,1.6,4.3,5.9,4.3,9.6,0,.4-.2.6-.5.5-7-.2-21-1.5-21.6,9.4-.3,6.4,3.5,10.5,9.3,11.3,4.9.7,9-1.2,12.5-5.6.2-.3.3-.2.4,0" vector-effect="non-scaling-stroke"/>
    <path class="st2" d="M1036.4-16.4c.9.2,1.3.8,1.5,1.9.1,1.2.3,2.5.4,3.7" vector-effect="non-scaling-stroke"/>
    <path class="st2" d="M1038.3,375.3c-.5,3.3-1.8,5.6-4,6.9-1.3.8-3.6,1.2-6.8,1.2-90.4,0-180.8,0-271.2-.1-.2,0-.5,0-.7,0" vector-effect="non-scaling-stroke"/>
    <path class="st2" d="M678.6,283.6c7.8,2,15.6-1.3,18.6-9.4.2-.4,0-.9-.4-1,0,0,0,0-.1,0l-3.2-.8c-.4,0-.6,0-.7.4-1.6,5.5-6.2,6.9-11.4,6.5-5.6-.4-9.7-5.4-10.3-11.3,0-.4.1-.6.5-.6h25.7c.3,0,.5-.2.5-.5.6-10-4.4-18.7-14.5-19.2-11.8-.5-19.1,10.9-16.6,22.8" vector-effect="non-scaling-stroke"/>
    <path class="st2" d="M650,283.5c0-4.8,0-9.7,0-14.5,0-5.1.5-8.6,1.5-10.5,2-3.8,5.4-5.5,10.2-5.2.2,0,.4-.2.4-.4,0,0,0,0,0,0v-4.4c0-.4-.2-.6-.6-.6-4.7-.3-8.3,1.7-10.8,5.9-.6.9-.8.8-.8-.3v-4.7c0-.2-.1-.4-.3-.4h-4.2c-.2,0-.3.1-.3.3v7.8" vector-effect="non-scaling-stroke"/>
    <path class="st6" d="M583.2,114.3c-.5-5.3-2.4-9.8-5.7-13.6" vector-effect="non-scaling-stroke"/>
    <path class="st1" d="M490,92.8c1.3-3.1,5.3-4.6,8.4-4.9,1.1,0,1.8-.7,2.1-1.9.1-.5.2-.7.1-.8-.4-1.4-1.1-2.1-2.3-2.1-5.9.2-10.3,3.1-13.1,8.6-.5,1-.3,2.3.5,3.1l.2.2c1,1,2,1,2.9-.2.5-.7,1-1.4,1.2-2" vector-effect="non-scaling-stroke"/>
    <path class="st1" d="M486.1,121.5c2.5-2.1,6.6-1.5,9.4-.2,1,.5,1.9.3,2.7-.7.3-.4.4-.6.5-.6.3-1.4,0-2.4-1.1-3-5.3-2.7-10.3-2.3-15.1,1.2-.9.7-1.3,1.9-.9,2.9v.2c.6,1.4,1.5,1.8,2.7,1.2.8-.3,1.4-.7,1.9-1.1" vector-effect="non-scaling-stroke"/>
    <path class="st1" d="M460.9,125.4c2.9,1.7,4.2,6.1,4.2,9.6,0,1.3.6,2.1,1.7,2.5.5.1.7.2.8.2,1.4-.3,2.1-1.1,2.2-2.4.2-6.6-2.3-11.6-7.6-15-1-.6-2.2-.5-3,.3l-.2.2c-1.1,1.1-1.1,2.2,0,3.2.6.6,1.3,1.1,1.9,1.5" vector-effect="non-scaling-stroke"/>
    <path class="st1" d="M501,152.1c-3.8-2.9-4.8-5.1-5.1-10,0-1.3-1-2.4-2.3-2.6,0,0,0,0,0,0-1.4-.2-2.2.4-2.3,2-.4,4.7.9,8.9,4,12.5,1,1.2,2.2,1.9,3.7,2.2,1.1.2,2.1-.6,2.3-1.8,0-.1,0-.2,0-.3v-1.2c0-.3-.1-.5-.3-.6" vector-effect="non-scaling-stroke"/>
    <path class="st1" d="M477.1,162.9c-.2.7-.3,1.5-.3,2.5,0,1.6.7,2.3,2.2,2.3h.3c1.1,0,2.1-.9,2.3-2.1,1.3-6.5-.4-11.9-5-16.4-.9-.9-2-.9-3.2,0,0,0-.2.3-.4.8-.6,1.1-.4,2.2.5,3.1,2.3,2.4,4.5,6.5,3.6,10" vector-effect="non-scaling-stroke"/>
    <path class="st1" d="M489.2,188.5c-.2.7-.3,1.5-.3,2.5,0,1.6.7,2.3,2.2,2.2h.3c1.1,0,2.1-.9,2.3-2.1,1.2-6.4-.4-11.8-5-16.2-.9-.9-2-.9-3.1,0,0,0-.2.3-.4.7-.5,1.1-.4,2.1.5,3,2.3,2.4,4.5,6.4,3.6,9.8" vector-effect="non-scaling-stroke"/>
    <path class="st1" d="M537.9,92.4c.3.6.7,1.3,1.2,2,.9,1.1,1.9,1.2,2.9.2l.2-.2c.8-.8,1-2,.4-3.1-2.8-5.5-7.1-8.3-13-8.5-1.2,0-1.9.7-2.3,2.1,0,0,0,.3.1.8.3,1.2,1,1.8,2.1,1.9,3,.2,7,1.7,8.3,4.8" vector-effect="non-scaling-stroke"/>
    <path class="st1" d="M541.9,121.6c.5.4,1.2.8,1.9,1.1,1.3.6,2.2.1,2.6-1.3v-.2c.4-1.1,0-2.3-.9-2.9-4.9-3.5-9.9-3.8-15.2-1-1.1.6-1.4,1.5-1.1,3,0,0,.2.3.5.6.7.9,1.6,1.1,2.7.6,2.8-1.3,6.9-2,9.5.1" vector-effect="non-scaling-stroke"/>
    <path class="st1" d="M567.4,125.2c.6-.3,1.2-.8,1.8-1.5,1.1-1.1,1.1-2.1,0-3.2l-.2-.2c-.8-.8-2-1-3-.3-5.2,3.5-7.7,8.5-7.5,15,0,1.3.8,2.1,2.2,2.4,0,0,.3,0,.8-.2,1.1-.4,1.7-1.2,1.7-2.5,0-3.4,1.2-7.9,4.2-9.6" vector-effect="non-scaling-stroke"/>
    <path class="st1" d="M529,151.2c-.6.3-1.1.8-1.7,1.5-1,1-.9,2,.1,3l.2.2c.8.7,1.9.8,2.8.2,4.7-3.4,6.9-8.1,6.5-14.2,0-1.2-.8-1.9-2.1-2.2,0,0-.3,0-.7.2-1.1.4-1.6,1.2-1.5,2.3,0,3.2-.9,7.4-3.6,9.1" vector-effect="non-scaling-stroke"/>
    <path class="st1" d="M551.1,163.2c-.9-3.4,1.3-7.5,3.6-9.8.9-.9,1-1.9.5-3-.2-.5-.3-.7-.4-.7-1.2-.9-2.2-.9-3.2,0-4.6,4.4-6.3,9.8-5.1,16.2.2,1.2,1.2,2.1,2.3,2.1h.3c1.5,0,2.2-.7,2.2-2.2,0-.9,0-1.8-.3-2.5" vector-effect="non-scaling-stroke"/>
    <path class="st1" d="M539.1,189c-.9-3.4,1.3-7.4,3.6-9.8.9-.9,1-1.9.5-3-.2-.5-.4-.7-.4-.7-1.2-.9-2.2-.9-3.1,0-4.6,4.4-6.2,9.8-5,16.2.2,1.2,1.2,2.1,2.3,2.1h.3c1.5,0,2.2-.7,2.2-2.2,0-.9,0-1.8-.3-2.5" vector-effect="non-scaling-stroke"/>
    <path class="st5" d="M347,279.6c6.5,0,11.8-6.2,11.7-13.8h0c0-7.6-5.4-13.7-11.9-13.6-6.5,0-11.8,6.2-11.7,13.8h0c0,7.6,5.4,13.7,11.9,13.6" vector-effect="non-scaling-stroke"/>
    <path class="st5" d="M519.3,262.4c-.1.5,0,.7.5.7h20.8c.4,0,.5-.2.5-.6-.5-4.3-2.3-7.3-5.4-9-7.3-4.1-14.4,1.1-16.4,8.9" vector-effect="non-scaling-stroke"/>
    <path class="st5" d="M620.1,279.5c6-.4,9.9-5,9.5-11.4,0-.4-.2-.6-.6-.6-3.3,0-6.5,0-9.7,0-9.8.3-8.9,12.7.8,11.9" vector-effect="non-scaling-stroke"/>
    <path class="st2" d="M671.8,263.1h20.9c0-.1.1-.2.1-.3h0c0-6-4.7-10.7-10.5-10.7,0,0,0,0,0,0h-.2c-5.8,0-10.5,4.8-10.4,10.7h0c0,.2,0,.3.1.3h0" vector-effect="non-scaling-stroke"/>
  </g>
  <path class="st7" d="M351.3-16.4c.9.8,1.7,1.5,2.6,2.3,3.9,3.4,5.8,8,6,13.4.4,10.4.4,19.9,2.3,29.5,3.2,16.4,5.1,26.7,5.6,30.9,2.7,23,4.6,38,5.8,44.8,3.8,22,8.5,43.9,14,65.7,3.9,15.3,8.9,31,14.7,42.5,5.6,11.2,11.3,22.6,17,34.2,1.1,2.3,3,4.6,5.8,7.1l-8.8,20.8c0,0-.1.1-.2.1,0,0,0,0,0,0l-12.1-26.4c0-.1-.1-.2-.3-.2h-5c0,0-.1,0-.1.1,0,0,0,0,0,0l14.7,32.1c.1.3.2.7,0,1l-8,18.6c-.1.3,0,.6.2.7,0,0,.1,0,.2,0h3.8c.5,0,.9-.3,1.1-.8l3-7.1c10.2,17.7,19.8,35.5,28.9,53.5,4.2,8.4,7.7,14.6,10.3,18.6,6.2,9.2,13.9,14.1,23.9,18,0,0-.1,0-.2.1,0,0-.1,0-.2,0-159,0-318,0-477,0-3.5,0-6-1.5-7.7-4.4V-16.4h359.6ZM335.1,254.8v-5.9c0-.3-.2-.6-.5-.6h-3.9c-.2,0-.4.2-.4.5h0v51.7c0,.2.2.4.4.4h4.1c.2,0,.3-.1.3-.3v-22.9c0-1.1.3-1.1.8-.3,5,8,15.7,9,22.1,2.4,3.2-3.3,5-7.3,5.4-11.9.8-10.2-6-21.1-16.3-20-5,.5-8.7,2.9-11.3,7.2-.5.9-.8.8-.8-.2ZM378.8,262.3c-2.9-1.1-5.2-4.2-2.8-7.2,4-5,10.9-3.4,12.8,2.9,0,.3.4.5.7.4l3.5-1.1c.3-.1.5-.4.4-.8-1.2-4.1-3.6-6.8-7.4-8-5.8-1.8-14.7.4-15.5,8-.5,4.4.8,7.5,4,9.4,2.9,1.7,7.3,2.1,10.2,3,5.2,1.6,6.4,8,.7,10-3.1,1.1-5.9.7-8.5-1.3-1.4-1-1.9-2.7-2.6-4.2-.4-.8-1-1-1.8-.8l-1.7.5c-.9.3-1.3,1-.9,1.9,1.9,5.5,5.4,8.4,10.6,8.9,4.3.4,7.9-.8,10.8-3.6,3.4-3.3,3.7-9.6.2-13.2-3.6-3.7-9.5-3.8-12.5-5Z"/>
  <path class="st7" d="M566.9-16.4c3.6,12.6,3.7,21.4,4.1,36.3.4,15.7,4.4,28.2,9.4,49.7,2.5,10.9,1.5,21.2-3,31-1.9-2.1-4.4-3.6-7.3-4.7-.7-.2-1.5.2-1.7.9-2.2,6.7-6.7,11.4-13.7,14-1.4.5-2.5.1-3.5-1.2h0c-.9-1.4-.7-2.4.7-3.1.6-.3,1.7-.9,3.4-1.7,5.7-2.8,9-8.2,9.2-14.9.2-9.1-4.1-15.1-12.7-18-1.6-.5-6-.3-8,.7-1.3.6-2.3,1.1-3.1,1.4-1.1.5-1.8,0-2.2-1.1l-.3-1.2c-.3-1,.3-2.1,1.2-2.4l7.3-2.3c.2,0,.3-.3.3-.6,0,0,0,0,0-.1-1.4-2.3-3.2-4.2-5.4-5.6-2.1-1.4-4.5-2-7.1-1.9-8.7.4-14.2,8.5-14.3,17.6,0,38.3,0,74.1,0,107.3,0,4.2.3,7.3,1,9.4,2.5,7.7,8.6,13.5,16.4,14,6.2.4,11.4-2.6,15.7-9.2.3-.5.2-1.1-.2-1.5-.2-.2-.4-.5-.6-1.1-.1-.4-.1-.7,0-1.1.8-2.4,2.6-2.1,4.3-.9,8,5.4,17.7,2.3,22.4-6.1,3-5.4,3.6-11.3,1.8-17.7,0-.3-.3-.4-.6-.3-7.7,3.8-14.9,2.7-21.8-3.3-1.4-1.3-1.6-2.5-.6-3.6l.2-.3c1-1.2,2.1-1.2,3.2-.2,6.1,5.5,13.8,6.2,19.9.7,8.5-7.6,7.9-20.8,1-29.4-.2-.3-.5-.3-.8,0l-4.5,3.9c-1.2,1-2.2.9-3.1-.4,0-.1-.1-.2-.2-.3-.8-1.4-.5-2.6.7-3.5,5.7-4.3,8.6-10.5,8.7-18.6,2.5,7.4,4.9,14.7,7.2,22.1,2.3,7.6,7.5,14.4,11.7,21,2.5,3.9,4.6,9.2,6.4,16.2.7,2.8,2,8,3.8,15.8,2.5,11,6.7,21.6,12.4,31.7,6.7,11.8,13.4,23.6,20.2,35.4v26.4c0,.4.2.6.5.7,1.4.3,2.9.3,4.5,0l.2-8.2c0-.4.2-.6.5-.8,5-2.5,10.4-3.8,16-3.8,1.7,6.6,5.7,10.9,11.9,13-.7,9.2,1.1,17.3,5.3,24.3,5.6,9.3,13.2,16.9,22.4,25.7,13,12.3,25.4,24.9,37.3,37.8,3.9,4.2,7.7,7.9,11.7,11.7h-278.7c-10-3.9-17.7-8.8-23.9-18-2.7-4-6.1-10.2-10.3-18.6-9.1-18-18.7-35.9-28.9-53.5l19.1-44.5c0-.2,0-.2-.1-.2h-4.7c-.2,0-.3,0-.4.3l-2.3,5.4c-2.8-2.5-4.7-4.8-5.8-7.1-5.7-11.6-11.3-23-17-34.2-5.8-11.5-10.8-27.3-14.7-42.5-5.5-21.7-10.2-43.6-14-65.7-1.2-6.9-3.1-21.8-5.8-44.8-.5-4.2-2.3-14.5-5.6-30.9-1.9-9.6-1.8-19.1-2.3-29.5-.2-5.4-2.1-10-6-13.4-.9-.8-1.8-1.5-2.6-2.3h215.6ZM489.4,73.5c-.8.9-1.8,1-2.8.4-2.9-1.7-5.7-2.3-8.3-1.9-5.9.8-10.2,4-12.8,9.5-3.8,8.1-1.5,16.9,5.1,22.3,1.4,1.1,3.5,1.9,5.5,2.8,1.3.6,1.6,1.6,1.1,2.9v.4c-.7,1.3-1.6,1.8-2.8,1.4-7.1-2.3-12-7.3-14.6-14.9-.1-.3-.5-.5-.8-.4-7.1,2.3-11.7,8-13.2,15.8-1.2,6.2.3,12.1,4.4,17.5.5.7,1.9,2.1,4.1,4.1.8.7.8,2.1.2,3.4l-.4.3c-1.2.9-2.4.8-3.5-.2l-4-3.6c-.3-.2-.5-.2-.8,0-4.2,4.9-6.3,12.6-4.4,19.3,1.9,6.6,5.6,11.6,12,13.2,4.9,1.2,9.9-.4,13.5-4.2.8-.9,2.1-1,3-.3.4.3.7.6.8.8.6,1.1.5,2.1-.5,3.1-6.4,6.1-13.5,7.5-21.4,4.1-1-.4-1.6,0-1.8,1-1.7,9.1.4,16.3,6.3,21.6,3.6,3.2,7.2,3.8,12.1,3.4,2.4-.2,4.9-2.1,7.3-3.2,1.1-.5,2.4,0,2.9,1.3,0,.2.1.5.2.7,0,.7-.2,1.4-.9,2.3-.2.3-.2.6,0,.9,5.1,9.1,16.3,12.8,24.7,6,5.5-4.4,8.4-10.5,8.5-18.2,0-.9,0-36.3,0-106.2,0-4.3-.4-7.5-1.1-9.5-2.5-7-9.1-11.9-16.3-10.4-3.7.8-6.9,3.3-9.5,7.4-.2.3-.1.7.2.8,0,0,.2.1.3.1,3,0,5.5,1,7.7,2.7,1.1.9,1.1,1.8.2,2.8l-.4.4ZM482.3,253.8v-23.6c0-.2-.2-.4-.4-.4h-4.1c-.3,0-.4.1-.4.4v52.9c0,.3.2.5.5.5h3.8c.4,0,.6-.2.6-.6,0-6.8,0-12.7,0-17.7,0-3.1.3-5.4.9-6.7,4.5-10.1,17.9-7.7,18,4.1,0,6.3,0,13.2,0,20.6,0,.3.1.4.4.4h4.1c.2,0,.3-.2.3-.4h0c0-7.1,0-14.3,0-21.5,0-3.3-.5-5.8-1.5-7.7-4.4-8.4-16.9-8.5-21.7,0,0,.1-.2.2-.4,0,0,0-.1-.1-.1-.2ZM436.9,266.1c.2,20,25,24.9,32.4,7.2.2-.6,0-.9-.5-1l-3.4-.8c-.4,0-.6,0-.8.4-5.4,13.2-22.7,8.4-22.8-5.8-.1-14.2,17.1-19.3,22.7-6.2.1.4.4.5.8.4l3.4-.9c.6-.1.7-.5.5-1-7.7-17.6-32.4-12.2-32.3,7.7ZM519.8,267.5h25.5c.3,0,.5-.2.5-.5,1-11.4-6.2-20.6-17.3-19.1-16.7,2.3-19.3,27.7-4.2,34.7,8,3.7,17.3.8,20.9-8,.3-.8.1-1.4-.7-1.6l-2.7-.7c-.4-.1-.7,0-.9.5-1.2,3.8-4.5,6.3-8.4,6.5-7.2.5-11.7-3.2-13.5-11,0-.4.1-.8.5-.9,0,0,.1,0,.2,0ZM569.2,266c0,20,24.8,25.1,32.3,7.4.2-.6,0-.9-.5-1l-3.4-.9c-.4,0-.6,0-.8.4-5.5,13.2-22.7,8.3-22.8-5.9,0-14.2,17.2-19.2,22.7-6,.1.4.4.5.8.4l3.4-.9c.6-.1.7-.5.5-1-7.6-17.6-32.4-12.4-32.3,7.5ZM629.6,278.5l.5,4.8c0,.2.1.3.3.3h4.1c.2,0,.3-.1.3-.3-.4-7-.5-13.7-.4-20.3,0-3.3-.1-5.5-.5-6.7-2.3-6.7-7.3-9.1-13.9-8.5-6.1.6-10.2,3.9-12.2,10.1,0,.2,0,.3.2.3l4.3,1c.1,0,.2,0,.3-.2,2.3-6.3,6.5-8.3,12.8-6,4.4,1.6,4.3,5.9,4.3,9.6,0,.4-.2.6-.5.5-7-.2-21-1.5-21.6,9.4-.3,6.4,3.5,10.5,9.3,11.3,4.9.7,9-1.2,12.5-5.6.2-.3.3-.2.4,0Z"/>
  <path class="st7" d="M1036.4-16.4c.9.2,1.3.8,1.5,1.9.1,1.2.3,2.5.4,3.7v386c-.5,3.3-1.8,5.6-4,6.9-1.3.8-3.6,1.2-6.8,1.2-90.4,0-180.8,0-271.2-.1-.2,0-.5,0-.7,0-4-3.8-7.8-7.5-11.7-11.7-11.9-12.9-24.3-25.5-37.3-37.8-9.3-8.8-16.8-16.4-22.4-25.7-4.2-6.9-6-15-5.3-24.3,7.8,2,15.6-1.3,18.6-9.4.2-.4,0-.9-.4-1,0,0,0,0-.1,0l-3.2-.8c-.4,0-.6,0-.7.4-1.6,5.5-6.2,6.9-11.4,6.5-5.6-.4-9.7-5.4-10.3-11.3,0-.4.1-.6.5-.6h25.7c.3,0,.5-.2.5-.5.6-10-4.4-18.7-14.5-19.2-11.8-.5-19.1,10.9-16.6,22.8-5.6,0-11,1.3-16,3.8-.3.2-.5.4-.5.8l-.2,8.2c0-4.8,0-9.7,0-14.5,0-5.1.5-8.6,1.5-10.5,2-3.8,5.4-5.5,10.2-5.2.2,0,.4-.2.4-.4,0,0,0,0,0,0v-4.4c0-.4-.2-.6-.6-.6-4.7-.3-8.3,1.7-10.8,5.9-.6.9-.8.8-.8-.3v-4.7c0-.2-.1-.4-.3-.4h-4.2c-.2,0-.3.1-.3.3v7.8c-6.8-11.8-13.6-23.6-20.3-35.4-5.7-10.1-9.9-20.6-12.4-31.7-1.8-7.8-3-13-3.8-15.8-1.8-6.9-4-12.3-6.4-16.2-4.2-6.6-9.4-13.4-11.7-21-2.3-7.4-4.7-14.8-7.2-22.1-.5-5.3-2.4-9.8-5.7-13.6,4.5-9.8,5.5-20.2,3-31-5-21.5-9-34-9.4-49.7-.4-14.9-.6-23.7-4.1-36.3h469.4Z"/>
  <path class="st9" d="M1038.3-16.4v5.6c-.1-1.3-.3-2.5-.4-3.7-.1-1-.6-1.7-1.5-1.9h1.9Z"/>
  <path class="st10" d="M489.4,73.5l.4-.4c1-1,.9-2-.2-2.8-2.2-1.8-4.7-2.7-7.7-2.7-.3,0-.6-.3-.6-.6,0-.1,0-.2,0-.3,2.6-4.1,5.7-6.6,9.5-7.4,7.1-1.5,13.7,3.4,16.3,10.4.7,2,1.1,5.2,1.1,9.5,0,69.9,0,105.3,0,106.2-.1,7.7-2.9,13.8-8.5,18.2-8.4,6.8-19.6,3-24.7-6-.2-.3-.1-.7,0-.9.7-.8,1-1.6.9-2.3-.1-1.3-1.2-2.3-2.5-2.1-.2,0-.4,0-.6.2-2.4,1.1-4.9,3.1-7.3,3.2-4.9.3-8.5-.2-12.1-3.4-5.9-5.3-8-12.5-6.3-21.6.2-1.1.8-1.4,1.8-1,7.8,3.3,14.9,2,21.4-4.1,1-.9,1.2-2,.5-3.1-.1-.2-.4-.4-.8-.8-.9-.7-2.2-.6-3,.3-3.6,3.8-8.6,5.4-13.5,4.2-6.4-1.6-10.1-6.6-12-13.2-1.9-6.7.2-14.4,4.4-19.3.3-.3.5-.3.8,0l4,3.6c1.1,1,2.3,1.1,3.5.2l.4-.3c.7-1.3.6-2.7-.2-3.4-2.3-2.1-3.6-3.5-4.1-4.1-4.1-5.5-5.6-11.3-4.4-17.5,1.4-7.8,6.1-13.5,13.2-15.8.3-.1.7,0,.8.4,2.7,7.6,7.5,12.5,14.6,14.9,1.3.4,2.2,0,2.7-1.4v-.4c.7-1.4.3-2.3-1-2.9-2-.9-4.1-1.7-5.5-2.8-6.6-5.4-9-14.2-5.1-22.3,2.6-5.5,6.9-8.6,12.8-9.5,2.7-.4,5.5.3,8.3,1.9,1,.6,2,.4,2.8-.4ZM490,92.8c1.3-3.1,5.3-4.6,8.4-4.9,1.1,0,1.8-.7,2.1-1.9.1-.5.2-.7.1-.8-.4-1.4-1.1-2.1-2.3-2.1-5.9.2-10.3,3.1-13.1,8.6-.5,1-.3,2.3.5,3.1l.2.2c1,1,2,1,2.9-.2.5-.7,1-1.4,1.2-2ZM486.1,121.5c2.5-2.1,6.6-1.5,9.4-.2,1,.5,1.9.3,2.7-.7.3-.4.4-.6.5-.6.3-1.4,0-2.4-1.1-3-5.3-2.7-10.3-2.3-15.1,1.2-.9.7-1.3,1.9-.9,2.9v.2c.6,1.4,1.5,1.8,2.7,1.2.8-.3,1.4-.7,1.9-1.1ZM460.9,125.4c2.9,1.7,4.2,6.1,4.2,9.6,0,1.3.6,2.1,1.7,2.5.5.1.7.2.8.2,1.4-.3,2.1-1.1,2.2-2.4.2-6.6-2.3-11.6-7.6-15-1-.6-2.2-.5-3,.3l-.2.2c-1.1,1.1-1.1,2.2,0,3.2.6.6,1.3,1.1,1.9,1.5ZM501,152.1c-3.8-2.9-4.8-5.1-5.1-10,0-1.3-1-2.4-2.3-2.6,0,0,0,0,0,0-1.4-.2-2.2.4-2.3,2-.4,4.7.9,8.9,4,12.5,1,1.2,2.2,1.9,3.7,2.2,1.1.2,2.1-.6,2.3-1.8,0-.1,0-.2,0-.3v-1.2c0-.3-.1-.5-.3-.6ZM477.1,162.9c-.2.7-.3,1.5-.3,2.5,0,1.6.7,2.3,2.2,2.3h.3c1.1,0,2.1-.9,2.3-2.1,1.3-6.5-.4-11.9-5-16.4-.9-.9-2-.9-3.2,0,0,0-.2.3-.4.8-.6,1.1-.4,2.2.5,3.1,2.3,2.4,4.5,6.5,3.6,10ZM489.2,188.5c-.2.7-.3,1.5-.3,2.5,0,1.6.7,2.3,2.2,2.2h.3c1.1,0,2.1-.9,2.3-2.1,1.2-6.4-.4-11.8-5-16.2-.9-.9-2-.9-3.1,0,0,0-.2.3-.4.7-.5,1.1-.4,2.1.5,3,2.3,2.4,4.5,6.4,3.6,9.8Z"/>
  <path class="st10" d="M577.5,100.7c3.3,3.8,5.2,8.3,5.7,13.6,0,8.1-3,14.3-8.7,18.6-1.3,1-1.5,2.1-.7,3.5,0,0,0,.1.2.3.8,1.3,1.9,1.5,3.1.4l4.5-3.9c.3-.2.5-.2.8,0,6.9,8.5,7.5,21.7-1,29.4-6.1,5.5-13.8,4.8-19.9-.7-1.1-1-2.2-.9-3.2.2l-.2.3c-1,1.2-.8,2.4.6,3.6,6.8,6,14.1,7,21.8,3.3.3-.1.5,0,.6.3,1.8,6.4,1.2,12.2-1.8,17.7-4.7,8.4-14.3,11.5-22.4,6.1-1.7-1.2-3.5-1.5-4.3.9-.1.4-.1.8,0,1.1.2.6.4.9.6,1.1.4.4.5,1,.2,1.5-4.3,6.5-9.5,9.6-15.7,9.2-7.8-.5-13.8-6.3-16.4-14-.7-2.1-1-5.3-1-9.4,0-33.2,0-69,0-107.3,0-9,5.5-17.2,14.3-17.6,2.6-.1,5,.5,7.1,1.9,2.2,1.4,4.1,3.3,5.4,5.6.1.2,0,.5-.1.6,0,0,0,0-.1,0l-7.3,2.3c-1,.3-1.5,1.4-1.2,2.4l.3,1.2c.3,1.2,1.1,1.6,2.2,1.1.8-.3,1.8-.8,3.1-1.4,1.9-.9,6.4-1.2,8-.7,8.6,2.9,12.9,8.9,12.7,18-.1,6.7-3.5,12-9.2,14.9-1.6.8-2.8,1.4-3.4,1.7-1.4.7-1.6,1.7-.7,3.1h0c.9,1.4,2.1,1.8,3.5,1.3,7-2.6,11.6-7.3,13.7-14,.2-.7,1-1.2,1.7-.9,2.9,1,5.4,2.6,7.3,4.7ZM537.9,92.4c.3.6.7,1.3,1.2,2,.9,1.1,1.9,1.2,2.9.2l.2-.2c.8-.8,1-2,.4-3.1-2.8-5.5-7.1-8.3-13-8.5-1.2,0-1.9.7-2.3,2.1,0,0,0,.3.1.8.3,1.2,1,1.8,2.1,1.9,3,.2,7,1.7,8.3,4.8ZM541.9,121.6c.5.4,1.2.8,1.9,1.1,1.3.6,2.2.1,2.6-1.3v-.2c.4-1.1,0-2.3-.9-2.9-4.9-3.5-9.9-3.8-15.2-1-1.1.6-1.4,1.5-1.1,3,0,0,.2.3.5.6.7.9,1.6,1.1,2.7.6,2.8-1.3,6.9-2,9.5.1ZM567.4,125.2c.6-.3,1.2-.8,1.8-1.5,1.1-1.1,1.1-2.1,0-3.2l-.2-.2c-.8-.8-2-1-3-.3-5.2,3.5-7.7,8.5-7.5,15,0,1.3.8,2.1,2.2,2.4,0,0,.3,0,.8-.2,1.1-.4,1.7-1.2,1.7-2.5,0-3.4,1.2-7.9,4.2-9.6ZM529,151.2c-.6.3-1.1.8-1.7,1.5-1,1-.9,2,.1,3l.2.2c.8.7,1.9.8,2.8.2,4.7-3.4,6.9-8.1,6.5-14.2,0-1.2-.8-1.9-2.1-2.2,0,0-.3,0-.7.2-1.1.4-1.6,1.2-1.5,2.3,0,3.2-.9,7.4-3.6,9.1ZM551.1,163.2c-.9-3.4,1.3-7.5,3.6-9.8.9-.9,1-1.9.5-3-.2-.5-.3-.7-.4-.7-1.2-.9-2.2-.9-3.2,0-4.6,4.4-6.3,9.8-5.1,16.2.2,1.2,1.2,2.1,2.3,2.1h.3c1.5,0,2.2-.7,2.2-2.2,0-.9,0-1.8-.3-2.5ZM539.1,189c-.9-3.4,1.3-7.4,3.6-9.8.9-.9,1-1.9.5-3-.2-.5-.4-.7-.4-.7-1.2-.9-2.2-.9-3.1,0-4.6,4.4-6.2,9.8-5,16.2.2,1.2,1.2,2.1,2.3,2.1h.3c1.5,0,2.2-.7,2.2-2.2,0-.9,0-1.8-.3-2.5Z"/>
  <path class="st8" d="M537.9,92.4c-1.3-3.1-5.3-4.5-8.3-4.8-1.1,0-1.8-.7-2.1-1.9-.1-.5-.2-.7-.1-.8.3-1.4,1.1-2.1,2.3-2.1,5.9.2,10.2,3,13,8.5.5,1,.3,2.3-.4,3.1l-.2.2c-1,1-2,1-2.9-.2-.5-.7-1-1.3-1.2-2Z"/>
  <path class="st8" d="M490,92.8c-.3.6-.7,1.3-1.2,2-.9,1.2-1.9,1.2-2.9.2l-.2-.2c-.8-.8-1-2-.5-3.1,2.8-5.5,7.2-8.4,13.1-8.6,1.2,0,2,.7,2.3,2.1,0,0,0,.3-.1.8-.3,1.2-1,1.8-2.1,1.9-3.1.3-7,1.8-8.4,4.9Z"/>
  <path class="st8" d="M486.1,121.5c-.5.4-1.1.8-1.9,1.1-1.3.6-2.2.2-2.6-1.2v-.2c-.5-1.1,0-2.3.8-2.9,4.8-3.5,9.8-3.9,15.1-1.2,1.1.5,1.4,1.5,1.1,3,0,0-.2.3-.5.6-.7.9-1.6,1.1-2.7.7-2.8-1.3-6.9-1.9-9.4.2Z"/>
  <path class="st8" d="M541.9,121.6c-2.5-2.1-6.7-1.4-9.5-.1-1,.5-1.9.3-2.7-.6-.3-.4-.5-.6-.5-.6-.3-1.4,0-2.4,1.1-3,5.3-2.8,10.4-2.4,15.2,1,.9.7,1.3,1.9,1,2.9v.2c-.6,1.4-1.4,1.9-2.7,1.3-.8-.3-1.4-.7-1.9-1.1Z"/>
  <path class="st8" d="M460.9,125.4c-.6-.3-1.2-.8-1.9-1.5-1.1-1.1-1.1-2.1,0-3.2l.2-.2c.8-.8,2-1,3-.3,5.2,3.4,7.7,8.4,7.6,15,0,1.3-.8,2.1-2.2,2.4,0,0-.3,0-.8-.2-1.1-.4-1.7-1.2-1.7-2.5,0-3.4-1.3-7.9-4.2-9.6Z"/>
  <path class="st8" d="M567.4,125.2c-2.9,1.7-4.1,6.2-4.2,9.6,0,1.3-.6,2.1-1.7,2.5-.5.1-.7.2-.8.2-1.4-.3-2.1-1.1-2.2-2.4-.2-6.6,2.3-11.6,7.5-15,1-.6,2.2-.5,3,.3l.2.2c1.1,1.1,1.1,2.2,0,3.2-.6.6-1.3,1.1-1.8,1.5Z"/>
  <path class="st8" d="M496,142c.2,5,1.3,7.1,5.1,10,.2.1.3.4.3.6v1.2c0,1.2-.9,2.2-2,2.2-.1,0-.2,0-.3,0-1.4-.2-2.6-1-3.7-2.2-3.1-3.6-4.4-7.8-4-12.5.1-1.5.9-2.2,2.3-2,0,0,0,0,0,0,1.3.2,2.2,1.3,2.3,2.6Z"/>
  <path class="st8" d="M529,151.2c2.7-1.7,3.7-5.9,3.6-9.1,0-1.2.5-2,1.5-2.3.4-.2.7-.2.7-.2,1.3.2,2,1,2.1,2.2.4,6.1-1.8,10.9-6.5,14.2-.9.6-2.1.6-2.8-.2l-.2-.2c-1-1-1.1-2-.1-3,.6-.6,1.1-1.1,1.7-1.5Z"/>
  <path class="st8" d="M477.1,162.9c.9-3.5-1.3-7.5-3.6-10-.9-.9-1-1.9-.5-3.1.2-.5.4-.7.4-.8,1.2-.9,2.3-.9,3.2,0,4.6,4.5,6.3,9.9,5,16.4-.2,1.2-1.2,2.1-2.3,2.1h-.3c-1.5,0-2.2-.7-2.2-2.3,0-1,.1-1.8.3-2.5Z"/>
  <path class="st8" d="M551.1,163.2c.2.7.3,1.5.3,2.5,0,1.6-.7,2.3-2.2,2.2h-.3c-1.1,0-2.1-.9-2.3-2.1-1.2-6.4.5-11.8,5.1-16.2.9-.9,2-.9,3.2,0,0,0,.2.3.4.7.5,1.1.4,2.1-.5,3-2.3,2.4-4.5,6.4-3.6,9.8Z"/>
  <path class="st8" d="M489.2,188.5c.9-3.4-1.3-7.5-3.6-9.8-.9-.9-1-1.9-.5-3,.2-.5.3-.7.4-.7,1.2-.9,2.2-.9,3.1,0,4.6,4.4,6.3,9.8,5,16.2-.2,1.2-1.2,2.1-2.3,2.1h-.3c-1.5,0-2.2-.7-2.2-2.2,0-.9,0-1.8.3-2.5Z"/>
  <path class="st8" d="M539.1,189c.2.7.3,1.5.3,2.5,0,1.5-.7,2.3-2.2,2.2h-.3c-1.1,0-2-.9-2.3-2.1-1.3-6.4.4-11.8,5-16.2.9-.9,2-.9,3.1,0,0,0,.2.3.4.7.5,1.1.4,2.1-.5,3-2.3,2.4-4.5,6.4-3.6,9.8Z"/>
  <path class="st9" d="M482.3,253.8c0,.2.1.3.3.3,0,0,.2,0,.2-.1,4.9-8.4,17.3-8.3,21.7,0,1,1.9,1.5,4.4,1.5,7.7,0,7.2,0,14.4,0,21.5,0,.2-.2.4-.3.4h-4.1c-.2,0-.4-.1-.4-.4,0-7.4,0-14.3,0-20.6-.1-11.9-13.5-14.2-18-4.1-.6,1.4-.9,3.6-.9,6.7,0,5,0,10.9,0,17.7,0,.4-.2.6-.6.6h-3.8c-.3,0-.5-.2-.5-.5v-52.9c0-.3.1-.4.4-.4h4.1c.2,0,.4.2.4.4v23.6Z"/>
  <path class="st9" d="M335.1,254.8c0,1,.3,1.1.8.2,2.5-4.3,6.3-6.7,11.3-7.2,10.4-1,17.2,9.9,16.3,20-.4,4.7-2.2,8.7-5.4,11.9-6.4,6.5-17.1,5.6-22.1-2.4-.5-.9-.8-.8-.8.3v22.9c0,.2-.1.3-.3.3h-4.1c-.2,0-.4-.2-.4-.4v-51.7c0-.3.2-.5.4-.5h3.9c.3,0,.5.2.5.6h0v5.9ZM347,279.6c6.5,0,11.8-6.2,11.7-13.8h0c0-7.6-5.4-13.7-11.9-13.6-6.5,0-11.8,6.2-11.7,13.8h0c0,7.6,5.4,13.7,11.9,13.6Z"/>
  <path class="st9" d="M376,255.1c-2.4,3-.1,6.1,2.8,7.2,3.1,1.2,9,1.4,12.5,5,3.5,3.6,3.3,9.9-.2,13.2-2.9,2.8-6.4,4-10.8,3.6-5.2-.5-8.7-3.4-10.6-8.9-.3-1,0-1.6.9-1.9l1.7-.5c.8-.3,1.4,0,1.8.8.7,1.5,1.2,3.1,2.6,4.2,2.6,2,5.4,2.4,8.5,1.3,5.6-2,4.4-8.4-.7-10-2.8-.9-7.3-1.3-10.2-3-3.1-1.9-4.4-5-4-9.4.8-7.6,9.7-9.8,15.5-8,3.8,1.2,6.3,3.8,7.4,8,0,.3,0,.7-.4.8l-3.5,1.1c-.3,0-.6,0-.7-.4-1.9-6.3-8.8-7.9-12.8-2.9Z"/>
  <path class="st9" d="M441.9,266.1c.1,14.2,17.4,19,22.8,5.8.1-.4.4-.5.8-.4l3.4.8c.6.1.7.5.5,1-7.4,17.7-32.2,12.8-32.4-7.2-.2-20,24.6-25.3,32.3-7.7.2.5,0,.9-.5,1l-3.4.9c-.4,0-.6,0-.8-.4-5.6-13.1-22.8-8-22.7,6.2Z"/>
  <path class="st9" d="M519.8,267.5c-.4,0-.7.3-.7.7,0,0,0,.1,0,.2,1.8,7.8,6.3,11.5,13.5,11,3.9-.3,7.2-2.7,8.4-6.5.1-.5.4-.6.9-.5l2.7.7c.8.2,1.1.7.7,1.6-3.6,8.8-12.9,11.7-20.9,8-15.2-7-12.6-32.4,4.2-34.7,11.1-1.5,18.3,7.6,17.3,19.1,0,.3-.2.5-.5.5h-25.5ZM519.3,262.4c-.1.5,0,.7.5.7h20.8c.4,0,.5-.2.5-.6-.5-4.3-2.3-7.3-5.4-9-7.3-4.1-14.4,1.1-16.4,8.9Z"/>
  <path class="st9" d="M569.2,266c0-20,24.7-25.1,32.3-7.5.2.6,0,.9-.5,1l-3.4.9c-.4,0-.6,0-.8-.4-5.5-13.2-22.8-8.2-22.7,6,0,14.2,17.3,19.1,22.8,5.9.1-.4.4-.5.8-.4l3.4.9c.6.1.7.5.5,1-7.5,17.6-32.3,12.6-32.3-7.4Z"/>
  <path class="st9" d="M629.3,278.5c-3.4,4.5-7.6,6.3-12.5,5.6-5.8-.9-9.6-4.9-9.3-11.3.6-10.9,14.6-9.6,21.6-9.4.3,0,.5-.2.5-.5,0-3.6.1-7.9-4.3-9.6-6.3-2.3-10.5-.3-12.8,6,0,.1-.2.2-.3.2l-4.3-1c-.2,0-.2-.2-.2-.3,2-6.2,6.1-9.5,12.2-10.1,6.6-.6,11.5,1.8,13.9,8.5.4,1.2.6,3.4.5,6.7-.1,6.6,0,13.3.4,20.3,0,.2,0,.3-.3.3h-4.1c-.2,0-.3,0-.3-.3l-.5-4.8c0-.3-.2-.4-.4,0ZM620.1,279.5c6-.4,9.9-5,9.5-11.4,0-.4-.2-.6-.6-.6-3.3,0-6.5,0-9.7,0-9.8.3-8.9,12.7.8,11.9Z"/>
  <path class="st9" d="M650,283.5c-1.6.3-3,.3-4.5,0-.3,0-.5-.3-.5-.7v-26.4s0-7.8,0-7.8c0-.2.1-.3.3-.3h4.2c.2,0,.3.1.3.4v4.7c0,1.1.3,1.2.8.3,2.5-4.2,6.1-6.1,10.8-5.9.4,0,.6.2.6.6v4.4c0,.2-.2.4-.4.4,0,0,0,0,0,0-4.8-.4-8.2,1.3-10.2,5.2-1,1.9-1.5,5.4-1.5,10.5,0,4.8,0,9.6,0,14.5Z"/>
  <path class="st9" d="M678.6,283.6c-6.3-2.1-10.2-6.4-11.9-13-2.4-11.9,4.9-23.4,16.6-22.8,10.1.5,15.1,9.2,14.5,19.2,0,.3-.2.5-.5.5h-25.7c-.4,0-.5.2-.5.6.5,5.8,4.7,10.8,10.3,11.3,5.2.4,9.7-1.1,11.4-6.5.1-.4.3-.5.7-.4l3.2.8c.4.1.6.5.6,1,0,0,0,0,0,.1-3,8.1-10.9,11.4-18.6,9.4ZM671.8,263.1h20.9c0-.1.1-.2.1-.3h0c0-6-4.7-10.7-10.5-10.7,0,0,0,0,0,0h-.2c-5.8,0-10.5,4.8-10.4,10.7h0c0,.2,0,.3.1.3h0Z"/>
  <path class="st9" d="M425.1,254l2.3-5.4c0-.2.2-.3.4-.3h4.7c.2,0,.2,0,.1.2l-19.1,44.5-3,7.1c-.2.5-.6.8-1.1.8h-3.8c-.3,0-.5-.2-.5-.5,0,0,0-.1,0-.2l8-18.6c.1-.3.1-.7,0-1l-14.7-32.1c0,0,0-.1,0-.2,0,0,0,0,0,0h5c.1,0,.2,0,.3.2l12.1,26.4c0,0,.1.1.2,0,0,0,0,0,0,0l8.8-20.8Z"/>
  <ellipse class="st7" cx="346.9" cy="265.9" rx="11.8" ry="13.7" transform="translate(-1 1.4) rotate(-.2)"/>
  <path class="st7" d="M519.3,262.4c2-7.8,9.1-13,16.4-8.9,3.1,1.7,4.9,4.7,5.4,9,0,.4-.1.6-.5.6h-20.8c-.4,0-.6-.2-.5-.7Z"/>
  <path class="st7" d="M671.8,263.1c0,0-.1,0-.1-.1h0c0-6,4.6-10.8,10.4-10.8h.2c5.8,0,10.5,4.7,10.5,10.6h0s0,.1,0,.1c0,0,0,.1-.1.1h-20.9Z"/>
  <path class="st7" d="M629.6,268.1c.4,6.4-3.5,10.9-9.5,11.4-9.8.7-10.6-11.6-.8-11.9,3.2-.1,6.5-.1,9.7,0,.4,0,.6.2.6.6Z"/>
</svg>