<?xml version="1.0" encoding="UTF-8" standalone="no"?>
<!DOCTYPE svg PUBLIC "-//W3C//DTD SVG 1.1//EN" "http://www.w3.org/Graphics/SVG/1.1/DTD/svg11.dtd">
<svg xmlns="http://www.w3.org/2000/svg" version="1.1" viewBox="0.00 0.00 1024.00 367.00">
<g stroke-width="2.00" fill="none" stroke-linecap="butt">
<path stroke="#ffabab" vector-effect="non-scaling-stroke" d="
  M 568.88 142.29
  Q 568.88 142.28 568.84 142.21
  Q 567.87 140.26 569.70 138.96
  Q 576.17 134.42 577.54 126.98
  C 579.28 117.47 574.51 107.45 564.75 105.20
  A 0.75 0.74 16.2 0 0 563.88 105.67
  Q 560.29 115.65 550.17 118.95
  Q 548.27 119.57 546.91 117.87
  Q 546.88 117.84 546.71 117.45
  A 1.89 1.89 0.0 0 1 547.51 115.02
  C 549.16 114.11 552.01 113.11 553.78 111.72
  C 568.57 100.25 555.09 76.41 537.36 84.79
  Q 535.59 85.63 534.37 83.99
  Q 534.34 83.95 534.32 83.93
  A 1.98 1.80 -35.2 0 1 534.95 81.10
  Q 538.45 79.04 542.56 78.65
  A 0.36 0.35 -18.3 0 0 542.83 78.11
  C 537.95 69.96 527.13 68.29 520.65 75.64
  C 516.94 79.86 516.42 84.01 516.43 90.09
  Q 516.41 173.09 516.27 186.12
  Q 516.18 195.07 522.07 201.54
  C 530.06 210.31 542.82 208.09 548.91 198.52
  Q 549.22 198.04 548.86 197.59
  C 547.53 195.93 547.51 194.00 550.04 193.41
  A 1.32 1.30 -37.0 0 1 550.95 193.53
  C 553.32 194.79 555.57 196.24 557.80 196.54
  Q 568.26 197.95 573.87 189.25
  Q 578.55 182.00 576.00 172.58
  Q 575.87 172.09 575.40 172.30
  Q 563.13 177.70 553.38 168.58
  A 1.89 1.83 40.1 0 1 553.13 166.11
  L 553.35 165.81
  Q 554.72 163.99 556.47 165.27
  C 557.99 166.37 559.90 168.04 561.57 168.66
  C 569.19 171.52 576.53 168.29 580.29 161.34
  C 584.11 154.23 582.77 145.39 577.35 139.35
  A 0.63 0.63 0.0 0 0 576.40 139.36
  Q 574.41 141.64 571.83 143.13
  Q 570.07 144.14 568.88 142.29"
/>
<path stroke="#ffabab" vector-effect="non-scaling-stroke" d="
  M 452.51 142.29
  Q 451.32 144.14 449.57 143.13
  Q 447.00 141.64 445.02 139.37
  A 0.63 0.63 0.0 0 0 444.07 139.36
  C 438.66 145.38 437.32 154.19 441.13 161.27
  C 444.87 168.20 452.18 171.43 459.78 168.58
  C 461.44 167.96 463.35 166.30 464.86 165.20
  Q 466.61 163.93 467.97 165.74
  L 468.19 166.04
  A 1.88 1.83 -40.0 0 1 467.94 168.50
  Q 458.22 177.59 446.00 172.20
  Q 445.53 171.99 445.40 172.48
  Q 442.85 181.86 447.51 189.09
  Q 453.10 197.77 463.52 196.37
  C 465.75 196.07 467.99 194.62 470.35 193.37
  A 1.32 1.30 37.1 0 1 471.26 193.25
  C 473.78 193.84 473.76 195.76 472.43 197.42
  Q 472.07 197.86 472.38 198.34
  C 478.45 207.88 491.16 210.10 499.13 201.37
  Q 505.00 194.92 504.92 186.00
  Q 504.78 173.02 504.81 90.30
  C 504.82 84.24 504.30 80.10 500.61 75.90
  C 494.15 68.57 483.37 70.23 478.50 78.35
  A 0.36 0.35 18.4 0 0 478.77 78.88
  Q 482.87 79.27 486.35 81.33
  A 1.98 1.79 35.2 0 1 486.98 84.15
  Q 486.96 84.17 486.93 84.21
  Q 485.71 85.84 483.95 85.01
  C 466.28 76.65 452.84 100.40 467.57 111.84
  C 469.34 113.22 472.18 114.22 473.82 115.13
  A 1.89 1.88 -63.4 0 1 474.62 117.55
  Q 474.45 117.94 474.42 117.97
  Q 473.06 119.66 471.17 119.04
  Q 461.08 115.75 457.51 105.80
  A 0.75 0.74 -16.2 0 0 456.64 105.33
  C 446.91 107.57 442.16 117.55 443.89 127.03
  Q 445.25 134.45 451.69 138.98
  Q 453.52 140.27 452.55 142.21
  Q 452.51 142.28 452.51 142.29"
/>
<path stroke="#808080" vector-effect="non-scaling-stroke" d="
  M 479.56 249.65
  L 479.56 228.04
  Q 479.56 227.82 479.33 227.82
  L 475.01 227.82
  Q 474.83 227.82 474.83 227.99
  L 474.83 276.54
  Q 474.83 277.00 475.29 277.00
  L 479.20 277.00
  Q 479.58 277.00 479.58 276.61
  Q 479.54 271.59 479.57 260.32
  C 479.58 255.53 480.70 251.44 484.72 249.49
  C 491.76 246.08 498.15 250.60 498.16 258.26
  Q 498.18 267.95 498.16 276.44
  A 0.56 0.56 0.0 0 0 498.72 277.00
  L 502.52 277.00
  Q 503.05 277.00 503.04 276.47
  Q 503.02 258.54 502.96 257.06
  C 502.70 251.07 500.19 246.01 493.91 244.64
  Q 485.50 242.79 479.94 249.79
  Q 479.56 250.27 479.56 249.65"
/>
<path stroke="#808080" vector-effect="non-scaling-stroke" d="
  M 335.64 250.94
  L 335.64 245.25
  Q 335.64 244.86 335.25 244.86
  L 331.45 244.86
  Q 331.00 244.86 331.00 245.30
  L 331.00 291.99
  Q 331.00 293.00 332.01 293.00
  L 335.04 293.00
  Q 335.82 293.00 335.82 292.22
  L 335.82 271.29
  Q 335.82 270.54 336.26 271.14
  C 339.94 276.19 345.15 278.62 351.33 277.27
  C 364.68 274.37 367.37 255.53 357.27 247.43
  Q 353.34 244.28 347.28 244.31
  Q 341.75 244.34 336.03 251.08
  Q 335.64 251.55 335.64 250.94"
/>
<path stroke="#808080" vector-effect="non-scaling-stroke" d="
  M 384.44 273.01
  Q 376.03 274.72 374.01 267.72
  Q 373.76 266.85 372.88 267.06
  L 370.24 267.68
  Q 369.03 267.96 369.46 269.13
  Q 372.25 276.83 379.92 277.59
  Q 385.29 278.12 389.55 275.03
  C 393.51 272.16 394.41 266.80 391.33 262.92
  C 388.33 259.12 382.02 258.77 378.04 257.47
  C 373.05 255.84 374.37 249.62 378.91 248.63
  Q 386.10 247.07 388.41 253.95
  A 0.31 0.31 0.0 0 0 388.85 254.13
  Q 390.48 253.27 392.48 252.94
  Q 392.72 252.90 392.66 252.67
  C 390.81 245.27 383.12 242.88 376.48 245.20
  C 369.57 247.61 367.43 256.21 373.65 260.66
  C 377.45 263.37 388.41 262.02 388.33 268.49
  C 388.30 270.57 386.45 272.60 384.44 273.01"
/>
<path stroke="#808080" vector-effect="non-scaling-stroke" d="
  M 435.27 261.12
  C 435.37 274.48 448.99 281.82 460.34 275.34
  Q 464.82 272.79 466.70 267.79
  Q 467.00 266.98 466.16 266.79
  L 463.14 266.12
  Q 462.54 265.98 462.27 266.53
  C 456.51 278.45 440.18 274.12 440.07 261.08
  C 439.96 248.04 456.23 243.45 462.18 255.27
  Q 462.46 255.82 463.05 255.67
  L 466.06 254.95
  Q 466.90 254.74 466.59 253.94
  Q 464.63 248.97 460.11 246.49
  C 448.65 240.20 435.16 247.75 435.27 261.12"
/>
<path stroke="#808080" vector-effect="non-scaling-stroke" d="
  M 516.20 262.42
  L 541.19 262.43
  Q 541.73 262.43 541.77 261.89
  C 542.37 253.13 537.76 245.13 528.34 244.39
  C 509.46 242.91 504.24 269.32 520.94 276.39
  C 528.61 279.63 538.14 276.80 541.20 268.46
  Q 541.45 267.77 540.73 267.61
  L 537.55 266.89
  Q 537.13 266.80 536.99 267.20
  C 535.68 270.74 532.46 273.20 528.47 273.33
  Q 524.94 273.45 523.14 272.74
  Q 516.83 270.23 515.64 263.08
  Q 515.53 262.42 516.20 262.42"
/>
<path stroke="#808080" vector-effect="non-scaling-stroke" d="
  M 564.57 261.15
  C 564.70 274.52 578.33 281.83 589.67 275.33
  Q 594.15 272.77 596.02 267.77
  Q 596.32 266.95 595.48 266.77
  L 592.46 266.10
  Q 591.86 265.96 591.59 266.52
  C 585.85 278.45 569.50 274.15 569.37 261.10
  C 569.24 248.06 585.50 243.44 591.47 255.25
  Q 591.75 255.80 592.35 255.65
  L 595.36 254.92
  Q 596.20 254.72 595.88 253.91
  Q 593.91 248.95 589.39 246.47
  C 577.92 240.20 564.43 247.78 564.57 261.15"
/>
<path stroke="#808080" vector-effect="non-scaling-stroke" d="
  M 623.74 272.51
  L 623.93 276.73
  A 0.29 0.28 87.8 0 0 624.21 277.00
  L 628.31 277.00
  Q 628.63 277.00 628.61 276.67
  Q 628.25 270.42 628.32 258.03
  C 628.34 252.88 627.51 249.11 623.40 246.30
  Q 621.08 244.72 617.45 244.37
  C 610.58 243.72 604.58 246.70 602.31 253.55
  Q 602.19 253.91 602.57 253.99
  L 606.54 254.89
  Q 606.92 254.97 607.02 254.60
  Q 608.56 248.97 614.34 248.54
  Q 624.16 247.81 623.71 258.03
  Q 623.69 258.54 623.17 258.53
  C 617.14 258.31 609.12 257.85 604.83 261.34
  C 599.64 265.55 601.59 274.19 607.58 276.68
  C 612.31 278.65 617.83 277.90 621.52 274.02
  Q 622.99 272.47 623.30 272.28
  Q 623.71 272.00 623.74 272.51"
/>
<path stroke="#808080" vector-effect="non-scaling-stroke" d="
  M 643.13 250.11
  L 643.13 245.25
  Q 643.13 244.85 642.73 244.85
  L 639.06 244.85
  A 0.41 0.41 0.0 0 0 638.65 245.26
  L 638.65 276.57
  Q 638.65 277.00 639.08 277.00
  L 642.96 277.00
  Q 643.33 277.00 643.33 276.63
  Q 643.32 270.72 643.26 264.74
  Q 643.19 257.75 644.62 254.64
  Q 647.26 248.92 654.87 249.33
  Q 655.24 249.35 655.24 248.97
  L 655.24 244.73
  Q 655.24 244.24 654.75 244.22
  Q 647.52 244.02 643.74 250.28
  Q 643.13 251.28 643.13 250.11"
/>
<path stroke="#808080" vector-effect="non-scaling-stroke" d="
  M 664.60 262.41
  L 689.59 262.41
  Q 690.13 262.41 690.17 261.87
  C 690.76 253.12 686.15 245.12 676.73 244.38
  C 657.85 242.91 652.65 269.32 669.35 276.38
  C 677.02 279.62 686.54 276.78 689.60 268.44
  Q 689.85 267.75 689.13 267.59
  L 685.95 266.87
  Q 685.53 266.78 685.39 267.18
  C 684.08 270.72 680.86 273.19 676.87 273.32
  Q 673.34 273.44 671.54 272.73
  Q 665.23 270.22 664.04 263.07
  Q 663.93 262.41 664.60 262.41"
/>
<path stroke="#808080" vector-effect="non-scaling-stroke" d="
  M 426.30 244.85
  A 0.31 0.31 0.0 0 0 426.02 245.03
  L 415.09 268.86
  A 0.31 0.31 0.0 0 1 414.53 268.86
  L 402.87 245.04
  A 0.31 0.31 0.0 0 0 402.59 244.87
  L 398.06 244.87
  A 0.31 0.31 0.0 0 0 397.78 245.32
  L 412.18 274.70
  A 0.31 0.31 0.0 0 1 412.18 274.96
  L 404.11 292.55
  A 0.31 0.31 0.0 0 0 404.39 292.99
  L 408.83 292.99
  A 0.31 0.31 0.0 0 0 409.11 292.81
  L 430.90 245.29
  A 0.31 0.31 0.0 0 0 430.62 244.85
  L 426.30 244.85"
/>
<path stroke="#ffabab" vector-effect="non-scaling-stroke" d="
  M 534.97 103.39
  Q 535.85 105.06 538.05 103.92
  Q 538.07 103.90 538.30 103.65
  A 2.35 2.35 0.0 0 0 538.62 101.01
  Q 534.47 93.11 525.55 93.10
  A 1.89 1.86 -86.4 0 0 523.69 94.76
  L 523.65 95.10
  A 2.13 2.11 -86.4 0 0 525.73 97.49
  Q 531.83 97.50 534.97 103.39"
/>
<path stroke="#ffabab" vector-effect="non-scaling-stroke" d="
  M 539.45 129.61
  Q 541.00 130.67 542.42 128.66
  Q 542.43 128.63 542.52 128.30
  A 2.34 2.34 0.0 0 0 541.59 125.83
  Q 534.31 120.75 526.42 124.83
  A 1.88 1.85 66.2 0 0 525.54 127.14
  L 525.66 127.47
  A 2.12 2.10 66.3 0 0 528.59 128.62
  Q 533.99 125.84 539.45 129.61"
/>
<path stroke="#ffabab" vector-effect="non-scaling-stroke" d="
  M 564.36 130.77
  Q 566.06 129.75 564.75 127.50
  Q 564.73 127.48 564.45 127.25
  A 2.47 2.47 0.0 0 0 561.67 127.06
  Q 553.60 131.83 554.06 141.19
  A 1.98 1.96 0.7 0 0 555.90 143.05
  L 556.26 143.07
  A 2.24 2.22 0.8 0 0 558.65 140.77
  Q 558.35 134.36 564.36 130.77"
/>
<path stroke="#ffabab" vector-effect="non-scaling-stroke" d="
  M 523.89 156.58
  A 2.10 2.10 0.0 0 0 524.42 160.28
  Q 525.88 160.79 527.57 159.61
  Q 532.98 155.86 533.05 147.56
  Q 533.07 145.45 530.87 145.42
  Q 530.85 145.42 530.79 145.42
  Q 528.62 145.63 528.47 147.71
  C 528.16 152.39 527.10 154.33 523.89 156.58"
/>
<path stroke="#ffabab" vector-effect="non-scaling-stroke" d="
  M 547.09 168.72
  Q 545.56 161.91 550.40 157.74
  A 2.23 2.21 45.7 0 0 550.43 154.43
  L 550.16 154.19
  A 1.97 1.95 45.8 0 0 547.56 154.13
  Q 540.48 160.22 542.56 169.32
  A 2.46 2.46 0.0 0 0 544.61 171.20
  Q 544.96 171.24 544.99 171.24
  Q 547.52 170.65 547.09 168.72"
/>
<path stroke="#ffabab" vector-effect="non-scaling-stroke" d="
  M 535.26 192.33
  Q 533.74 185.52 538.57 181.34
  A 2.23 2.21 45.7 0 0 538.60 178.03
  L 538.33 177.79
  A 1.97 1.95 45.8 0 0 535.73 177.74
  Q 528.65 183.83 530.74 192.93
  A 2.46 2.46 0.0 0 0 532.79 194.81
  Q 533.14 194.86 533.17 194.86
  Q 535.70 194.26 535.26 192.33"
/>
<path stroke="#ffabab" vector-effect="non-scaling-stroke" d="
  M 486.10 103.82
  Q 489.20 97.88 495.32 97.81
  A 2.14 2.12 85.9 0 0 497.39 95.40
  L 497.34 95.06
  A 1.89 1.87 85.9 0 0 495.47 93.41
  Q 486.51 93.49 482.42 101.46
  A 2.36 2.36 0.0 0 0 482.76 104.10
  Q 482.99 104.35 483.01 104.37
  Q 485.23 105.50 486.10 103.82"
/>
<path stroke="#ffabab" vector-effect="non-scaling-stroke" d="
  M 492.82 128.34
  Q 494.53 129.11 495.57 126.86
  Q 495.57 126.83 495.60 126.49
  A 2.35 2.34 13.8 0 0 494.22 124.23
  Q 486.12 120.57 479.11 126.03
  A 1.88 1.86 55.6 0 0 478.67 128.47
  L 478.84 128.77
  A 2.12 2.10 55.7 0 0 481.94 129.36
  Q 486.74 125.64 492.82 128.34"
/>
<path stroke="#ffabab" vector-effect="non-scaling-stroke" d="
  M 456.91 130.97
  Q 462.91 134.53 462.64 140.91
  A 2.23 2.21 -1.0 0 0 465.03 143.20
  L 465.39 143.17
  A 1.97 1.95 -0.9 0 0 467.21 141.31
  Q 467.63 131.98 459.58 127.27
  A 2.46 2.46 0.0 0 0 456.80 127.47
  Q 456.53 127.69 456.51 127.72
  Q 455.21 129.96 456.91 130.97"
/>
<path stroke="#ffabab" vector-effect="non-scaling-stroke" d="
  M 497.49 156.25
  C 494.24 153.95 493.17 151.98 492.87 147.22
  Q 492.73 145.10 490.53 144.88
  Q 490.46 144.88 490.44 144.88
  Q 488.21 144.90 488.22 147.05
  Q 488.26 155.48 493.74 159.32
  Q 495.45 160.52 496.94 160.01
  A 2.13 2.13 0.0 0 0 497.49 156.25"
/>
<path stroke="#ffabab" vector-effect="non-scaling-stroke" d="
  M 474.22 168.40
  Q 473.80 170.36 476.37 170.94
  Q 476.40 170.94 476.76 170.89
  A 2.50 2.50 0.0 0 0 478.82 168.96
  Q 480.85 159.70 473.60 153.59
  A 2.00 1.98 -46.4 0 0 470.96 153.67
  L 470.69 153.92
  A 2.26 2.24 -46.3 0 0 470.75 157.28
  Q 475.70 161.47 474.22 168.40"
/>
<path stroke="#ffabab" vector-effect="non-scaling-stroke" d="
  M 486.07 192.00
  Q 485.65 193.95 488.20 194.53
  Q 488.23 194.53 488.59 194.48
  A 2.49 2.49 0.0 0 0 490.64 192.56
  Q 492.67 183.35 485.47 177.27
  A 1.99 1.97 -46.3 0 0 482.84 177.35
  L 482.57 177.60
  A 2.25 2.23 -46.2 0 0 482.63 180.94
  Q 487.55 185.11 486.07 192.00"
/>
<path stroke="#808080" vector-effect="non-scaling-stroke" d="
  M 347.3697 273.5295
  A 12.57 11.52 89.5 0 0 358.7796 260.8595
  A 12.57 11.52 89.5 0 0 347.1503 248.3905
  A 12.57 11.52 89.5 0 0 335.7404 261.0605
  A 12.57 11.52 89.5 0 0 347.3697 273.5295"
/>
<path stroke="#808080" vector-effect="non-scaling-stroke" d="
  M 516.32 258.23
  L 536.78 258.23
  A 0.12 0.12 0.0 0 0 536.90 258.11
  L 536.90 258.02
  A 10.21 9.61 0.0 0 0 526.69 248.41
  L 526.41 248.41
  A 10.21 9.61 -0.0 0 0 516.20 258.02
  L 516.20 258.11
  A 0.12 0.12 0.0 0 0 516.32 258.23"
/>
<path stroke="#808080" vector-effect="non-scaling-stroke" d="
  M 618.35 272.33
  Q 623.62 269.67 623.76 262.99
  Q 623.77 262.51 623.28 262.49
  C 620.48 262.36 617.51 262.45 614.53 262.40
  C 611.30 262.34 607.02 263.45 606.75 267.27
  Q 606.45 271.60 610.33 272.90
  Q 614.47 274.29 618.35 272.33"
/>
<path stroke="#808080" vector-effect="non-scaling-stroke" d="
  M 664.16 257.32
  Q 663.79 258.23 664.78 258.23
  L 684.77 258.23
  Q 685.49 258.23 685.37 257.52
  C 684.31 251.14 679.81 247.69 673.43 248.43
  Q 667.50 249.12 664.16 257.32"
/>
</g>
<path fill="#ffffff" d="
  M 1024.00 0.00
  L 1024.00 367.00
  L 0.00 367.00
  L 0.00 0.00
  L 1024.00 0.00
  Z
  M 568.88 142.29
  Q 568.88 142.28 568.84 142.21
  Q 567.87 140.26 569.70 138.96
  Q 576.17 134.42 577.54 126.98
  C 579.28 117.47 574.51 107.45 564.75 105.20
  A 0.75 0.74 16.2 0 0 563.88 105.67
  Q 560.29 115.65 550.17 118.95
  Q 548.27 119.57 546.91 117.87
  Q 546.88 117.84 546.71 117.45
  A 1.89 1.89 0.0 0 1 547.51 115.02
  C 549.16 114.11 552.01 113.11 553.78 111.72
  C 568.57 100.25 555.09 76.41 537.36 84.79
  Q 535.59 85.63 534.37 83.99
  Q 534.34 83.95 534.32 83.93
  A 1.98 1.80 -35.2 0 1 534.95 81.10
  Q 538.45 79.04 542.56 78.65
  A 0.36 0.35 -18.3 0 0 542.83 78.11
  C 537.95 69.96 527.13 68.29 520.65 75.64
  C 516.94 79.86 516.42 84.01 516.43 90.09
  Q 516.41 173.09 516.27 186.12
  Q 516.18 195.07 522.07 201.54
  C 530.06 210.31 542.82 208.09 548.91 198.52
  Q 549.22 198.04 548.86 197.59
  C 547.53 195.93 547.51 194.00 550.04 193.41
  A 1.32 1.30 -37.0 0 1 550.95 193.53
  C 553.32 194.79 555.57 196.24 557.80 196.54
  Q 568.26 197.95 573.87 189.25
  Q 578.55 182.00 576.00 172.58
  Q 575.87 172.09 575.40 172.30
  Q 563.13 177.70 553.38 168.58
  A 1.89 1.83 40.1 0 1 553.13 166.11
  L 553.35 165.81
  Q 554.72 163.99 556.47 165.27
  C 557.99 166.37 559.90 168.04 561.57 168.66
  C 569.19 171.52 576.53 168.29 580.29 161.34
  C 584.11 154.23 582.77 145.39 577.35 139.35
  A 0.63 0.63 0.0 0 0 576.40 139.36
  Q 574.41 141.64 571.83 143.13
  Q 570.07 144.14 568.88 142.29
  Z
  M 452.51 142.29
  Q 451.32 144.14 449.57 143.13
  Q 447.00 141.64 445.02 139.37
  A 0.63 0.63 0.0 0 0 444.07 139.36
  C 438.66 145.38 437.32 154.19 441.13 161.27
  C 444.87 168.20 452.18 171.43 459.78 168.58
  C 461.44 167.96 463.35 166.30 464.86 165.20
  Q 466.61 163.93 467.97 165.74
  L 468.19 166.04
  A 1.88 1.83 -40.0 0 1 467.94 168.50
  Q 458.22 177.59 446.00 172.20
  Q 445.53 171.99 445.40 172.48
  Q 442.85 181.86 447.51 189.09
  Q 453.10 197.77 463.52 196.37
  C 465.75 196.07 467.99 194.62 470.35 193.37
  A 1.32 1.30 37.1 0 1 471.26 193.25
  C 473.78 193.84 473.76 195.76 472.43 197.42
  Q 472.07 197.86 472.38 198.34
  C 478.45 207.88 491.16 210.10 499.13 201.37
  Q 505.00 194.92 504.92 186.00
  Q 504.78 173.02 504.81 90.30
  C 504.82 84.24 504.30 80.10 500.61 75.90
  C 494.15 68.57 483.37 70.23 478.50 78.35
  A 0.36 0.35 18.4 0 0 478.77 78.88
  Q 482.87 79.27 486.35 81.33
  A 1.98 1.79 35.2 0 1 486.98 84.15
  Q 486.96 84.17 486.93 84.21
  Q 485.71 85.84 483.95 85.01
  C 466.28 76.65 452.84 100.40 467.57 111.84
  C 469.34 113.22 472.18 114.22 473.82 115.13
  A 1.89 1.88 -63.4 0 1 474.62 117.55
  Q 474.45 117.94 474.42 117.97
  Q 473.06 119.66 471.17 119.04
  Q 461.08 115.75 457.51 105.80
  A 0.75 0.74 -16.2 0 0 456.64 105.33
  C 446.91 107.57 442.16 117.55 443.89 127.03
  Q 445.25 134.45 451.69 138.98
  Q 453.52 140.27 452.55 142.21
  Q 452.51 142.28 452.51 142.29
  Z
  M 479.56 249.65
  L 479.56 228.04
  Q 479.56 227.82 479.33 227.82
  L 475.01 227.82
  Q 474.83 227.82 474.83 227.99
  L 474.83 276.54
  Q 474.83 277.00 475.29 277.00
  L 479.20 277.00
  Q 479.58 277.00 479.58 276.61
  Q 479.54 271.59 479.57 260.32
  C 479.58 255.53 480.70 251.44 484.72 249.49
  C 491.76 246.08 498.15 250.60 498.16 258.26
  Q 498.18 267.95 498.16 276.44
  A 0.56 0.56 0.0 0 0 498.72 277.00
  L 502.52 277.00
  Q 503.05 277.00 503.04 276.47
  Q 503.02 258.54 502.96 257.06
  C 502.70 251.07 500.19 246.01 493.91 244.64
  Q 485.50 242.79 479.94 249.79
  Q 479.56 250.27 479.56 249.65
  Z
  M 335.64 250.94
  L 335.64 245.25
  Q 335.64 244.86 335.25 244.86
  L 331.45 244.86
  Q 331.00 244.86 331.00 245.30
  L 331.00 291.99
  Q 331.00 293.00 332.01 293.00
  L 335.04 293.00
  Q 335.82 293.00 335.82 292.22
  L 335.82 271.29
  Q 335.82 270.54 336.26 271.14
  C 339.94 276.19 345.15 278.62 351.33 277.27
  C 364.68 274.37 367.37 255.53 357.27 247.43
  Q 353.34 244.28 347.28 244.31
  Q 341.75 244.34 336.03 251.08
  Q 335.64 251.55 335.64 250.94
  Z
  M 384.44 273.01
  Q 376.03 274.72 374.01 267.72
  Q 373.76 266.85 372.88 267.06
  L 370.24 267.68
  Q 369.03 267.96 369.46 269.13
  Q 372.25 276.83 379.92 277.59
  Q 385.29 278.12 389.55 275.03
  C 393.51 272.16 394.41 266.80 391.33 262.92
  C 388.33 259.12 382.02 258.77 378.04 257.47
  C 373.05 255.84 374.37 249.62 378.91 248.63
  Q 386.10 247.07 388.41 253.95
  A 0.31 0.31 0.0 0 0 388.85 254.13
  Q 390.48 253.27 392.48 252.94
  Q 392.72 252.90 392.66 252.67
  C 390.81 245.27 383.12 242.88 376.48 245.20
  C 369.57 247.61 367.43 256.21 373.65 260.66
  C 377.45 263.37 388.41 262.02 388.33 268.49
  C 388.30 270.57 386.45 272.60 384.44 273.01
  Z
  M 435.27 261.12
  C 435.37 274.48 448.99 281.82 460.34 275.34
  Q 464.82 272.79 466.70 267.79
  Q 467.00 266.98 466.16 266.79
  L 463.14 266.12
  Q 462.54 265.98 462.27 266.53
  C 456.51 278.45 440.18 274.12 440.07 261.08
  C 439.96 248.04 456.23 243.45 462.18 255.27
  Q 462.46 255.82 463.05 255.67
  L 466.06 254.95
  Q 466.90 254.74 466.59 253.94
  Q 464.63 248.97 460.11 246.49
  C 448.65 240.20 435.16 247.75 435.27 261.12
  Z
  M 516.20 262.42
  L 541.19 262.43
  Q 541.73 262.43 541.77 261.89
  C 542.37 253.13 537.76 245.13 528.34 244.39
  C 509.46 242.91 504.24 269.32 520.94 276.39
  C 528.61 279.63 538.14 276.80 541.20 268.46
  Q 541.45 267.77 540.73 267.61
  L 537.55 266.89
  Q 537.13 266.80 536.99 267.20
  C 535.68 270.74 532.46 273.20 528.47 273.33
  Q 524.94 273.45 523.14 272.74
  Q 516.83 270.23 515.64 263.08
  Q 515.53 262.42 516.20 262.42
  Z
  M 564.57 261.15
  C 564.70 274.52 578.33 281.83 589.67 275.33
  Q 594.15 272.77 596.02 267.77
  Q 596.32 266.95 595.48 266.77
  L 592.46 266.10
  Q 591.86 265.96 591.59 266.52
  C 585.85 278.45 569.50 274.15 569.37 261.10
  C 569.24 248.06 585.50 243.44 591.47 255.25
  Q 591.75 255.80 592.35 255.65
  L 595.36 254.92
  Q 596.20 254.72 595.88 253.91
  Q 593.91 248.95 589.39 246.47
  C 577.92 240.20 564.43 247.78 564.57 261.15
  Z
  M 623.74 272.51
  L 623.93 276.73
  A 0.29 0.28 87.8 0 0 624.21 277.00
  L 628.31 277.00
  Q 628.63 277.00 628.61 276.67
  Q 628.25 270.42 628.32 258.03
  C 628.34 252.88 627.51 249.11 623.40 246.30
  Q 621.08 244.72 617.45 244.37
  C 610.58 243.72 604.58 246.70 602.31 253.55
  Q 602.19 253.91 602.57 253.99
  L 606.54 254.89
  Q 606.92 254.97 607.02 254.60
  Q 608.56 248.97 614.34 248.54
  Q 624.16 247.81 623.71 258.03
  Q 623.69 258.54 623.17 258.53
  C 617.14 258.31 609.12 257.85 604.83 261.34
  C 599.64 265.55 601.59 274.19 607.58 276.68
  C 612.31 278.65 617.83 277.90 621.52 274.02
  Q 622.99 272.47 623.30 272.28
  Q 623.71 272.00 623.74 272.51
  Z
  M 643.13 250.11
  L 643.13 245.25
  Q 643.13 244.85 642.73 244.85
  L 639.06 244.85
  A 0.41 0.41 0.0 0 0 638.65 245.26
  L 638.65 276.57
  Q 638.65 277.00 639.08 277.00
  L 642.96 277.00
  Q 643.33 277.00 643.33 276.63
  Q 643.32 270.72 643.26 264.74
  Q 643.19 257.75 644.62 254.64
  Q 647.26 248.92 654.87 249.33
  Q 655.24 249.35 655.24 248.97
  L 655.24 244.73
  Q 655.24 244.24 654.75 244.22
  Q 647.52 244.02 643.74 250.28
  Q 643.13 251.28 643.13 250.11
  Z
  M 664.60 262.41
  L 689.59 262.41
  Q 690.13 262.41 690.17 261.87
  C 690.76 253.12 686.15 245.12 676.73 244.38
  C 657.85 242.91 652.65 269.32 669.35 276.38
  C 677.02 279.62 686.54 276.78 689.60 268.44
  Q 689.85 267.75 689.13 267.59
  L 685.95 266.87
  Q 685.53 266.78 685.39 267.18
  C 684.08 270.72 680.86 273.19 676.87 273.32
  Q 673.34 273.44 671.54 272.73
  Q 665.23 270.22 664.04 263.07
  Q 663.93 262.41 664.60 262.41
  Z
  M 426.30 244.85
  A 0.31 0.31 0.0 0 0 426.02 245.03
  L 415.09 268.86
  A 0.31 0.31 0.0 0 1 414.53 268.86
  L 402.87 245.04
  A 0.31 0.31 0.0 0 0 402.59 244.87
  L 398.06 244.87
  A 0.31 0.31 0.0 0 0 397.78 245.32
  L 412.18 274.70
  A 0.31 0.31 0.0 0 1 412.18 274.96
  L 404.11 292.55
  A 0.31 0.31 0.0 0 0 404.39 292.99
  L 408.83 292.99
  A 0.31 0.31 0.0 0 0 409.11 292.81
  L 430.90 245.29
  A 0.31 0.31 0.0 0 0 430.62 244.85
  L 426.30 244.85
  Z"
/>
<path fill="#fe5756" d="
  M 568.88 142.29
  Q 570.07 144.14 571.83 143.13
  Q 574.41 141.64 576.40 139.36
  A 0.63 0.63 0.0 0 1 577.35 139.35
  C 582.77 145.39 584.11 154.23 580.29 161.34
  C 576.53 168.29 569.19 171.52 561.57 168.66
  C 559.90 168.04 557.99 166.37 556.47 165.27
  Q 554.72 163.99 553.35 165.81
  L 553.13 166.11
  A 1.89 1.83 40.1 0 0 553.38 168.58
  Q 563.13 177.70 575.40 172.30
  Q 575.87 172.09 576.00 172.58
  Q 578.55 182.00 573.87 189.25
  Q 568.26 197.95 557.80 196.54
  C 555.57 196.24 553.32 194.79 550.95 193.53
  A 1.32 1.30 -37.0 0 0 550.04 193.41
  C 547.51 194.00 547.53 195.93 548.86 197.59
  Q 549.22 198.04 548.91 198.52
  C 542.82 208.09 530.06 210.31 522.07 201.54
  Q 516.18 195.07 516.27 186.12
  Q 516.41 173.09 516.43 90.09
  C 516.42 84.01 516.94 79.86 520.65 75.64
  C 527.13 68.29 537.95 69.96 542.83 78.11
  A 0.36 0.35 -18.3 0 1 542.56 78.65
  Q 538.45 79.04 534.95 81.10
  A 1.98 1.80 -35.2 0 0 534.32 83.93
  Q 534.34 83.95 534.37 83.99
  Q 535.59 85.63 537.36 84.79
  C 555.09 76.41 568.57 100.25 553.78 111.72
  C 552.01 113.11 549.16 114.11 547.51 115.02
  A 1.89 1.89 0.0 0 0 546.71 117.45
  Q 546.88 117.84 546.91 117.87
  Q 548.27 119.57 550.17 118.95
  Q 560.29 115.65 563.88 105.67
  A 0.75 0.74 16.2 0 1 564.75 105.20
  C 574.51 107.45 579.28 117.47 577.54 126.98
  Q 576.17 134.42 569.70 138.96
  Q 567.87 140.26 568.84 142.21
  Q 568.88 142.28 568.88 142.29
  Z
  M 534.97 103.39
  Q 535.85 105.06 538.05 103.92
  Q 538.07 103.90 538.30 103.65
  A 2.35 2.35 0.0 0 0 538.62 101.01
  Q 534.47 93.11 525.55 93.10
  A 1.89 1.86 -86.4 0 0 523.69 94.76
  L 523.65 95.10
  A 2.13 2.11 -86.4 0 0 525.73 97.49
  Q 531.83 97.50 534.97 103.39
  Z
  M 539.45 129.61
  Q 541.00 130.67 542.42 128.66
  Q 542.43 128.63 542.52 128.30
  A 2.34 2.34 0.0 0 0 541.59 125.83
  Q 534.31 120.75 526.42 124.83
  A 1.88 1.85 66.2 0 0 525.54 127.14
  L 525.66 127.47
  A 2.12 2.10 66.3 0 0 528.59 128.62
  Q 533.99 125.84 539.45 129.61
  Z
  M 564.36 130.77
  Q 566.06 129.75 564.75 127.50
  Q 564.73 127.48 564.45 127.25
  A 2.47 2.47 0.0 0 0 561.67 127.06
  Q 553.60 131.83 554.06 141.19
  A 1.98 1.96 0.7 0 0 555.90 143.05
  L 556.26 143.07
  A 2.24 2.22 0.8 0 0 558.65 140.77
  Q 558.35 134.36 564.36 130.77
  Z
  M 523.89 156.58
  A 2.10 2.10 0.0 0 0 524.42 160.28
  Q 525.88 160.79 527.57 159.61
  Q 532.98 155.86 533.05 147.56
  Q 533.07 145.45 530.87 145.42
  Q 530.85 145.42 530.79 145.42
  Q 528.62 145.63 528.47 147.71
  C 528.16 152.39 527.10 154.33 523.89 156.58
  Z
  M 547.09 168.72
  Q 545.56 161.91 550.40 157.74
  A 2.23 2.21 45.7 0 0 550.43 154.43
  L 550.16 154.19
  A 1.97 1.95 45.8 0 0 547.56 154.13
  Q 540.48 160.22 542.56 169.32
  A 2.46 2.46 0.0 0 0 544.61 171.20
  Q 544.96 171.24 544.99 171.24
  Q 547.52 170.65 547.09 168.72
  Z
  M 535.26 192.33
  Q 533.74 185.52 538.57 181.34
  A 2.23 2.21 45.7 0 0 538.60 178.03
  L 538.33 177.79
  A 1.97 1.95 45.8 0 0 535.73 177.74
  Q 528.65 183.83 530.74 192.93
  A 2.46 2.46 0.0 0 0 532.79 194.81
  Q 533.14 194.86 533.17 194.86
  Q 535.70 194.26 535.26 192.33
  Z"
/>
<path fill="#fe5756" d="
  M 452.51 142.29
  Q 452.51 142.28 452.55 142.21
  Q 453.52 140.27 451.69 138.98
  Q 445.25 134.45 443.89 127.03
  C 442.16 117.55 446.91 107.57 456.64 105.33
  A 0.75 0.74 -16.2 0 1 457.51 105.80
  Q 461.08 115.75 471.17 119.04
  Q 473.06 119.66 474.42 117.97
  Q 474.45 117.94 474.62 117.55
  A 1.89 1.88 -63.4 0 0 473.82 115.13
  C 472.18 114.22 469.34 113.22 467.57 111.84
  C 452.84 100.40 466.28 76.65 483.95 85.01
  Q 485.71 85.84 486.93 84.21
  Q 486.96 84.17 486.98 84.15
  A 1.98 1.79 35.2 0 0 486.35 81.33
  Q 482.87 79.27 478.77 78.88
  A 0.36 0.35 18.4 0 1 478.50 78.35
  C 483.37 70.23 494.15 68.57 500.61 75.90
  C 504.30 80.10 504.82 84.24 504.81 90.30
  Q 504.78 173.02 504.92 186.00
  Q 505.00 194.92 499.13 201.37
  C 491.16 210.10 478.45 207.88 472.38 198.34
  Q 472.07 197.86 472.43 197.42
  C 473.76 195.76 473.78 193.84 471.26 193.25
  A 1.32 1.30 37.1 0 0 470.35 193.37
  C 467.99 194.62 465.75 196.07 463.52 196.37
  Q 453.10 197.77 447.51 189.09
  Q 442.85 181.86 445.40 172.48
  Q 445.53 171.99 446.00 172.20
  Q 458.22 177.59 467.94 168.50
  A 1.88 1.83 -40.0 0 0 468.19 166.04
  L 467.97 165.74
  Q 466.61 163.93 464.86 165.20
  C 463.35 166.30 461.44 167.96 459.78 168.58
  C 452.18 171.43 444.87 168.20 441.13 161.27
  C 437.32 154.19 438.66 145.38 444.07 139.36
  A 0.63 0.63 0.0 0 1 445.02 139.37
  Q 447.00 141.64 449.57 143.13
  Q 451.32 144.14 452.51 142.29
  Z
  M 486.10 103.82
  Q 489.20 97.88 495.32 97.81
  A 2.14 2.12 85.9 0 0 497.39 95.40
  L 497.34 95.06
  A 1.89 1.87 85.9 0 0 495.47 93.41
  Q 486.51 93.49 482.42 101.46
  A 2.36 2.36 0.0 0 0 482.76 104.10
  Q 482.99 104.35 483.01 104.37
  Q 485.23 105.50 486.10 103.82
  Z
  M 492.82 128.34
  Q 494.53 129.11 495.57 126.86
  Q 495.57 126.83 495.60 126.49
  A 2.35 2.34 13.8 0 0 494.22 124.23
  Q 486.12 120.57 479.11 126.03
  A 1.88 1.86 55.6 0 0 478.67 128.47
  L 478.84 128.77
  A 2.12 2.10 55.7 0 0 481.94 129.36
  Q 486.74 125.64 492.82 128.34
  Z
  M 456.91 130.97
  Q 462.91 134.53 462.64 140.91
  A 2.23 2.21 -1.0 0 0 465.03 143.20
  L 465.39 143.17
  A 1.97 1.95 -0.9 0 0 467.21 141.31
  Q 467.63 131.98 459.58 127.27
  A 2.46 2.46 0.0 0 0 456.80 127.47
  Q 456.53 127.69 456.51 127.72
  Q 455.21 129.96 456.91 130.97
  Z
  M 497.49 156.25
  C 494.24 153.95 493.17 151.98 492.87 147.22
  Q 492.73 145.10 490.53 144.88
  Q 490.46 144.88 490.44 144.88
  Q 488.21 144.90 488.22 147.05
  Q 488.26 155.48 493.74 159.32
  Q 495.45 160.52 496.94 160.01
  A 2.13 2.13 0.0 0 0 497.49 156.25
  Z
  M 474.22 168.40
  Q 473.80 170.36 476.37 170.94
  Q 476.40 170.94 476.76 170.89
  A 2.50 2.50 0.0 0 0 478.82 168.96
  Q 480.85 159.70 473.60 153.59
  A 2.00 1.98 -46.4 0 0 470.96 153.67
  L 470.69 153.92
  A 2.26 2.24 -46.3 0 0 470.75 157.28
  Q 475.70 161.47 474.22 168.40
  Z
  M 486.07 192.00
  Q 485.65 193.95 488.20 194.53
  Q 488.23 194.53 488.59 194.48
  A 2.49 2.49 0.0 0 0 490.64 192.56
  Q 492.67 183.35 485.47 177.27
  A 1.99 1.97 -46.3 0 0 482.84 177.35
  L 482.57 177.60
  A 2.25 2.23 -46.2 0 0 482.63 180.94
  Q 487.55 185.11 486.07 192.00
  Z"
/>
<path fill="#ffffff" d="
  M 534.97 103.39
  Q 531.83 97.50 525.73 97.49
  A 2.13 2.11 -86.4 0 1 523.65 95.10
  L 523.69 94.76
  A 1.89 1.86 -86.4 0 1 525.55 93.10
  Q 534.47 93.11 538.62 101.01
  A 2.35 2.35 0.0 0 1 538.30 103.65
  Q 538.07 103.90 538.05 103.92
  Q 535.85 105.06 534.97 103.39
  Z"
/>
<path fill="#ffffff" d="
  M 486.10 103.82
  Q 485.23 105.50 483.01 104.37
  Q 482.99 104.35 482.76 104.10
  A 2.36 2.36 0.0 0 1 482.42 101.46
  Q 486.51 93.49 495.47 93.41
  A 1.89 1.87 85.9 0 1 497.34 95.06
  L 497.39 95.40
  A 2.14 2.12 85.9 0 1 495.32 97.81
  Q 489.20 97.88 486.10 103.82
  Z"
/>
<path fill="#ffffff" d="
  M 492.82 128.34
  Q 486.74 125.64 481.94 129.36
  A 2.12 2.10 55.7 0 1 478.84 128.77
  L 478.67 128.47
  A 1.88 1.86 55.6 0 1 479.11 126.03
  Q 486.12 120.57 494.22 124.23
  A 2.35 2.34 13.8 0 1 495.60 126.49
  Q 495.57 126.83 495.57 126.86
  Q 494.53 129.11 492.82 128.34
  Z"
/>
<path fill="#ffffff" d="
  M 539.45 129.61
  Q 533.99 125.84 528.59 128.62
  A 2.12 2.10 66.3 0 1 525.66 127.47
  L 525.54 127.14
  A 1.88 1.85 66.2 0 1 526.42 124.83
  Q 534.31 120.75 541.59 125.83
  A 2.34 2.34 0.0 0 1 542.52 128.30
  Q 542.43 128.63 542.42 128.66
  Q 541.00 130.67 539.45 129.61
  Z"
/>
<path fill="#ffffff" d="
  M 456.91 130.97
  Q 455.21 129.96 456.51 127.72
  Q 456.53 127.69 456.80 127.47
  A 2.46 2.46 0.0 0 1 459.58 127.27
  Q 467.63 131.98 467.21 141.31
  A 1.97 1.95 -0.9 0 1 465.39 143.17
  L 465.03 143.20
  A 2.23 2.21 -1.0 0 1 462.64 140.91
  Q 462.91 134.53 456.91 130.97
  Z"
/>
<path fill="#ffffff" d="
  M 564.36 130.77
  Q 558.35 134.36 558.65 140.77
  A 2.24 2.22 0.8 0 1 556.26 143.07
  L 555.90 143.05
  A 1.98 1.96 0.7 0 1 554.06 141.19
  Q 553.60 131.83 561.67 127.06
  A 2.47 2.47 0.0 0 1 564.45 127.25
  Q 564.73 127.48 564.75 127.50
  Q 566.06 129.75 564.36 130.77
  Z"
/>
<path fill="#ffffff" d="
  M 492.87 147.22
  C 493.17 151.98 494.24 153.95 497.49 156.25
  A 2.13 2.13 0.0 0 1 496.94 160.01
  Q 495.45 160.52 493.74 159.32
  Q 488.26 155.48 488.22 147.05
  Q 488.21 144.90 490.44 144.88
  Q 490.46 144.88 490.53 144.88
  Q 492.73 145.10 492.87 147.22
  Z"
/>
<path fill="#ffffff" d="
  M 523.89 156.58
  C 527.10 154.33 528.16 152.39 528.47 147.71
  Q 528.62 145.63 530.79 145.42
  Q 530.85 145.42 530.87 145.42
  Q 533.07 145.45 533.05 147.56
  Q 532.98 155.86 527.57 159.61
  Q 525.88 160.79 524.42 160.28
  A 2.10 2.10 0.0 0 1 523.89 156.58
  Z"
/>
<path fill="#ffffff" d="
  M 474.22 168.40
  Q 475.70 161.47 470.75 157.28
  A 2.26 2.24 -46.3 0 1 470.69 153.92
  L 470.96 153.67
  A 2.00 1.98 -46.4 0 1 473.60 153.59
  Q 480.85 159.70 478.82 168.96
  A 2.50 2.50 0.0 0 1 476.76 170.89
  Q 476.40 170.94 476.37 170.94
  Q 473.80 170.36 474.22 168.40
  Z"
/>
<path fill="#ffffff" d="
  M 547.09 168.72
  Q 547.52 170.65 544.99 171.24
  Q 544.96 171.24 544.61 171.20
  A 2.46 2.46 0.0 0 1 542.56 169.32
  Q 540.48 160.22 547.56 154.13
  A 1.97 1.95 45.8 0 1 550.16 154.19
  L 550.43 154.43
  A 2.23 2.21 45.7 0 1 550.40 157.74
  Q 545.56 161.91 547.09 168.72
  Z"
/>
<path fill="#ffffff" d="
  M 486.07 192.00
  Q 487.55 185.11 482.63 180.94
  A 2.25 2.23 -46.2 0 1 482.57 177.60
  L 482.84 177.35
  A 1.99 1.97 -46.3 0 1 485.47 177.27
  Q 492.67 183.35 490.64 192.56
  A 2.49 2.49 0.0 0 1 488.59 194.48
  Q 488.23 194.53 488.20 194.53
  Q 485.65 193.95 486.07 192.00
  Z"
/>
<path fill="#ffffff" d="
  M 535.26 192.33
  Q 535.70 194.26 533.17 194.86
  Q 533.14 194.86 532.79 194.81
  A 2.46 2.46 0.0 0 1 530.74 192.93
  Q 528.65 183.83 535.73 177.74
  A 1.97 1.95 45.8 0 1 538.33 177.79
  L 538.60 178.03
  A 2.23 2.21 45.7 0 1 538.57 181.34
  Q 533.74 185.52 535.26 192.33
  Z"
/>
<path fill="#000000" d="
  M 479.94 249.79
  Q 485.50 242.79 493.91 244.64
  C 500.19 246.01 502.70 251.07 502.96 257.06
  Q 503.02 258.54 503.04 276.47
  Q 503.05 277.00 502.52 277.00
  L 498.72 277.00
  A 0.56 0.56 0.0 0 1 498.16 276.44
  Q 498.18 267.95 498.16 258.26
  C 498.15 250.60 491.76 246.08 484.72 249.49
  C 480.70 251.44 479.58 255.53 479.57 260.32
  Q 479.54 271.59 479.58 276.61
  Q 479.58 277.00 479.20 277.00
  L 475.29 277.00
  Q 474.83 277.00 474.83 276.54
  L 474.83 227.99
  Q 474.83 227.82 475.01 227.82
  L 479.33 227.82
  Q 479.56 227.82 479.56 228.04
  L 479.56 249.65
  Q 479.56 250.27 479.94 249.79
  Z"
/>
<path fill="#000000" d="
  M 335.64 250.94
  Q 335.64 251.55 336.03 251.08
  Q 341.75 244.34 347.28 244.31
  Q 353.34 244.28 357.27 247.43
  C 367.37 255.53 364.68 274.37 351.33 277.27
  C 345.15 278.62 339.94 276.19 336.26 271.14
  Q 335.82 270.54 335.82 271.29
  L 335.82 292.22
  Q 335.82 293.00 335.04 293.00
  L 332.01 293.00
  Q 331.00 293.00 331.00 291.99
  L 331.00 245.30
  Q 331.00 244.86 331.45 244.86
  L 335.25 244.86
  Q 335.64 244.86 335.64 245.25
  L 335.64 250.94
  Z
  M 347.3697 273.5295
  A 12.57 11.52 89.5 0 0 358.7796 260.8595
  A 12.57 11.52 89.5 0 0 347.1503 248.3905
  A 12.57 11.52 89.5 0 0 335.7404 261.0605
  A 12.57 11.52 89.5 0 0 347.3697 273.5295
  Z"
/>
<path fill="#000000" d="
  M 384.44 273.01
  C 386.45 272.60 388.30 270.57 388.33 268.49
  C 388.41 262.02 377.45 263.37 373.65 260.66
  C 367.43 256.21 369.57 247.61 376.48 245.20
  C 383.12 242.88 390.81 245.27 392.66 252.67
  Q 392.72 252.90 392.48 252.94
  Q 390.48 253.27 388.85 254.13
  A 0.31 0.31 0.0 0 1 388.41 253.95
  Q 386.10 247.07 378.91 248.63
  C 374.37 249.62 373.05 255.84 378.04 257.47
  C 382.02 258.77 388.33 259.12 391.33 262.92
  C 394.41 266.80 393.51 272.16 389.55 275.03
  Q 385.29 278.12 379.92 277.59
  Q 372.25 276.83 369.46 269.13
  Q 369.03 267.96 370.24 267.68
  L 372.88 267.06
  Q 373.76 266.85 374.01 267.72
  Q 376.03 274.72 384.44 273.01
  Z"
/>
<path fill="#000000" d="
  M 440.07 261.08
  C 440.18 274.12 456.51 278.45 462.27 266.53
  Q 462.54 265.98 463.14 266.12
  L 466.16 266.79
  Q 467.00 266.98 466.70 267.79
  Q 464.82 272.79 460.34 275.34
  C 448.99 281.82 435.37 274.48 435.27 261.12
  C 435.16 247.75 448.65 240.20 460.11 246.49
  Q 464.63 248.97 466.59 253.94
  Q 466.90 254.74 466.06 254.95
  L 463.05 255.67
  Q 462.46 255.82 462.18 255.27
  C 456.23 243.45 439.96 248.04 440.07 261.08
  Z"
/>
<path fill="#000000" d="
  M 516.20 262.42
  Q 515.53 262.42 515.64 263.08
  Q 516.83 270.23 523.14 272.74
  Q 524.94 273.45 528.47 273.33
  C 532.46 273.20 535.68 270.74 536.99 267.20
  Q 537.13 266.80 537.55 266.89
  L 540.73 267.61
  Q 541.45 267.77 541.20 268.46
  C 538.14 276.80 528.61 279.63 520.94 276.39
  C 504.24 269.32 509.46 242.91 528.34 244.39
  C 537.76 245.13 542.37 253.13 541.77 261.89
  Q 541.73 262.43 541.19 262.43
  L 516.20 262.42
  Z
  M 516.32 258.23
  L 536.78 258.23
  A 0.12 0.12 0.0 0 0 536.90 258.11
  L 536.90 258.02
  A 10.21 9.61 0.0 0 0 526.69 248.41
  L 526.41 248.41
  A 10.21 9.61 -0.0 0 0 516.20 258.02
  L 516.20 258.11
  A 0.12 0.12 0.0 0 0 516.32 258.23
  Z"
/>
<path fill="#000000" d="
  M 564.57 261.15
  C 564.43 247.78 577.92 240.20 589.39 246.47
  Q 593.91 248.95 595.88 253.91
  Q 596.20 254.72 595.36 254.92
  L 592.35 255.65
  Q 591.75 255.80 591.47 255.25
  C 585.50 243.44 569.24 248.06 569.37 261.10
  C 569.50 274.15 585.85 278.45 591.59 266.52
  Q 591.86 265.96 592.46 266.10
  L 595.48 266.77
  Q 596.32 266.95 596.02 267.77
  Q 594.15 272.77 589.67 275.33
  C 578.33 281.83 564.70 274.52 564.57 261.15
  Z"
/>
<path fill="#000000" d="
  M 623.30 272.28
  Q 622.99 272.47 621.52 274.02
  C 617.83 277.90 612.31 278.65 607.58 276.68
  C 601.59 274.19 599.64 265.55 604.83 261.34
  C 609.12 257.85 617.14 258.31 623.17 258.53
  Q 623.69 258.54 623.71 258.03
  Q 624.16 247.81 614.34 248.54
  Q 608.56 248.97 607.02 254.60
  Q 606.92 254.97 606.54 254.89
  L 602.57 253.99
  Q 602.19 253.91 602.31 253.55
  C 604.58 246.70 610.58 243.72 617.45 244.37
  Q 621.08 244.72 623.40 246.30
  C 627.51 249.11 628.34 252.88 628.32 258.03
  Q 628.25 270.42 628.61 276.67
  Q 628.63 277.00 628.31 277.00
  L 624.21 277.00
  A 0.29 0.28 87.8 0 1 623.93 276.73
  L 623.74 272.51
  Q 623.71 272.00 623.30 272.28
  Z
  M 618.35 272.33
  Q 623.62 269.67 623.76 262.99
  Q 623.77 262.51 623.28 262.49
  C 620.48 262.36 617.51 262.45 614.53 262.40
  C 611.30 262.34 607.02 263.45 606.75 267.27
  Q 606.45 271.60 610.33 272.90
  Q 614.47 274.29 618.35 272.33
  Z"
/>
<path fill="#000000" d="
  M 643.13 250.11
  Q 643.13 251.28 643.74 250.28
  Q 647.52 244.02 654.75 244.22
  Q 655.24 244.24 655.24 244.73
  L 655.24 248.97
  Q 655.24 249.35 654.87 249.33
  Q 647.26 248.92 644.62 254.64
  Q 643.19 257.75 643.26 264.74
  Q 643.32 270.72 643.33 276.63
  Q 643.33 277.00 642.96 277.00
  L 639.08 277.00
  Q 638.65 277.00 638.65 276.57
  L 638.65 245.26
  A 0.41 0.41 0.0 0 1 639.06 244.85
  L 642.73 244.85
  Q 643.13 244.85 643.13 245.25
  L 643.13 250.11
  Z"
/>
<path fill="#000000" d="
  M 664.04 263.07
  Q 665.23 270.22 671.54 272.73
  Q 673.34 273.44 676.87 273.32
  C 680.86 273.19 684.08 270.72 685.39 267.18
  Q 685.53 266.78 685.95 266.87
  L 689.13 267.59
  Q 689.85 267.75 689.60 268.44
  C 686.54 276.78 677.02 279.62 669.35 276.38
  C 652.65 269.32 657.85 242.91 676.73 244.38
  C 686.15 245.12 690.76 253.12 690.17 261.87
  Q 690.13 262.41 689.59 262.41
  L 664.60 262.41
  Q 663.93 262.41 664.04 263.07
  Z
  M 664.16 257.32
  Q 663.79 258.23 664.78 258.23
  L 684.77 258.23
  Q 685.49 258.23 685.37 257.52
  C 684.31 251.14 679.81 247.69 673.43 248.43
  Q 667.50 249.12 664.16 257.32
  Z"
/>
<path fill="#000000" d="
  M 426.30 244.85
  L 430.62 244.85
  A 0.31 0.31 0.0 0 1 430.90 245.29
  L 409.11 292.81
  A 0.31 0.31 0.0 0 1 408.83 292.99
  L 404.39 292.99
  A 0.31 0.31 0.0 0 1 404.11 292.55
  L 412.18 274.96
  A 0.31 0.31 0.0 0 0 412.18 274.70
  L 397.78 245.32
  A 0.31 0.31 0.0 0 1 398.06 244.87
  L 402.59 244.87
  A 0.31 0.31 0.0 0 1 402.87 245.04
  L 414.53 268.86
  A 0.31 0.31 0.0 0 0 415.09 268.86
  L 426.02 245.03
  A 0.31 0.31 0.0 0 1 426.30 244.85
  Z"
/>
<path fill="#ffffff" d="
  M 516.32 258.23
  A 0.12 0.12 0.0 0 1 516.20 258.11
  L 516.20 258.02
  A 10.21 9.61 0.0 0 1 526.41 248.41
  L 526.69 248.41
  A 10.21 9.61 -0.0 0 1 536.90 258.02
  L 536.90 258.11
  A 0.12 0.12 0.0 0 1 536.78 258.23
  L 516.32 258.23
  Z"
/>
<path fill="#ffffff" d="
  M 664.16 257.32
  Q 667.50 249.12 673.43 248.43
  C 679.81 247.69 684.31 251.14 685.37 257.52
  Q 685.49 258.23 684.77 258.23
  L 664.78 258.23
  Q 663.79 258.23 664.16 257.32
  Z"
/>
<ellipse fill="#ffffff" cx="0.00" cy="0.00" transform="translate(347.26,260.96) rotate(89.5)" rx="12.57" ry="11.52"/>
<path fill="#ffffff" d="
  M 618.35 272.33
  Q 614.47 274.29 610.33 272.90
  Q 606.45 271.60 606.75 267.27
  C 607.02 263.45 611.30 262.34 614.53 262.40
  C 617.51 262.45 620.48 262.36 623.28 262.49
  Q 623.77 262.51 623.76 262.99
  Q 623.62 269.67 618.35 272.33
  Z"
/>
</svg>
